<?xml version="1.0" encoding="UTF-8"?>
<svg width="513px" height="513px" viewBox="0 0 513 513" version="1.1" xmlns="http://www.w3.org/2000/svg" xmlns:xlink="http://www.w3.org/1999/xlink">
    <title>logo</title>
    <g id="Page-1" stroke="none" stroke-width="1" fill="none" fill-rule="evenodd">
        <g id="Group-3" transform="translate(0.531250, 0.500000)" fill="#FFFFFF" fill-rule="nonzero">
            <path d="M100.239921,100.4129 C88.153916,120.738607 82.1109133,143.435547 82.1109133,168.50372 L82.1109133,379.888889 L152.94835,379.888889 L152.94835,168.50372 C152.94835,150.662233 159.215146,135.53094 171.748737,123.10984 C184.506319,110.462767 199.725821,104.139478 217.407243,104.139478 L310.066221,104.139478 L310.066221,33 L217.407243,33 C192.563557,33 169.846299,39.0978111 149.25547,51.2929378 C128.888236,63.4880644 112.549769,79.8617156 100.239921,100.4129 Z" id="Path"></path>
            <path d="M410.870646,409.660876 C422.95675,388.754873 429.00005,365.409251 429.00005,339.625 L429.00005,122.2 L358.162366,122.2 L358.162366,339.625 C358.162366,357.975918 351.89557,373.539831 339.361979,386.315749 C326.604397,399.324082 311.384894,405.828249 293.703472,405.828249 L201.043999,405.828249 L201.043999,479 L293.703472,479 C318.547159,479 341.264417,472.726267 361.855246,460.183756 C382.222579,447.641244 398.561046,430.799293 410.870646,409.660876 Z" id="Path"></path>
            <circle id="Oval" cx="260.510666" cy="251.044444" r="29.7333333"></circle>
        </g>
    </g>
</svg>