<svg xmlns="http://www.w3.org/2000/svg" width="512" height="512"><g transform="translate(64)"><ellipse cx="192" cy="257" rx="34" ry="36"/><path d="M.033 310.019V197.873q0-97.162 48.34-147.52Q96.227.502 176.43.006L178.054 0H251l-20.5 66.667h-52.446q-51.38 0-79.33 32.882l-.679.807q-27.64 33.25-27.998 91.719l-.005 1.541V310.02h-.019V371H0v-60.981zm382.934-108.038v112.146q0 97.162-48.34 147.52-47.855 49.851-128.058 50.347l-1.623.006H132l20.5-66.667h52.446q51.38 0 79.33-32.882l.679-.807q27.64-33.25 27.998-91.719l.005-1.541V201.98h.019V141H383v60.981z"/></g></svg>