<?xml version="1.0" encoding="UTF-8"?>
<svg id="Layer_1" xmlns="http://www.w3.org/2000/svg" xmlns:xlink="http://www.w3.org/1999/xlink" version="1.1" viewBox="0 0 2360 1640">
  <!-- Generator: Adobe Illustrator 29.2.1, SVG Export Plug-In . SVG Version: 2.1.0 Build 116)  -->
  <defs>
    <style>
      .st0 {
        fill: #272727;
      }

      .st0, .st1, .st2, .st3, .st4, .st5, .st6, .st7, .st8, .st9, .st10, .st11, .st12, .st13, .st14, .st15, .st16, .st17, .st18, .st19, .st20, .st21, .st22, .st23, .st24, .st25, .st26, .st27, .st28, .st29, .st30, .st31, .st32, .st33, .st34, .st35, .st36, .st37, .st38, .st39, .st40, .st41, .st42, .st43, .st44, .st45, .st46, .st47, .st48, .st49, .st50, .st51, .st52, .st53, .st54, .st55, .st56, .st57, .st58, .st59, .st60, .st61, .st62, .st63, .st64, .st65, .st66, .st67, .st68, .st69, .st70, .st71, .st72, .st73, .st74, .st75, .st76, .st77, .st78, .st79, .st80, .st81, .st82, .st83, .st84, .st85, .st86, .st87, .st88, .st89, .st90, .st91, .st92, .st93, .st94, .st95, .st96, .st97, .st98, .st99, .st100, .st101, .st102, .st103, .st104, .st105, .st106, .st107, .st108, .st109, .st110, .st111, .st112, .st113, .st114, .st115, .st116, .st117, .st118, .st119, .st120, .st121, .st122, .st123, .st124, .st125, .st126, .st127, .st128, .st129, .st130, .st131, .st132, .st133, .st134, .st135, .st136, .st137, .st138, .st139, .st140, .st141, .st142, .st143, .st144, .st145, .st146, .st147, .st148, .st149, .st150, .st151, .st152, .st153, .st154, .st155, .st156, .st157, .st158, .st159, .st160, .st161, .st162, .st163, .st164, .st165, .st166, .st167, .st168, .st169, .st170, .st171, .st172, .st173, .st174, .st175, .st176, .st177, .st178, .st179, .st180, .st181, .st182, .st183, .st184, .st185, .st186, .st187, .st188, .st189 {
        fill-rule: evenodd;
      }

      .st1 {
        fill: #616161;
      }

      .st2 {
        fill: #656565;
      }

      .st3 {
        fill: #454545;
      }

      .st4 {
        fill: #595758;
      }

      .st5 {
        fill: #9d9c9d;
      }

      .st6 {
        fill: #7c7c7c;
      }

      .st7 {
        fill: #4a4a4a;
      }

      .st8 {
        fill: #999899;
      }

      .st9 {
        fill: #6b696a;
      }

      .st10 {
        fill: #6b6b6b;
      }

      .st11 {
        fill: #bebebe;
      }

      .st12 {
        fill: #525252;
      }

      .st13 {
        fill: #818181;
      }

      .st14 {
        fill: #8d8c8d;
      }

      .st15 {
        fill: #fff;
      }

      .st16 {
        fill: #8d8d8d;
      }

      .st17 {
        fill: #6c6b6b;
      }

      .st18 {
        fill: #bbb;
      }

      .st19 {
        fill: #686667;
      }

      .st20 {
        fill: #595959;
      }

      .st21 {
        fill: #848484;
      }

      .st22 {
        fill: #575657;
      }

      .st23 {
        fill: #5f5f5f;
      }

      .st24 {
        fill: #545354;
      }

      .st25 {
        fill: #7a7a7a;
      }

      .st26 {
        fill: #4d4d4d;
      }

      .st27 {
        fill: #a4a4a4;
      }

      .st28 {
        fill: #b6b6b6;
      }

      .st29 {
        fill: #686868;
      }

      .st30 {
        fill: #4c4c4c;
      }

      .st31 {
        fill: #626262;
      }

      .st32 {
        fill: #8b8b8b;
      }

      .st33 {
        fill: #4f4e4e;
      }

      .st34 {
        fill: #515151;
      }

      .st35 {
        fill: #aeadae;
      }

      .st36 {
        fill: #717171;
      }

      .st37 {
        fill: #858585;
      }

      .st38 {
        fill: #797778;
      }

      .st39 {
        fill: #6c6c6c;
      }

      .st40 {
        fill: #353535;
      }

      .st41 {
        fill: #c6c5c6;
      }

      .st42 {
        fill: #d3d3d3;
      }

      .st43 {
        fill: #5f5e5f;
      }

      .st44 {
        fill: #5d5d5d;
      }

      .st45 {
        fill: #585758;
      }

      .st46 {
        fill: #9e9d9e;
      }

      .st47 {
        fill: #8f8f8f;
      }

      .st48 {
        fill: #a7a7a7;
      }

      .st49 {
        fill: #474647;
      }

      .st50 {
        fill: #6f6f6f;
      }

      .st51 {
        fill: #acacac;
      }

      .st52 {
        fill: #939393;
      }

      .st53 {
        fill: #686767;
      }

      .st54 {
        fill: #3d3b3c;
      }

      .st55 {
        fill: #797979;
      }

      .st56 {
        fill: #6d6d6d;
      }

      .st57 {
        fill: #838282;
      }

      .st58 {
        fill: #9b9b9b;
      }

      .st59 {
        fill: #9f9e9f;
      }

      .st60 {
        fill: #d9d9d9;
      }

      .st61 {
        fill: #7f7f7f;
      }

      .st62 {
        fill: #a0a0a0;
      }

      .st63 {
        fill: #c0bfbf;
      }

      .st64 {
        fill: #565555;
      }

      .st65 {
        fill: #d5d5d5;
      }

      .st66 {
        fill: #5e5e5e;
      }

      .st67 {
        fill: #535253;
      }

      .st68 {
        fill: #b8b8b8;
      }

      .st69 {
        fill: #a6a6a6;
      }

      .st70 {
        fill: #9e9e9e;
      }

      .st71 {
        fill: #d4d4d4;
      }

      .st72 {
        fill: #5b595a;
      }

      .st73 {
        fill: #b0b0b0;
      }

      .st74 {
        fill: #979797;
      }

      .st75 {
        fill: #c7c6c6;
      }

      .st76 {
        fill: #5a5a5a;
      }

      .st77 {
        fill: #c2c2c2;
      }

      .st78 {
        fill: #4c4b4c;
      }

      .st79 {
        fill: #373737;
      }

      .st80 {
        fill: silver;
      }

      .st81 {
        fill: #929292;
      }

      .st82 {
        fill: #666;
      }

      .st83 {
        fill: #464646;
      }

      .st84 {
        fill: #696969;
      }

      .st85 {
        fill: #8a898a;
      }

      .st86 {
        fill: #6a6a6a;
      }

      .st87 {
        fill: #656364;
      }

      .st88 {
        fill: #575757;
      }

      .st89 {
        fill: #434343;
      }

      .st90 {
        fill: gray;
      }

      .st91 {
        fill: #c7c7c7;
      }

      .st92 {
        fill: #c5c5c5;
      }

      .st93 {
        fill: #bfbfbf;
      }

      .st94 {
        fill: #535353;
      }

      .st95 {
        fill: #c8c7c7;
      }

      .st96 {
        fill: #4d4c4d;
      }

      .st97 {
        fill: #d0d0d0;
      }

      .st98 {
        fill: #565656;
      }

      .st99 {
        fill: #b7b7b7;
      }

      .st100 {
        fill: #7c7b7c;
      }

      .st101 {
        fill: #4f4e4f;
      }

      .st102 {
        fill: #959394;
      }

      .st103 {
        fill: #dbdada;
      }

      .st104 {
        fill: #888;
      }

      .st105 {
        fill: none;
      }

      .st106 {
        fill: #575656;
      }

      .st107 {
        fill: #7e7e7e;
      }

      .st108 {
        fill: #cdcdcd;
      }

      .st109 {
        fill: #dcdbdb;
      }

      .st110 {
        fill: #7d7d7d;
      }

      .st111 {
        fill: #767676;
      }

      .st112 {
        fill: #4b4b4b;
      }

      .st113 {
        fill: #959595;
      }

      .st114 {
        fill: #a5a5a5;
      }

      .st115 {
        fill: #919191;
      }

      .st116 {
        fill: #5c5b5b;
      }

      .st117 {
        fill: #8a8a8a;
      }

      .st118 {
        fill: #6c6b6c;
      }

      .st119 {
        fill: #8e8e8e;
      }

      .st120 {
        fill: #555354;
      }

      .st121 {
        fill: #5c5c5c;
      }

      .st122 {
        fill: #757575;
      }

      .st123 {
        fill: #c9c9c9;
      }

      .st124 {
        fill: #474747;
      }

      .st125 {
        fill: #555;
      }

      .st126 {
        fill: #b7b6b6;
      }

      .st127 {
        fill: #676767;
      }

      .st128 {
        fill: #201f1f;
      }

      .st129 {
        fill: #555454;
      }

      .st130 {
        fill: #999;
      }

      .st131 {
        fill: #7b7b7b;
      }

      .st132 {
        fill: #494849;
      }

      .st133 {
        fill: #494949;
      }

      .st134 {
        fill: #585858;
      }

      .st135 {
        fill: #606060;
      }

      .st136 {
        fill: #716f70;
      }

      .st137 {
        fill: #595859;
      }

      .st138 {
        fill: #535252;
      }

      .st139 {
        fill: #504f4f;
      }

      .st140 {
        fill: #9c9c9c;
      }

      .st141 {
        fill: #9a9a9a;
      }

      .st142 {
        fill: #414040;
      }

      .st143 {
        fill: #777;
      }

      .st144 {
        fill: #b1b0b0;
      }

      .st145 {
        fill: #949393;
      }

      .st146 {
        fill: #4e4d4d;
      }

      .st147 {
        fill: #545454;
      }

      .st148 {
        fill: #949494;
      }

      .st149 {
        fill: #a9a8a8;
      }

      .st150 {
        fill: #cbcbcb;
      }

      .st151 {
        fill: #666465;
      }

      .st152 {
        fill: #3b3b3b;
      }

      .st153 {
        fill: #cecdce;
      }

      .st154 {
        fill: #ddd;
      }

      .st155 {
        fill: #828282;
      }

      .st156 {
        fill: #c3c3c3;
      }

      .st157 {
        fill: #b1b1b1;
      }

      .st158 {
        fill: #676667;
      }

      .st159 {
        fill: #a8a8a8;
      }

      .st160 {
        fill: #838383;
      }

      .st161 {
        fill: #898989;
      }

      .st162 {
        fill: #646464;
      }

      .st163 {
        fill: #707070;
      }

      .st164 {
        fill: #737272;
      }

      .st165 {
        fill: #3a3a3a;
      }

      .st166 {
        fill: #747474;
      }

      .st167 {
        fill: #7e7d7e;
      }

      .st168 {
        fill: #909090;
      }

      .st169 {
        fill: #414141;
      }

      .st170 {
        fill: #343334;
      }

      .st171 {
        fill: #3f3f3f;
      }

      .st172 {
        fill: #a2a2a2;
      }

      .st173 {
        fill: #dfdfdf;
      }

      .st174 {
        fill: #6e6e6e;
      }

      .st175 {
        fill: #878787;
      }

      .st176 {
        fill: #989898;
      }

      .st177 {
        fill: #4f4f4f;
      }

      .st178 {
        fill: #a3a3a3;
      }

      .st179 {
        fill: #c1c1c1;
      }

      .st180 {
        fill: #646263;
      }

      .st181 {
        fill: #ababab;
      }

      .st182 {
        fill: #727272;
      }

      .st183 {
        fill: #7d7b7c;
      }

      .st184 {
        fill: #4d4b4c;
      }

      .st185 {
        fill: #d1d0d0;
      }

      .st186 {
        fill: #565455;
      }

      .st187 {
        fill: #cecece;
      }

      .st188 {
        fill: #9d9d9d;
      }

      .st189 {
        fill: #8e8d8e;
      }
    </style>
  </defs>
  <path class="st105" d="M-.5-.5h2360v1640H-.5V-.5Z"/>
  <path class="st46" d="M1606.5,228.5c37.9-2,75.9-.9,114,3.5,6.8,1.5,13.5,3,20,4.5-5-.7-10-1-15-1-3.1-1.3-6.4-2-10-2-7.4-1.5-15.1-2.1-23-2h-1c-7.1-1.6-14.4-2.5-22-2.5-21-.5-42-.7-63-.5Z"/>
  <path class="st15" d="M846.5,239.5c2,1.4,4.3,2.1,7,2,83.6,28.8,150.8,79.5,201.5,152,19.2,28.1,35.1,58.1,47.5,90,.2,1.7.8,3,2,4,40.7,113.1,81,226.4,121,340-.2,2.4.4,4.4,2,6-.2,1.3,0,2.3,1,3-.3,2.7.3,5.1,2,7,2.7,6.7,5.3,13.4,8,20-.2,2.4.4,4.4,2,6,3.3,7.2,6.3,14.5,9,22,0,3.1,1.1,5.8,3,8,.2,1.7.8,3,2,4-.4,2.5.2,4.5,2,6,7.1,22.3,15.1,44.3,24,66,0,1.5.6,2.5,2,3,38.3,82.1,97.3,144.6,177,187.5,5.6,3,11.2,5.5,17,7.5.8,1.6,2.1,2.3,4,2,4.6,2.2,9.2,4.2,14,6,3.9,2.5,8.3,4.1,13,5,13.3,5,27,9,41,12,3.7,1.6,7.7,2.6,12,3,2.7.3,5.3.7,8,1,2.7,1.6,5.7,2.3,9,2,10.8,1.4,21.5,2.8,32,4,19.3,2.4,38.7,2.4,58,0,4.6-.9,9.2-1.3,14-1,4.9,0,9.6-.5,14-2h2c9.4-.3,18.4-1.9,27-5,9.9-2.7,19.9-5.3,30-8,3.7-.2,7-1.2,10-3,6.1-2.5,12.5-4.8,19-7,3,.3,5.3-.7,7-3,3.7-2.2,7.7-3.8,12-5,5-.7,9.3-2.7,13-6,2.3,0,4-1.1,5-3,28.9-15.6,55.9-33.9,81-55,5.6-3.9,10.6-8.6,15-14,1-1.7,2.3-3,4-4,4.7-3.7,8.7-8.1,12-13,3.4-2.4,6.1-5.4,8-9,2.1-1.1,3.4-2.8,4-5,2.4-1.4,4.1-3.4,5-6,12.4-17.2,24.1-34.8,35-53,3.5-4,6.4-8.7,8.5-14,.5-1.3.7-2.6.5-4,6.3-13.5,11.9-27.1,17-41,3.2-5.1,5.2-10.8,6-17,1.3-4.7,2.7-9.3,4-14,1.1,0,1.8-.8,2-2,.8-4.3,1.5-8.6,2-13,.3-4.1.9-8.1,2-12,2.3-5,3.3-10.3,3-16,2.5-9,3.5-18.4,3-28v-3c2.6-19.7,2.6-39.3,0-59-1.2-7.3-1.8-14.6-2-22,.3-4.3-.4-8.3-2-12-.6-6.6-1.9-12.9-4-19v-2c0-2.7-.6-5-2-7,0-2.7-.6-5-2-7v-1c.2-2.4-.4-4.4-2-6-.8-4.9-2.1-9.6-4-14-.5-5.2-2.2-9.9-5-14-1-5.6-3-10.6-6-15,.2-2.4-.4-4.4-2-6,0-.7-.3-1-1-1,0-3.1-.9-5.8-3-8-2.8-7-6.2-13.7-10-20,0-1.5-.6-2.5-2-3-.2-3-1.6-5.4-4-7-2.2-5-4.8-9.7-8-14,0-1.5-.6-2.5-2-3-4.6-8.2-9.9-15.9-16-23-.6-2.2-1.9-3.9-4-5-.2-1.9-1.2-3.2-3-4-.9-2.6-2.6-4.6-5-6-.6-2.2-1.9-3.9-4-5-.3-1-1-1.7-2-2-.9-2.6-2.6-4.6-5-6-8.3-8.7-16.7-17.3-25-26-1.1-2.1-2.8-3.4-5-4-40-35.8-85.7-62.2-137-79-2.1-2.2-4.8-3.2-8-3-4.7-1.1-9.4-2.5-14-4-2-1.4-4.3-2.1-7-2-8.4-1.5-16.7-3.2-25-5-7.7-2.4-15.7-3.7-24-4-5.4,0-10.7-.3-16-1-20.5-1.2-41.2-1.3-62-.5-6.2.4-12.2,1.2-18,2.5-4.9-.1-9.6.5-14,2-2.9-.3-5.6,0-8,1-7.7.7-15,2.4-22,5-4,.1-7.7,1.1-11,3h-1c-8.3,2.1-16.3,4.7-24,8-3.2-.2-5.9.8-8,3-7.5,1.5-14.5,4.2-21,8-6.1,1.9-11.8,4.6-17,8-74.2,37.9-131.8,93.2-172.5,166-7.1,13.5-13.6,27.1-19.5,41-30.1-75.8-59.7-151.8-89-228,2.5-1.6,4.5-3.6,6-6,2-1.3,3.7-3,5-5,0-1.5.6-2.5,2-3,1.5-.9,2.5-2.3,3-4,1.3-1.4,3-2.1,5-2,.2-2.2.9-4.2,2-6,5.7-7,12-13.4,19-19,2.3-1.7,4.3-3.7,6-6,0-.7.3-1,1-1,1.3-.7,2.3-1.7,3-3s1.7-2.3,3-3c6.6-3.9,12.2-8.9,17-15,0-.7.3-1,1-1,2.2-.6,3.9-1.9,5-4,5.9-3.2,10.9-7.6,15-13,11.3-8.3,22.7-16.7,34-25,5-1,9-3.7,12-8,2.5-.7,4.8-1.7,7-3,2.7-.3,4.7-1.7,6-4,4.4-1.8,8.4-4.2,12-7,16.6-7.9,32.9-16.3,49-25,4.4-.9,8.4-2.6,12-5,4-1.2,8-2.3,12-3.5,1.4-.4,2.4-1.2,3-2.5,1.6-.5,3.3-.9,5-1,5.9-1.6,11.5-3.8,17-6.5,6.7-.3,12.7-2.3,18-6,3.4-.5,6.8-1.4,10-2.5.8.4,1.6.8,2.5,1,3.2-1.8,6.3-3.5,9.5-5,5.9-1,11.5-2.3,17-4,6-1.3,12-2.6,18-4,6.2-.8,12.2-1.8,18-3,14-2.7,28-4.7,42-6,36.7-2.6,73.3-2.6,110,0h1c7.4,1.5,15.1,2.1,23,2,3.6,0,6.9.7,10,2,23.6,4.6,47.3,9.6,71,15,7.7,2,15.4,4.3,23,7,4.5,2.6,9.5,4.3,15,5,1.7.2,3,.8,4,2,3.7,1.9,7.7,3.3,12,4,4.1,2.6,8.4,4.8,13,6.5,3.2,1.4,6.6,2.2,10,2.5,1.1,1.7,2.8,2.4,5,2,2.8,3.3,6.5,5.3,11,6,2.5,1.4,5.1,2.4,8,3,3.2,2.7,6.8,4.7,11,6,0,.9.2,1.5,1,2,3.3,1.3,6.7,2.7,10,4,1.9,2.6,4.6,4.3,8,5,1.7.7,3.3,1.3,5,2,1.9,3.6,4.9,5.6,9,6,2.1,3.2,5.1,5.2,9,6,4,2.3,8,4.7,12,7,1.1,2.1,2.8,3.4,5,4,1.7.7,3.3,1.3,5,2,3,4.3,7,7.3,12,9,1.7,2.6,4,4.2,7,5,1.7,2.7,4.1,4.7,7,6,1.1,2.1,2.8,3.4,5,4,7.4,7.7,15.8,14.4,25,20,7.4,8.4,15.4,16.1,24,23,5.6,8.6,12.6,15.9,21,22,1.1,5.2,4.1,8.8,9,11,.6,2.2,1.9,3.9,4,5,1.3,2.9,3.3,5.3,6,7,1.7.4,2.7,1.4,3,3,1.1,3.8,3.5,6.8,7,9,0,1.5.6,2.5,2,3,.6,2.9,2.2,4.9,5,6v2c1.3,2.9,3.3,5.3,6,7,6.9,12.2,14.6,23.9,23,35,3.4,6.7,6.9,13.3,10.5,20,1.8,1.7,3.7,3.4,5.5,5,1,3.8,2.4,7.4,4,11,2.6,6.2,5.9,11.9,10,17,3.9,9,7.5,18,11,27,1.1,3.8,2.4,7.4,4,11,1.6,5.2,3.6,10.2,6,15,3.3,10.2,7,20.2,11,30-.2,2.4.4,4.4,2,6,4.7,20.1,9.3,40.1,14,60,.6,5.3,1.1,10.6,1.5,16,.3,3,1.1,5.6,2.5,8,.7,4.3,1,8.6,1,13,1.4,19.1,2.8,38.1,4,57v18c-3,12.4-3.6,25.1-2,38-1.4,10.2-2.4,20.5-3,31v1c-4.2,18.4-7.5,37.1-10,56-3.6,10-6.6,20.4-9,31-.8,1.5-1.1,3.2-1,5-3,5.6-5,11.6-6,18-4.4,13.5-9.4,26.9-15,40v2c-2.5,1.1-3.5,3.1-3,6-2.8,4.4-5.3,9.1-7.5,14-.5,1.3-.7,2.6-.5,4-3.5,5.5-6.5,11.2-9,17-2.5,1.2-3.5,3.2-3,6-1.4,2.8-3.1,5.5-5,8-2.3,3.9-4.7,7.9-7,12-2.2,2.6-3.9,5.6-5,9-7,10.1-13.7,20.4-20,31-3.6,3.2-6.8,6.8-9.5,11-1.1,1.9-2,3.9-2.5,6-1.6,1.2-3.3,2.6-5,4-2.7,3.5-5.2,7.2-7.5,11-9.4,10.6-18.6,21.2-27.5,32-2.4.7-3.9,2.4-4.5,5-2.1,2.2-4.2,4.2-6.5,6-.7,0-1.4,0-2,.5-4.8,4.4-9.2,9.2-13,14.5-.7,0-1,.3-1,1-16,13.8-32.3,27.3-49,40.5-14.4,9.9-28.8,19.7-43,29.5-8.3,4.5-16.6,9-25,13.5-.9.7-1.6,1.5-2,2.5-3.4,1.7-6.7,3.3-10,5-5,2.2-10,4.3-15,6.5-1.2,1-2.2,2.2-3,3.5h-2c-2.3,0-4,1.1-5,3-3.7,0-6.7,1.3-9,4-5.4,2.1-10.9,4.1-16.5,6-1,.3-1.5,1-1.5,2h-1c-4.7,0-8.7,1.8-12,5-1.5,0-2.8.3-4,1-12.3,4.2-24.7,8.2-37,12-9.8,2.4-19.5,5.1-29,8-2.3.2-4.7.5-7,1-1.5,0-2.5.8-3,2h-1c-7,0-13.7,1.4-20,4-3.5-.6-6.5,0-9,2h-1c-3.3-.2-6.7,0-10,.5-1.2.2-2.2.7-3,1.5h-1c-16.5,1.2-32.8,2.8-49,5h-1c-32.7.5-65.4-.5-98-3h-4c-7.7-2.2-15.7-3.5-24-4-5.5-1.4-11.2-2.4-17-3h-4c-3.6-2-7.6-3-12-3h-1c-1.9-1.7-4.3-2.3-7-2-4.4-.5-8.7-1.2-13-2-7.7-3.6-15.7-5.9-24-7-1.6-1.6-3.6-2.8-6-3.5-4.6-1.5-9.3-2.7-14-3.5h-3c-5.4-2.2-10.8-4.7-16-7.5-1.3-.5-2.6-.7-4-.5-2-1.6-4.3-2.6-7-3h-1c-3.3-3.2-7.3-4.9-12-5-2.1-2.3-4.8-3.6-8-4-4-3.2-8.7-5.2-14-6-2.7-1.1-5-2.8-7-5-2.7-1.9-5.7-2.9-9-3-2-2.6-4.7-4-8-4-2.1-1.7-4.4-3-7-4-1.2-1.8-2.8-2.8-5-3-1.8-2.1-4.2-3.4-7-4-1.2-1.8-2.8-2.8-5-3-.4-1.6-1.4-2.7-3-3.5-2.6-1.4-5.2-2.6-8-3.5-1.5-2.3-3.5-4.2-6-5.5-3.9-2.4-7.9-4.6-12-6.5-4.3-4.2-9-7.8-14-11-4.6-2.2-8.6-5.2-12-9-3.2-3.9-7.2-6.5-12-8-3.4-4.4-7.4-8.1-12-11-2.1-3.1-4.7-5.4-8-7-2.1-3.1-4.7-5.4-8-7-15-15.2-29.2-31.2-42.5-48-25.6-33.5-47.9-69.2-67-107-9.7-19.1-18.5-38.4-26.5-58-6.8-17.6-14.2-35-22-52-7.9-19.2-15.9-38.4-24-57.5-43-116.8-87.9-232.9-134.5-348.5-27.4-62.7-72.2-108.2-134.5-136.5-8.1-3.3-16.5-5.9-25-8-17.2-2.7-34.6-4.6-52-5.5-189,1.2-378,1.3-567,.5-9-.2-18-.7-27-1.5,61.1-65.7,122.5-131.2,184-196.5,163.3.3,326.6.7,490,1,18.5,2.8,36.8,6.3,55,10.5Z"/>
  <path class="st139" d="M1602.5,228.5h4c21-.2,42,0,63,.5,7.6,0,14.9.9,22,2.5-36.7-2.6-73.3-2.6-110,0,6.9-1.5,13.9-2.5,21-3Z"/>
  <path class="st35" d="M1602.5,228.5c-7.1.5-14.1,1.5-21,3-11.1.2-22.1,1.2-33,3,2.4-1.4,5-2.2,8-2.5,15.3-2.1,30.6-3.2,46-3.5Z"/>
  <path class="st96" d="M1692.5,231.5c7.9-.1,15.6.5,23,2-7.9.1-15.6-.5-23-2Z"/>
  <path class="st22" d="M1581.5,231.5c-14,1.3-28,3.3-42,6,2.8-1.5,5.8-2.5,9-3,10.9-1.8,21.9-2.8,33-3Z"/>
  <path class="st137" d="M1725.5,235.5c5,0,10,.3,15,1,12.6,3.7,25.6,6.3,39,8,5.5,1.8,11.2,3.5,17,5v1c-23.7-5.4-47.4-10.4-71-15Z"/>
  <path class="st172" d="M846.5,239.5c2.7,0,5,.6,7,2-2.7,0-5-.6-7-2Z"/>
  <path class="st33" d="M1539.5,237.5c-5.8,1.2-11.8,2.2-18,3,.4-.7,1.1-1.2,2-1.5,5.3-1,10.6-1.5,16-1.5Z"/>
  <path class="st71" d="M1740.5,236.5c7.7.4,15.4,1.2,23,2.5,3.7,2.1,7.7,3.1,12,3,1.4.9,2.7,1.8,4,2.5-13.4-1.7-26.4-4.3-39-8Z"/>
  <path class="st189" d="M1548.5,234.5c-3.2.5-6.2,1.5-9,3-5.4,0-10.7.5-16,1.5-.9.3-1.6.8-2,1.5-6,1.4-12,2.7-18,4h-4c15.8-5.5,32.1-8.9,49-10Z"/>
  <path class="st149" d="M1495.5,244.5c-3,1.3-6,2.7-9,4h-4c4-2.1,8.3-3.4,13-4Z"/>
  <path class="st184" d="M1495.5,244.5h8c-5.5,1.7-11.1,3-17,4,3-1.3,6-2.7,9-4Z"/>
  <path class="st77" d="M1482.5,248.5c-5.9,1.7-11.9,3.3-18,5,0-1,.2-1.8,1-2.5,5.7-.8,11.3-1.7,17-2.5Z"/>
  <path class="st170" d="M1482.5,248.5h4c-3.2,1.5-6.3,3.2-9.5,5-.9-.2-1.7-.6-2.5-1-3.2,1.1-6.6,2-10,2.5-5.3,3.7-11.3,5.7-18,6-5.5,2.7-11.1,4.9-17,6.5,2.9-1.9,5.9-3.5,9-5,2.7-1,5.3-2,8-3,5.6-1.3,10.9-3,16-5,.7-.3,1.3-.7,2-1,6.1-1.7,12.1-3.3,18-5Z"/>
  <path class="st69" d="M1796.5,250.5v-1c4.3.9,8.6,1.8,13,2.5,6,3,12.3,5,19,6,.6.4.9.9,1,1.5-3.3-.7-6.7-1.3-10-2-7.6-2.7-15.3-5-23-7Z"/>
  <path class="st114" d="M1462.5,254.5c-5.1,2-10.4,3.7-16,5,4.7-3.2,10.1-4.8,16-5Z"/>
  <path class="st64" d="M1819.5,257.5c3.3.7,6.7,1.3,10,2,1.7.7,3.3,1.3,5,2v1c-5.5-.7-10.5-2.4-15-5Z"/>
  <path class="st92" d="M1834.5,262.5v-1c7.5.5,14.1,2.8,20,7h-4c-3.6-2.3-7.6-3.6-12-4-1-1.2-2.3-1.8-4-2Z"/>
  <path class="st57" d="M1438.5,262.5c-3.1,1.5-6.1,3.1-9,5-1.7.1-3.4.5-5,1,4-3.3,8.6-5.3,14-6Z"/>
  <path class="st26" d="M1838.5,264.5c4.4.4,8.4,1.7,12,4-4.3-.7-8.3-2.1-12-4Z"/>
  <path class="st87" d="M1850.5,268.5h4c6.7,2.2,13,5.2,19,9-3.4-.3-6.8-1.1-10-2.5-4.6-1.7-8.9-3.9-13-6.5Z"/>
  <path class="st162" d="M1424.5,268.5c-.6,1.3-1.6,2.1-3,2.5-4,1.2-8,2.3-12,3.5,4.2-3.8,9.2-5.8,15-6Z"/>
  <path class="st151" d="M1409.5,274.5c-3.6,2.4-7.6,4.1-12,5,3.5-2.7,7.5-4.4,12-5Z"/>
  <path class="st175" d="M1873.5,277.5c2.2-.4,3.9.3,5,2-2.2.4-3.9-.3-5-2Z"/>
  <path class="st76" d="M1878.5,279.5c4.2,1.2,7.8,3.2,11,6-4.5-.7-8.2-2.7-11-6Z"/>
  <path class="st85" d="M1897.5,288.5c3.5.9,6.9,2.2,10,4,.8.5,1.1,1.1,1,2-4.2-1.3-7.8-3.3-11-6Z"/>
  <path class="st67" d="M1397.5,279.5c-16.1,8.7-32.4,17.1-49,25,7.5-5,15.5-9.5,24-13.5l3-3c7.5-2.6,14.8-5.4,22-8.5Z"/>
  <path class="st167" d="M1908.5,294.5c2.6,1.1,5.2,1.9,8,2.5,1.6.8,2.6,1.9,3,3.5-3.3-1.3-6.7-2.7-10-4-.8-.5-1.1-1.1-1-2Z"/>
  <path class="st134" d="M1919.5,300.5c3.4.7,6.1,2.4,8,5-3.4-.7-6.1-2.4-8-5Z"/>
  <path class="st24" d="M1932.5,307.5l9,6c-4.1-.4-7.1-2.4-9-6Z"/>
  <path class="st59" d="M1348.5,304.5c-3.6,2.8-7.6,5.2-12,7-2.3.8-4.3,2.2-6,4-2.2,1.3-4.5,2.3-7,3,7.3-6.5,15.6-11.1,25-14Z"/>
  <path class="st49" d="M1336.5,311.5c-1.3,2.3-3.3,3.7-6,4,1.7-1.8,3.7-3.2,6-4Z"/>
  <path class="st54" d="M1941.5,313.5c2.2,1.3,4.5,2.3,7,3,.7,1,1.3,2,2,3-3.9-.8-6.9-2.8-9-6Z"/>
  <path class="st68" d="M1948.5,316.5c1.7.4,3.3.9,5,1.5,4.1,2.4,7.7,5.2,11,8.5h-2c-4-2.3-8-4.7-12-7-.7-1-1.3-2-2-3Z"/>
  <path class="st111" d="M1323.5,318.5c-3,4.3-7,7-12,8,3.7-3,7.7-5.7,12-8Z"/>
  <path class="st117" d="M1311.5,326.5c-11.3,8.3-22.7,16.7-34,25,10.3-9.8,21.6-18.1,34-25Z"/>
  <path class="st98" d="M1962.5,326.5h2c1,1.3,2,2.7,3,4-2.2-.6-3.9-1.9-5-4Z"/>
  <path class="st48" d="M1972.5,332.5c5.2,1.5,9.2,4.5,12,9-5-1.7-9-4.7-12-9Z"/>
  <path class="st161" d="M1984.5,341.5c2.9.9,5.2,2.6,7,5-3-.8-5.3-2.4-7-5Z"/>
  <path class="st13" d="M1991.5,346.5c3.2.9,5.6,2.9,7,6-2.9-1.3-5.3-3.3-7-6Z"/>
  <path class="st66" d="M1998.5,352.5c2.2.6,3.9,1.9,5,4-2.2-.6-3.9-1.9-5-4Z"/>
  <path class="st98" d="M1277.5,351.5c-4.1,5.4-9.1,9.8-15,13,4.7-4.7,9.7-9,15-13Z"/>
  <path class="st111" d="M2003.5,356.5c1.4-.2,2.7,0,4,.5,7.2,6.3,14.2,12.8,21,19.5-9.2-5.6-17.6-12.3-25-20Z"/>
  <path class="st133" d="M1262.5,364.5c-1.1,2.1-2.8,3.4-5,4,1.1-2.1,2.8-3.4,5-4Z"/>
  <path class="st142" d="M1256.5,369.5c-4.8,6.1-10.4,11.1-17,15,5.3-5.3,11-10.3,17-15Z"/>
  <path class="st100" d="M2028.5,376.5c8.6,6.9,16.6,14.6,24,23-8.6-6.9-16.6-14.6-24-23Z"/>
  <path class="st82" d="M1236.5,387.5c-.7,1.3-1.7,2.3-3,3,0-2,1-3,3-3Z"/>
  <path class="st31" d="M1232.5,391.5c-1.7,2.3-3.7,4.3-6,6,1-3,3-5,6-6Z"/>
  <path class="st17" d="M2052.5,399.5c7,6.5,13.9,13.2,20.5,20,.5.6.6,1.3.5,2-8.4-6.1-15.4-13.4-21-22Z"/>
  <path class="st152" d="M1207.5,416.5c-1.1,1.8-1.8,3.8-2,6-2-.1-3.7.6-5,2,2.3-2.6,4.6-5.3,7-8Z"/>
  <path class="st156" d="M1671.5,423.5c-26.7-.3-53.4.3-80,2,5.8-1.3,11.8-2.1,18-2.5,20.8-.8,41.5-.7,62,.5Z"/>
  <path class="st83" d="M1687.5,424.5c8.3.3,16.3,1.6,24,4-8.2-.9-16.2-2.2-24-4Z"/>
  <path class="st82" d="M1200.5,424.5c-.5,1.7-1.5,3.1-3,4,0-2.1,1.1-3.5,3-4Z"/>
  <path class="st11" d="M1591.5,425.5c-4.4,1.5-9.1,2.1-14,2,4.4-1.5,9.1-2.1,14-2Z"/>
  <path class="st138" d="M2073.5,421.5c4.1,2.8,7.1,6.5,9,11-4.9-2.2-7.9-5.8-9-11Z"/>
  <path class="st91" d="M1569.5,428.5c-6.9,3.2-14.2,4.9-22,5,7-2.6,14.3-4.3,22-5Z"/>
  <path class="st112" d="M1736.5,433.5c2.7,0,5,.6,7,2h-1c-2.3,0-4.3-.8-6-2Z"/>
  <path class="st134" d="M2082.5,432.5c1.7,1,3,2.3,4,4v1c-2.1-1.1-3.4-2.8-4-5Z"/>
  <path class="st162" d="M1195.5,431.5c-1.3,2-3,3.7-5,5,.7-2.7,2.3-4.3,5-5Z"/>
  <path class="st157" d="M1547.5,433.5c0,.6-.4,1.1-1,1.5-3.3.6-6.7,1.1-10,1.5,3.3-1.9,7-2.9,11-3Z"/>
  <path class="st179" d="M1742.5,435.5h1c4.6,1.5,9.3,2.9,14,4v1c-5.5-.7-10.5-2.4-15-5Z"/>
  <path class="st93" d="M1535.5,436.5c-7.7,3.5-15.7,6.2-24,8,7.7-3.3,15.7-5.9,24-8Z"/>
  <path class="st133" d="M1757.5,440.5v-1c3.2-.2,5.9.8,8,3-2.6-.9-5.3-1.5-8-2Z"/>
  <path class="st118" d="M1190.5,436.5c-1.5,2.4-3.5,4.4-6,6,1.1-2.9,3.1-4.9,6-6Z"/>
  <path class="st20" d="M2086.5,437.5c2.7,1.7,4.7,4.1,6,7-2.7-1.7-4.7-4.1-6-7Z"/>
  <path class="st150" d="M2086.5,437.5v-1c7,3.2,11.6,8.5,14,16-1.9-1.5-3.6-3.1-5-5-.3-1.6-1.3-2.6-3-3-1.3-2.9-3.3-5.3-6-7Z"/>
  <path class="st159" d="M1511.5,444.5c-2.4,1.4-5.1,2.4-8,3,2.1-2.2,4.8-3.2,8-3Z"/>
  <path class="st162" d="M2095.5,447.5c1.4,1.9,3.1,3.5,5,5,.3,1,1,1.7,2,2v2c-3.5-2.2-5.9-5.2-7-9Z"/>
  <path class="st179" d="M2102.5,454.5c3,.2,4.3,1.9,4,5h-2c-1.4-.5-2.1-1.5-2-3v-2Z"/>
  <path class="st11" d="M1482.5,455.5c-5,4-10.7,6.7-17,8,5.2-3.4,10.9-6.1,17-8Z"/>
  <path class="st86" d="M2104.5,459.5h2l3,6c-2.8-1.1-4.4-3.1-5-6Z"/>
  <path class="st80" d="M2109.5,465.5c2.6,2.3,5.3,4.6,8,7,3.8,4.5,6.8,9.5,9,15-3-5-6.7-9.3-11-13-1.3-2.9-3.3-5.3-6-7v-2Z"/>
  <path class="st7" d="M2109.5,467.5c2.7,1.7,4.7,4.1,6,7-2.7-1.7-4.7-4.1-6-7Z"/>
  <path class="st86" d="M1102.5,483.5c1.6.8,2.3,2.1,2,4-1.2-1-1.8-2.3-2-4Z"/>
  <path class="st106" d="M2115.5,474.5c4.3,3.7,8,8,11,13,3.1,6.5,6.9,12.5,11.5,18,.5,1.3.7,2.6.5,4-8.4-11.1-16.1-22.8-23-35Z"/>
  <path class="st9" d="M2138.5,509.5c6.8,7.3,12.1,15.7,16,25-1.8-1.6-3.7-3.3-5.5-5-3.6-6.7-7.1-13.3-10.5-20Z"/>
  <path class="st133" d="M1902.5,521.5c2.2.6,3.9,1.9,5,4-2.2-.6-3.9-1.9-5-4Z"/>
  <path class="st145" d="M2154.5,534.5c1,.5,1.8,1.1,2.5,2,1.4,4.3,3.2,8.3,5.5,12-1.3-1-2.7-2-4-3-1.6-3.6-3-7.2-4-11Z"/>
  <path class="st45" d="M2158.5,545.5c1.3,1,2.7,2,4,3,.3,3.5,1.8,6.5,4.5,9,.6,1.7,1.1,3.3,1.5,5-4.1-5.1-7.4-10.8-10-17Z"/>
  <path class="st70" d="M1932.5,551.5c2.4,1.4,4.1,3.4,5,6-2.4-1.4-4.1-3.4-5-6Z"/>
  <path class="st62" d="M1939.5,559.5c2.1,1.1,3.4,2.8,4,5-2.1-1.1-3.4-2.8-4-5Z"/>
  <path class="st58" d="M1943.5,564.5c2.4,1.4,4.1,3.4,5,6-2.4-1.4-4.1-3.4-5-6Z"/>
  <path class="st61" d="M1855.5,578.5c0-1.1-.8-1.8-2-2-2.3,1-4.6,1.6-7,2,2.8-2.5,6.1-3.5,10-3,.2,1.3,0,2.3-1,3Z"/>
  <path class="st27" d="M1951.5,574.5c2.1,1.1,3.4,2.8,4,5-2.1-1.1-3.4-2.8-4-5Z"/>
  <path class="st15" d="M1855.5,578.5c-.6.9-.9,1.9-1,3-2.8,3.2-4.8,6.8-6,11-1.8,1.5-2.8,3.5-3,6-2,1.4-3,3.4-3,6-1,0-1.7.5-2,1.5-1.8,3.8-3.5,7.6-5,11.5-1.8,1.5-2.8,3.5-3,6-4.7,8.1-9,16.4-13,25-1.4,1.8-2.4,3.8-3,6-3.1,4.2-5.5,8.8-7,14-2.3,2.1-3.6,4.8-4,8-1.8,1.5-2.8,3.5-3,6-1.2,1.5-2.2,3.1-3,5-1.8,1.5-2.8,3.5-3,6-1.8,1.5-2.8,3.5-3,6-.6.9-.9,1.9-1,3-3,2.6-5,5.9-6,10v1c-1.8,1.2-2.8,2.8-3,5v1c-1.9,1-2.9,2.7-3,5-2.3,2.1-3.6,4.8-4,8-1.8,1.5-2.8,3.5-3,6-3.1,4.2-5.5,8.8-7,14-1.8,1.2-2.8,2.8-3,5-1.8,1.5-2.8,3.5-3,6-1.8,1.5-2.8,3.5-3,6-3.7,5.3-6.8,10.9-9.5,17-.5,1.3-.7,2.6-.5,4-.7,0-1,.3-1,1-3.1,3-5.1,6.6-6,11-4.7,8-9,16.4-13,25-1.8,1.5-2.8,3.5-3,6-2.4,3.4-4.4,7.1-6,11-.7,1.2-1.1,2.5-1,4-3,2.6-5,5.9-6,10v1c-3.5,3.5-5.8,7.9-7,13-1.7,2.1-3,4.4-4,7-1,1.4-1.7,3.1-2,5-4.1,5.9-7.4,12.2-10,19-4.7,8.1-9.1,16.4-13,25,.2,1-.2,1.7-1,2-1.7,3.3-3.3,6.6-5,10-1.8,1.5-2.8,3.5-3,6-.8.3-1.2,1-1,2-1.8,1.5-2.8,3.5-3,6-2.7,4.1-5,8.4-7,13-1.5,1.7-2.5,3.7-3,6-1.8,1.5-2.8,3.5-3,6-4.3,6.1-7.6,12.8-10,20-1.8,1.2-2.8,2.8-3,5-2.6.2-4.9.9-7,2-.3.8-1,1.2-2,1-3.7.2-7,1.2-10,3-2.5.2-5,.6-7.5,1-1.7,0-2.8.8-3.5,2h-1c-5.5.7-10.8,2-16,4-2.5.2-5,.6-7.5,1-1.7,0-2.8.8-3.5,2-4,0-7.7,1.1-11,3-3,.6-6,1.1-9,1.5-.6.4-.9.9-1,1.5-3.5,0-6.5.9-9,3-2.1-.2-4.1.2-6,1-2.9,0-5.6.7-8,2-.7.9-1.7,1.2-3,1-6.6,1.7-13.2,3.2-20,4.5-1.8.8-3.5,1.6-5,2.5-4,0-7.7,1.1-11,3h-1c-3.5,0-6.5.9-9,3h-2c-2-.3-3.3.3-4,2-7,.8-13.7,2.5-20,5-4.3.2-8.3,1.2-12,3h-3v-3c1.4-3.1,3.1-6.1,5-9,1.9-2,3.4-4.3,4.5-7,.8-1.9,1.3-3.9,1.5-6,.7,0,1-.3,1-1,1.8-1.5,2.8-3.5,3-6l3-6c1.9-1,2.9-2.7,3-5,5.2-9,9.8-18.3,14-28,.2-1.7.8-3,2-4,2.3-2,3.6-4.7,4-8,2.8-3.2,4.8-6.8,6-11-.2-1,.2-1.7,1-2,1.8-1.5,2.8-3.5,3-6,1.8-3.7,3.8-7.3,6-11,2.6-3.7,4.6-7.7,6-12,.8-3.8,2.4-7.1,5-10,1.4-1.8,2.4-3.8,3-6,1.7-3.4,3.3-6.7,5-10,2.3-2.1,3.6-4.8,4-8,2.6-4.2,4.9-8.5,7-13,2.5-3.7,4.5-7.7,6-12,.3-.7.7-1.3,1-2,1.8-1.5,2.8-3.5,3-6,1.9-.5,2.9-1.9,3-4,2.1-5.1,4.5-10.1,7-15,1.8-1.5,2.8-3.5,3-6,1.8-3.7,3.8-7.4,6-11,3.1-4.2,5.5-8.8,7-14,1.8-1.5,2.8-3.5,3-6,2.9-4.4,5.2-9.1,7-14,1.8-1.5,2.8-3.5,3-6,2.1-1.8,3.4-4.2,4-7,1.5-1.7,2.5-3.7,3-6,3-5.7,6-11.3,9-17,3.1-2.9,5.1-6.6,6-11,0-1.1.4-2.1,1-3,1.9-2.8,3.6-5.8,5-9,2.9-5.6,5.6-11.2,8-17,1.9-1,2.9-2.7,3-5,4.3-4.8,7.3-10.5,9-17,.8-3,2.2-5.6,4-8,1.8-1.2,2.8-2.8,3-5,1.2-4.2,2.9-8.2,5-12,2.9-2.7,4.9-6,6-10v-1c1.8-1.5,2.8-3.5,3-6,1.6-1.3,2.6-2.9,3-5,1.3-1.8,2.8-3.5,4.5-5,.5-1.3.7-2.6.5-4,1.4-3.8,3.1-7.5,5-11,2-1.8,4.3-2.8,7-3,2.4.2,4.4-.4,6-2,1.3-.3,2.7-.7,4-1,2.4.2,4.4-.4,6-2h2c2.9-.6,5.6-1.6,8-3,7.3-1.7,14.7-3.3,22-5,2.4.2,4.4-.4,6-2,1.3-.3,2.7-.7,4-1,10.2-2.1,20.2-4.7,30-8,5.8-2,11.8-3.6,18-5,2.4.2,4.4-.4,6-2,4.4-.9,8.7-1.9,13-3,5-.7,9.6-2,14-4,4.7-1,9.3-2,14-3,1.1-.7,2.1-1.3,3-2,6.8-1.9,13.8-3.6,21-5,2.4-.4,4.7-1,7-2,1.2.2,1.9.9,2,2Z"/>
  <path class="st68" d="M2168.5,562.5c3.3,3.2,6.1,6.8,8.5,11,1.4,7.3,3.6,14.3,6.5,21-1.1-1.8-2.4-3.5-4-5-3.5-9-7.1-18-11-27Z"/>
  <path class="st55" d="M1825.5,583.5c-.9.7-1.9,1.3-3,2-4.7,1-9.3,2-14,3,0-.6.4-1.1,1-1.5,5.5-.9,10.8-2,16-3.5Z"/>
  <path class="st121" d="M1808.5,588.5c-4.4,2-9,3.3-14,4,4.3-2.2,9-3.6,14-4Z"/>
  <path class="st168" d="M1854.5,581.5c-1.2,4.2-3.2,7.8-6,11,1.2-4.2,3.2-7.8,6-11Z"/>
  <path class="st2" d="M1781.5,595.5c-1.6,1.6-3.6,2.2-6,2,1.6-1.6,3.6-2.2,6-2Z"/>
  <path class="st47" d="M1848.5,592.5c-.2,2.5-1.2,4.5-3,6,.2-2.5,1.2-4.5,3-6Z"/>
  <path class="st166" d="M2179.5,589.5c1.6,1.5,2.9,3.2,4,5,1.4,2.1,2.1,4.4,2,7-.7-.3-1.3-.7-2-1-1.6-3.6-2.9-7.2-4-11Z"/>
  <path class="st175" d="M1971.5,602.5c1.4.5,2.1,1.5,2,3-1.4-.5-2.1-1.5-2-3Z"/>
  <path class="st152" d="M2183.5,600.5c.7.3,1.3.7,2,1,.6.9.9,1.9,1,3,1.2,3.6,2.2,7.3,3,11-2.4-4.8-4.4-9.8-6-15Z"/>
  <path class="st44" d="M1757.5,602.5c-9.8,3.3-19.8,5.9-30,8,6.6-2,13.2-4.2,20-6.5,3.3-1,6.6-1.5,10-1.5Z"/>
  <path class="st12" d="M1723.5,611.5c-1.6,1.6-3.6,2.2-6,2,1.6-1.6,3.6-2.2,6-2Z"/>
  <path class="st141" d="M1842.5,604.5c-1.2,5.1-3.5,9.5-7,13,1.5-3.9,3.2-7.7,5-11.5.3-1,1-1.5,2-1.5Z"/>
  <path class="st17" d="M2186.5,604.5c.6,0,1.1.4,1.5,1,2.8,10.4,6.3,20.4,10.5,30,.9,3.3,1.5,6.6,2,10-4-9.8-7.7-19.8-11-30-.8-3.7-1.8-7.4-3-11Z"/>
  <path class="st74" d="M1695.5,618.5c-2.4,1.4-5.1,2.4-8,3,2.1-2.2,4.8-3.2,8-3Z"/>
  <path class="st2" d="M1685.5,621.5c-1.6,1.6-3.6,2.2-6,2,1.6-1.6,3.6-2.2,6-2Z"/>
  <path class="st107" d="M1835.5,617.5c-.2,2.5-1.2,4.5-3,6,.2-2.5,1.2-4.5,3-6Z"/>
  <path class="st159" d="M1669.5,625.5v1c-2.7.2-5,1.2-7,3,0-1.1.4-2.1,1-3,1.9-1,3.9-1.3,6-1Z"/>
  <path class="st12" d="M1675.5,624.5c-1.6,1.6-3.6,2.2-6,2v-1c1.9-.7,3.9-1,6-1Z"/>
  <path class="st70" d="M1981.5,619.5c2.4,1.6,3.8,4,4,7-1.7-2.1-3-4.4-4-7Z"/>
  <path class="st21" d="M1985.5,626.5c1.4.5,2.1,1.5,2,3-1.4-.5-2.1-1.5-2-3Z"/>
  <path class="st115" d="M1832.5,623.5c-3.1,8.2-6.8,16.2-11,24-.5.8-1.1,1.1-2,1,4-8.6,8.3-16.9,13-25Z"/>
  <path class="st40" d="M1657.5,640.5c.2,1.4,0,2.7-.5,4-1.7,1.5-3.2,3.2-4.5,5v-1c1.2-3,2.9-5.7,5-8Z"/>
  <path class="st182" d="M2200.5,645.5c1.6,1.6,2.2,3.6,2,6-1.6-1.6-2.2-3.6-2-6Z"/>
  <path class="st140" d="M1997.5,649.5c2.1,2.2,3.1,4.9,3,8-2.1-2.2-3.1-4.9-3-8Z"/>
  <path class="st16" d="M1652.5,648.5v1c-.4,2.1-1.4,3.7-3,5,.2-2.5,1.2-4.5,3-6Z"/>
  <path class="st29" d="M2202.5,651.5c4.4,13.8,8.4,27.8,12,42,1,6,1.7,12,2,18-4.7-19.9-9.3-39.9-14-60Z"/>
  <path class="st13" d="M1649.5,654.5c-.2,2.5-1.2,4.5-3,6,.2-2.5,1.2-4.5,3-6Z"/>
  <path class="st70" d="M2001.5,658.5c1.6,1.6,2.2,3.6,2,6-1.6-1.6-2.2-3.6-2-6Z"/>
  <path class="st90" d="M1646.5,661.5c-1.1,4-3.1,7.3-6,10,1.3-3,2.6-6,4-9,.5-.8,1.1-1.1,2-1Z"/>
  <path class="st81" d="M1816.5,654.5c-1.5,5.2-3.9,9.8-7,14,1.5-5.2,3.9-9.8,7-14Z"/>
  <path class="st113" d="M1809.5,668.5c-.4,3.2-1.7,5.9-4,8,.4-3.2,1.7-5.9,4-8Z"/>
  <path class="st60" d="M2198.5,635.5c1.3,1.1,2.5,2.5,3.5,4,2,9.6,4.7,18.9,8,28,1.6,8.7,3.1,17.4,4.5,26-3.6-14.2-7.6-28.2-12-42,.2-2.4-.4-4.4-2-6-.5-3.4-1.1-6.7-2-10Z"/>
  <path class="st70" d="M1805.5,676.5c-.2,2.5-1.2,4.5-3,6,.2-2.5,1.2-4.5,3-6Z"/>
  <path class="st56" d="M2009.5,679.5c2.8,4.1,4.5,8.8,5,14-2-4.4-3.7-9.1-5-14Z"/>
  <path class="st26" d="M1635.5,683.5c-.2,2.2-1.2,3.8-3,5,0-2.3,1.1-4,3-5Z"/>
  <path class="st110" d="M1799.5,687.5c-.2,2.5-1.2,4.5-3,6,.2-2.5,1.2-4.5,3-6Z"/>
  <path class="st13" d="M1796.5,693.5c-.2,2.5-1.2,4.5-3,6,.2-2.5,1.2-4.5,3-6Z"/>
  <path class="st169" d="M1628.5,696.5c-1.7,6.5-4.7,12.2-9,17,1.7-4,3.3-8,5-12,1.3-1.8,2.7-3.4,4-5Z"/>
  <path class="st74" d="M1792.5,702.5c-1.3,3-2.6,6-4,9-.5.8-1.1,1.1-2,1,1-4.1,3-7.4,6-10Z"/>
  <path class="st32" d="M2018.5,707.5c1.6,1.6,2.2,3.6,2,6-1.6-1.6-2.2-3.6-2-6Z"/>
  <path class="st2" d="M1619.5,713.5c0,2.3-1.1,4-3,5,.2-2.2,1.2-3.8,3-5Z"/>
  <path class="st130" d="M1786.5,713.5c0,2.3-1.1,4-3,5,.2-2.2,1.2-3.8,3-5Z"/>
  <path class="st32" d="M2020.5,714.5c1.4,2,2.1,4.3,2,7-1.4-2-2.1-4.3-2-7Z"/>
  <path class="st168" d="M1783.5,719.5c-.3,2.2-1.3,3.9-3,5,0-2.3,1.1-4,3-5Z"/>
  <path class="st135" d="M2022.5,721.5c1.4,2,2.1,4.3,2,7-1.4-2-2.1-4.3-2-7Z"/>
  <path class="st32" d="M1780.5,724.5c-.2,3.4-1.5,6-4,8,.4-3.2,1.7-5.9,4-8Z"/>
  <path class="st53" d="M2216.5,711.5c1.6,1.5,2.5,3.5,2.5,6,.8,6,1.3,12,1.5,18-1.4-2.4-2.2-5-2.5-8-.4-5.4-.9-10.7-1.5-16Z"/>
  <path class="st37" d="M1776.5,732.5c-.2,2.5-1.2,4.5-3,6,.2-2.5,1.2-4.5,3-6Z"/>
  <path class="st178" d="M2024.5,730.5c2.1,6.1,3.4,12.4,4,19v4c-2.1-7.4-3.4-15.1-4-23Z"/>
  <path class="st15" d="M1121.5,1402.5c-74.5,1-149.2,1.3-224,1-112.2-194.3-223.8-389-335-584,47.8-1,95.8-1.3,144-1,15.7.2,31.3,0,47-.5,2.9-.2,5.5-.7,8-1.5,1.1-.9,2.4-1.3,4-1,3.3.2,6.7,0,10-.5,1.6-.6,2.9-1.4,4-2.5,44-13.2,80-38,108-74.5,1-.6,1.7-.3,2,1,23.1,65.8,46.1,131.6,69,197.5-.4,1.9-1.4,3.4-3,4.5-23.1,15.9-47.4,29.7-73,41.5,15.7,25.3,30.8,51,45.5,77,64.5,114.4,129,228.7,193.5,343Z"/>
  <path class="st61" d="M1608.5,735.5c-1.4,3.2-3.1,6.2-5,9,.4-3.8,2.1-6.8,5-9Z"/>
  <path class="st172" d="M1773.5,738.5c-1.5,5.2-3.9,9.8-7,14,1.5-5.2,3.9-9.8,7-14Z"/>
  <path class="st40" d="M2028.5,749.5c1.6,3.7,2.3,7.7,2,12-1-2.5-1.7-5.1-2-8v-4Z"/>
  <path class="st58" d="M1766.5,752.5c0,2.3-1.1,4-3,5,.2-2.2,1.2-3.8,3-5Z"/>
  <path class="st133" d="M1602.5,747.5c-.9,4.4-2.9,8.1-6,11,1.3-4.2,3.3-7.9,6-11Z"/>
  <path class="st188" d="M2220.5,735.5c2.3,9.1,3.9,18.4,5,28,.6,10,.9,20,1,30h-1c-.1-15.3-1.4-30.3-4-45,0-4.4-.3-8.7-1-13Z"/>
  <path class="st36" d="M1763.5,757.5c-.2,2.5-1.2,4.5-3,6,.2-2.5,1.2-4.5,3-6Z"/>
  <path class="st89" d="M2221.5,748.5c2.6,14.7,3.9,29.7,4,45v12c-1.2-18.9-2.6-37.9-4-57Z"/>
  <path class="st107" d="M1760.5,763.5c-.2,2.5-1.2,4.5-3,6,.2-2.5,1.2-4.5,3-6Z"/>
  <path class="st117" d="M1587.5,775.5c-.5,2.3-1.5,4.3-3,6,0-2.6,1-4.6,3-6Z"/>
  <path class="st176" d="M1757.5,769.5c-2.6,7.4-5.9,14.4-10,21-.2-1.4,0-2.7.5-4,2.7-6.1,5.8-11.7,9.5-17Z"/>
  <path class="st47" d="M1580.5,788.5c-.2,2.5-1.2,4.5-3,6,.2-2.5,1.2-4.5,3-6Z"/>
  <path class="st48" d="M1746.5,791.5c-.8,4.5-2.8,8.2-6,11,.9-4.4,2.9-8,6-11Z"/>
  <path class="st136" d="M2225.5,793.5h1c.4,22.2-.2,44.2-2,66,.2-12,.5-24,1-36v-30Z"/>
  <path class="st1" d="M2032.5,783.5c2.6,19.7,2.6,39.3,0,59,1.3-19.7,1.3-39.3,0-59Z"/>
  <path class="st140" d="M1740.5,802.5c-3.1,8.2-6.8,16.2-11,24-.5.8-1.1,1.1-2,1,4-8.6,8.3-17,13-25Z"/>
  <path class="st56" d="M1570.5,808.5c-.2,2.5-1.2,4.5-3,6,.2-2.5,1.2-4.5,3-6Z"/>
  <path class="st165" d="M779.5,812.5c-1.1,1.1-2.4,1.9-4,2.5-3.3.5-6.7.7-10,.5,4.4-1.5,9.1-2.5,14-3Z"/>
  <path class="st131" d="M706.5,817.5v1c-48.2-.3-96.2,0-144,1-.5,0-.9-.4-1-1,48.3-1,96.7-1.3,145-1Z"/>
  <path class="st125" d="M761.5,816.5c-2.5.8-5.1,1.3-8,1.5-15.7.5-31.3.7-47,.5v-1c18.3.2,36.7,0,55-1Z"/>
  <path class="st65" d="M167.5,819.5h-33c-.2,1.3,0,2.3,1,3,.7,2,1.3,4,2,6-1.9.2-3.4-.5-4.5-2-.8-2.6-.6-5.1.5-7.5,11.5-.8,22.8-.7,34,.5Z"/>
  <path class="st15" d="M364.5,821.5c111.4,193.2,222.1,386.8,332,581-69.7.7-139.3,1.3-209,2-6.3.3-12.4,0-18.5-1-26.9-46.9-54.1-93.6-81.5-140-2.2-5-4.8-9.7-8-14-80.4-140.5-161.1-280.8-242-421-.7-2-1.3-4-2-6,11.1-1.3,22.6-2,34.5-2,64.8.9,129.7,1.2,194.5,1Z"/>
  <path class="st0" d="M167.5,819.5c65.8,0,131.5.8,197,2-64.8.2-129.7,0-194.5-1-11.9,0-23.4.7-34.5,2-.9-.7-1.2-1.7-1-3h33Z"/>
  <path class="st88" d="M1567.5,814.5c-1.5,5.2-3.9,9.8-7,14,1.5-5.2,3.9-9.8,7-14Z"/>
  <path class="st29" d="M1225.5,827.5c1.2,1.7,1.9,3.7,2,6-1.6-1.6-2.2-3.6-2-6Z"/>
  <path class="st111" d="M1727.5,827.5c-.2,2.5-1.2,4.5-3,6,.2-2.5,1.2-4.5,3-6Z"/>
  <path class="st25" d="M1724.5,833.5c-.7,4.4-2.7,8.1-6,11,1.6-3.9,3.6-7.6,6-11Z"/>
  <path class="st128" d="M2225.5,823.5c-.5,12-.8,24-1,36v2h-1c-1.6-12.9-1-25.6,2-38Z"/>
  <path class="st30" d="M1228.5,836.5c1.4,2,2.1,4.3,2,7-1.7-1.9-2.3-4.3-2-7Z"/>
  <path class="st143" d="M1554.5,839.5c-.2,2.5-1.2,4.5-3,6,.2-2.5,1.2-4.5,3-6Z"/>
  <path class="st58" d="M1717.5,848.5c-1.3,3-2.6,6-4,9-.5.8-1.1,1.1-2,1,1-4.1,3-7.4,6-10Z"/>
  <path class="st155" d="M1711.5,859.5c-1.5,3.9-3.2,7.7-5,11.5-.3,1-1,1.5-2,1.5,1.2-5.1,3.5-9.5,7-13Z"/>
  <path class="st147" d="M1544.5,860.5c0,2.1-1.1,3.5-3,4,0-2.1,1.1-3.5,3-4Z"/>
  <path class="st160" d="M1238.5,863.5c1.6,1.6,2.2,3.6,2,6-1.6-1.6-2.2-3.6-2-6Z"/>
  <path class="st115" d="M1541.5,864.5c-.2,2.5-1.2,4.5-3,6,.2-2.5,1.2-4.5,3-6Z"/>
  <path class="st121" d="M2032.5,845.5c.5,9.6-.5,19-3,28,1-9.5,2-18.8,3-28Z"/>
  <path class="st109" d="M2225.5,763.5c1.6,5.7,2.5,11.7,2.5,18,1.6,37.1.2,74.1-4,111-3.3,13.5-5.6,27.2-7,41-1.9,5.9-3.3,11.9-4,18-.7.9-1.5,1.5-2.5,2v-4c4.4-18.4,7.7-37,10-56v-1c.8-.8,1.3-1.8,1.5-3,1.1-9.3,1.9-18.6,2.5-28v-2c1.8-21.8,2.4-43.8,2-66-.1-10-.4-20-1-30Z"/>
  <path class="st6" d="M1537.5,872.5c-1.5,4.3-3.5,8.3-6,12,1-4.6,3-8.6,6-12Z"/>
  <path class="st55" d="M1704.5,872.5c-.2,3-1.6,5.4-4,7,1-2.6,2.3-4.9,4-7Z"/>
  <path class="st163" d="M2223.5,861.5h1c-.6,9.4-1.4,18.7-2.5,28-.2,1.2-.7,2.2-1.5,3,.6-10.5,1.6-20.8,3-31Z"/>
  <path class="st2" d="M2029.5,873.5c.3,5.7-.7,11-3,16,.5-5.6,1.5-10.9,3-16Z"/>
  <path class="st168" d="M1698.5,884.5c-2.5,6.1-5.1,12.1-8,18-.5.8-1.1,1.1-2,1,2.6-6.8,5.9-13.1,10-19Z"/>
  <path class="st52" d="M1249.5,891.5c1.8,2.3,2.8,5,3,8-1.9-2.2-2.9-4.9-3-8Z"/>
  <path class="st52" d="M1524.5,897.5c-.4,3.2-1.7,5.9-4,8,.8-3,2.1-5.7,4-8Z"/>
  <path class="st67" d="M2220.5,893.5c-2.3,19-5.6,37.6-10,56,2.5-18.9,5.8-37.6,10-56Z"/>
  <path class="st12" d="M1254.5,903.5c1.2,1.7,1.9,3.7,2,6-1.8-1.5-2.4-3.5-2-6Z"/>
  <path class="st155" d="M1688.5,903.5c-3.1,9.1-7.4,17.4-13,25,3.9-8.6,8.3-16.9,13-25Z"/>
  <path class="st3" d="M2024.5,901.5c-.5,4.4-1.2,8.7-2,13-.2,1.2-.9,1.9-2,2,.6-5.3,1.9-10.3,4-15Z"/>
  <path class="st58" d="M1515.5,915.5c-.6,2.2-1.6,4.2-3,6,0-2.7.9-4.7,3-6Z"/>
  <path class="st36" d="M2016.5,930.5c-.8,6.2-2.8,11.9-6,17,1.6-5.9,3.6-11.6,6-17Z"/>
  <path class="st159" d="M1674.5,930.5c0,4.3-1.8,7.6-5,10,1.7-3.4,3.3-6.7,5-10Z"/>
  <path class="st30" d="M1507.5,931.5c-1.4,4.3-3.4,8.3-6,12,1-4.6,3-8.6,6-12Z"/>
  <path class="st6" d="M1669.5,940.5c-.2,2.5-1.2,4.5-3,6,.2-2.5,1.2-4.5,3-6Z"/>
  <path class="st104" d="M1665.5,948.5c-.2,2.5-1.2,4.5-3,6,.2-2.5,1.2-4.5,3-6Z"/>
  <path class="st10" d="M1495.5,954.5c-.2,2.5-1.2,4.5-3,6,.2-2.5,1.2-4.5,3-6Z"/>
  <path class="st141" d="M1662.5,954.5c-1.2,5.1-3.5,9.5-7,13,2-4.6,4.3-8.9,7-13Z"/>
  <path class="st121" d="M2210.5,949.5v4c.1,1.8-.2,3.5-1,5-2.1,5.5-3.8,11.1-5,17-.8,1.8-1.8,3.4-3,5,2.4-10.6,5.4-21,9-31Z"/>
  <path class="st25" d="M1491.5,962.5c-1.2,4.2-3.2,7.8-6,11,1.2-4.2,3.2-7.8,6-11Z"/>
  <path class="st48" d="M1655.5,967.5c.5,2.9-.5,4.9-3,6,.5-2.3,1.5-4.3,3-6Z"/>
  <path class="st122" d="M1280.5,975.5c1.4.5,2.1,1.5,2,3-1.4-.5-2.1-1.5-2-3Z"/>
  <path class="st174" d="M1485.5,973.5c-.4,3.3-1.7,6-4,8,.8-3,2.1-5.7,4-8Z"/>
  <path class="st131" d="M1652.5,973.5c-.2,2.5-1.2,4.5-3,6,.2-2.5,1.2-4.5,3-6Z"/>
  <path class="st8" d="M2204.5,975.5c-.8,4.9-2.1,9.6-4,14v-4c-.1-1.8.2-3.5,1-5,1.2-1.6,2.2-3.2,3-5Z"/>
  <path class="st154" d="M2209.5,958.5c.7,5.8-.4,11.1-3.5,16-.8,5-1.8,10-3,15-.5,2-1.7,3.4-3.5,4v-2c-.2-1,.2-1.7,1-2,1.9-4.4,3.2-9.1,4-14,1.2-5.9,2.9-11.5,5-17Z"/>
  <path class="st37" d="M1649.5,979.5c-2.8,7-6.1,13.7-10,20,2.4-7.2,5.7-13.9,10-20Z"/>
  <path class="st132" d="M2200.5,985.5v4c-.8.3-1.2,1-1,2-1.7,4-3.3,8-5,12,1-6.4,3-12.4,6-18Z"/>
  <path class="st5" d="M2199.5,991.5v2c-1.3,4.9-3,9.6-5,14v-4c1.7-4,3.3-8,5-12Z"/>
  <path class="st29" d="M1479.5,985.5c-4.2,9.7-8.8,19-14,28,3.7-10,8.4-19.4,14-28Z"/>
  <path class="st40" d="M1993.5,988.5c.2,1.4,0,2.7-.5,4-2.1,5.3-5,10-8.5,14,2.5-6.3,5.5-12.3,9-18Z"/>
  <path class="st148" d="M1639.5,999.5c0,2.3-1.1,4-3,5,.2-2.2,1.2-3.8,3-5Z"/>
  <path class="st110" d="M1636.5,1004.5c0,.6-.4,1.1-1,1.5-2,.5-4,.7-6,.5,2.1-1.1,4.4-1.8,7-2Z"/>
  <path class="st70" d="M1627.5,1007.5c-3,1.8-6.3,2.8-10,3,3-1.8,6.3-2.8,10-3Z"/>
  <path class="st140" d="M1617.5,1010.5c-3.4,1.6-7,2.6-11,3,.7-1.2,1.8-1.9,3.5-2,2.5-.4,5-.8,7.5-1Z"/>
  <path class="st34" d="M1465.5,1013.5c0,2.3-1.1,4-3,5,.2-2.2,1.2-3.8,3-5Z"/>
  <path class="st79" d="M1589.5,1017.5c-1,.7-2,1.3-3,2-2.7,0-5.4.4-8,1,.7-1.2,1.8-1.9,3.5-2,2.5-.4,5-.8,7.5-1Z"/>
  <path class="st92" d="M1605.5,1013.5c-1.5,1.8-3.5,2.9-6,3.5-4.4.7-8.7,1.6-13,2.5,1-.7,2-1.3,3-2,5.2-2,10.5-3.3,16-4Z"/>
  <path class="st124" d="M1578.5,1020.5c-3.4,1.6-7.1,2.6-11,3,3.3-1.9,7-2.9,11-3Z"/>
  <path class="st173" d="M1081.5,981.5c7.8,17,15.2,34.4,22,52-.6,0-1.1.4-1.5,1-2.8-4-5-8.3-6.5-13,1-3.2,0-5.5-3.5-7-3.8-9.5-7.7-19-11.5-28.5.7-1.4,1-2.9,1-4.5Z"/>
  <path class="st25" d="M1567.5,1023.5c0,.6-.4,1.1-1,1.5-3,.4-6,.9-9,1.5,0-.6.4-1.1,1-1.5,3-.4,6-.9,9-1.5Z"/>
  <path class="st62" d="M1557.5,1026.5c-2.5,1.8-5.5,2.8-9,3,2.5-2.1,5.5-3.1,9-3Z"/>
  <path class="st50" d="M2194.5,1003.5v4c-2.5,6.9-4.9,13.9-7,21-1.9,5.4-4.6,10.4-8,15,5.6-13.1,10.6-26.5,15-40Z"/>
  <path class="st10" d="M1459.5,1024.5c-.2,2.5-1.2,4.5-3,6,.2-2.5,1.2-4.5,3-6Z"/>
  <path class="st10" d="M1542.5,1030.5c-2.3,1.5-5,2.2-8,2,2.4-1.3,5.1-1.9,8-2Z"/>
  <path class="st155" d="M1531.5,1033.5c-7.8,3.7-16.1,6-25,7,1.5-.9,3.2-1.7,5-2.5,6.8-1.3,13.4-2.8,20-4.5Z"/>
  <path class="st187" d="M2187.5,1028.5c-.5,6.1-2.7,11.4-6.5,16-.4,4.2-1.9,7.8-4.5,11v-4c1.5-1.7,2.5-3.7,3-6v-2c3.4-4.6,6.1-9.6,8-15Z"/>
  <path class="st10" d="M1506.5,1040.5c-3.3,1.8-7,2.8-11,3,3.3-1.9,7-2.9,11-3Z"/>
  <path class="st20" d="M1455.5,1031.5c-.2,2.1-.7,4.1-1.5,6-1.1,2.7-2.6,5-4.5,7,1.2-4.8,3.2-9.1,6-13Z"/>
  <path class="st121" d="M1494.5,1043.5c-2.8,1.4-5.8,2.4-9,3,2.5-2.1,5.5-3.1,9-3Z"/>
  <path class="st62" d="M1483.5,1046.5c-.7,1.7-2,2.3-4,2,.7-1.7,2-2.3,4-2Z"/>
  <path class="st135" d="M2179.5,1045.5c-.5,2.3-1.5,4.3-3,6-.5-2.9.5-4.9,3-6Z"/>
  <path class="st28" d="M1479.5,1048.5c-.5,1.2-1.5,1.9-3,2-5.7.7-11.4,1.7-17,3,6.3-2.5,13-4.2,20-5Z"/>
  <path class="st163" d="M1459.5,1053.5c-3.7,1.8-7.7,2.8-12,3,3.7-1.8,7.7-2.8,12-3Z"/>
  <path class="st104" d="M1444.5,1053.5v3h3c-1.3,1.4-2.9,2.1-5,2,0-2.1.6-3.7,2-5Z"/>
  <path class="st147" d="M1949.5,1059.5c-.9,2.6-2.6,4.6-5,6,.9-2.6,2.6-4.6,5-6Z"/>
  <path class="st6" d="M2176.5,1051.5v4c-2.4,1.6-3.6,3.9-3.5,7-1,2.7-2.5,5.1-4.5,7-.2-1.4,0-2.7.5-4,2.2-4.9,4.7-9.6,7.5-14Z"/>
  <path class="st125" d="M1944.5,1065.5c-.6,2.2-1.9,3.9-4,5,.6-2.2,1.9-3.9,4-5Z"/>
  <path class="st113" d="M2168.5,1069.5c-1.2,5.2-3.1,10.2-5.5,15-.9,1.6-2.1,2.9-3.5,4v-2c2.5-5.8,5.5-11.5,9-17Z"/>
  <path class="st44" d="M1940.5,1070.5c-1.9,3.6-4.6,6.6-8,9,1.9-3.6,4.6-6.6,8-9Z"/>
  <path class="st34" d="M1932.5,1079.5c-3.3,4.9-7.3,9.3-12,13,3.3-4.9,7.3-9.3,12-13Z"/>
  <path class="st83" d="M2159.5,1086.5v2c-1.4,1.1-2.4,2.4-3,4-.5-2.8.5-4.8,3-6Z"/>
  <path class="st3" d="M1916.5,1096.5c-4.4,5.4-9.4,10.1-15,14,4.4-5.4,9.4-10.1,15-14Z"/>
  <path class="st178" d="M2159.5,1088.5c-1.4,6.6-4.4,12.3-9,17,.5-1.6.9-3.3,1-5,1.9-2.5,3.6-5.2,5-8,.6-1.6,1.6-2.9,3-4Z"/>
  <path class="st94" d="M2151.5,1100.5c-.1,1.7-.5,3.4-1,5-1.4,1.4-2.4,3.1-3,5-1,.7-2,1.3-3,2,2.3-4.1,4.7-8.1,7-12Z"/>
  <path class="st150" d="M2147.5,1110.5c0,2.4-.5,4.8-1.5,7-3.5,3-6.4,6.3-8.5,10,.7-2,1.3-4,2-6,3.3-2,5-5,5-9,1-.7,2-1.3,3-2Z"/>
  <path class="st180" d="M2144.5,1112.5c0,4-1.7,7-5,9,1.1-3.4,2.8-6.4,5-9Z"/>
  <path class="st174" d="M2139.5,1121.5c-.7,2-1.3,4-2,6-4.3,6.7-8.7,13.4-13,20-1.9,1.5-3.6,3.1-5,5,6.3-10.6,13-20.9,20-31Z"/>
  <path class="st18" d="M2124.5,1147.5c-.4,1.7-.9,3.3-1.5,5-2.3,1.3-4.1,2.9-5.5,5,.4-1.8,1.1-3.4,2-5,1.4-1.9,3.1-3.5,5-5Z"/>
  <path class="st101" d="M2119.5,1152.5c-.9,1.6-1.6,3.2-2,5-3.7,3.7-7,7.7-10,12,.5-2.1,1.4-4.1,2.5-6,2.7-4.2,5.9-7.8,9.5-11Z"/>
  <path class="st126" d="M2117.5,1157.5c-.2,1.4-.7,2.8-1.5,4-3.2,3.7-6.4,7.4-9.5,11,0-1.1.4-2.1,1-3,3-4.3,6.3-8.3,10-12Z"/>
  <path class="st94" d="M1820.5,1165.5c-1,1.9-2.7,2.9-5,3,1.2-1.8,2.8-2.8,5-3Z"/>
  <path class="st40" d="M1815.5,1168.5c-3.7,3.3-8,5.3-13,6,3.9-2.8,8.2-4.8,13-6Z"/>
  <path class="st86" d="M1476.5,1173.5c1.7.2,3,.8,4,2-1.9.3-3.2-.4-4-2Z"/>
  <path class="st178" d="M1494.5,1181.5c4.1.8,8.1,2,12,3.5.6.4.9.9,1,1.5-4.7-.9-9.1-2.5-13-5Z"/>
  <path class="st124" d="M1790.5,1179.5c-1.7,2.3-4,3.3-7,3,2-1.6,4.3-2.6,7-3Z"/>
  <path class="st1" d="M1764.5,1189.5c-3,1.8-6.3,2.8-10,3,3-1.8,6.3-2.8,10-3Z"/>
  <path class="st18" d="M2096.5,1185.5c-3.6,5.6-8,10.6-13,15,3.6-5.6,8-10.6,13-15Z"/>
  <path class="st119" d="M1548.5,1198.5c4.3,0,8.3,1.1,12,3-4.3-.4-8.3-1.4-12-3Z"/>
  <path class="st84" d="M1568.5,1202.5c3.2.2,6.2.8,9,2-3.3.3-6.3-.4-9-2Z"/>
  <path class="st152" d="M1724.5,1200.5c-8.6,3.1-17.6,4.7-27,5,8.8-2.3,17.8-4,27-5Z"/>
  <path class="st30" d="M1695.5,1205.5c-4.4,1.5-9.1,2.1-14,2,4.4-1.5,9.1-2.1,14-2Z"/>
  <path class="st157" d="M2083.5,1200.5c-4.9,7.6-10.9,14.2-18,20,.2-1.6.9-2.9,2-4l16-16Z"/>
  <path class="st177" d="M1609.5,1208.5h58c-19.3,2.4-38.7,2.4-58,0Z"/>
  <path class="st137" d="M2107.5,1169.5c-.6.9-.9,1.9-1,3-2.8,2.9-5.6,5.9-8.5,9-.8,1.2-1.3,2.6-1.5,4-5,4.4-9.4,9.4-13,15l-16,16c8.9-10.8,18.1-21.4,27.5-32,2.3-3.8,4.8-7.5,7.5-11,1.7-1.4,3.4-2.8,5-4Z"/>
  <path class="st85" d="M2067.5,1216.5c-1.1,1.1-1.8,2.4-2,4-3.7,5-8,9.3-13,13,.9-2.2,2.2-4.2,4-6,2.3-1.8,4.4-3.8,6.5-6,.6-2.6,2.1-4.3,4.5-5Z"/>
  <path class="st49" d="M2056.5,1227.5c-1.8,1.8-3.1,3.8-4,6-1,.3-1.7,1-2,2-3.3,1.9-6.3,4.3-9,7,3.8-5.3,8.2-10.1,13-14.5.6-.5,1.3-.6,2-.5Z"/>
  <path class="st44" d="M1239.5,1246.5c3.3,1.6,5.9,3.9,8,7-3.3-1.6-5.9-3.9-8-7Z"/>
  <path class="st99" d="M2050.5,1235.5c-9.2,10.8-19.5,20.2-31,28,7-6.6,14-13.3,21-20,0-.7.3-1,1-1,2.7-2.7,5.7-5.1,9-7Z"/>
  <path class="st78" d="M1247.5,1253.5c3.3,1.6,5.9,3.9,8,7-3.3-1.6-5.9-3.9-8-7Z"/>
  <path class="st42" d="M379.5,1249.5c3.2,4.3,5.8,9,8,14-5.4-2.8-8.1-7.5-8-14Z"/>
  <path class="st39" d="M1255.5,1260.5c4.6,2.9,8.6,6.6,12,11-4.6-2.9-8.6-6.6-12-11Z"/>
  <path class="st12" d="M1267.5,1271.5c4.8,1.5,8.8,4.1,12,8h-2c-4-1.8-7.3-4.5-10-8Z"/>
  <path class="st63" d="M1998.5,1280.5c-2.5,3.8-5.8,6.5-10,8,3-3,6.4-5.7,10-8Z"/>
  <path class="st114" d="M1277.5,1279.5h2c3.4,3.8,7.4,6.8,12,9,1.3,2.3,3,4.3,5,6-7.8-3.2-14.2-8.2-19-15Z"/>
  <path class="st34" d="M1291.5,1288.5c5,3.2,9.7,6.8,14,11-3.3-1.2-6.3-2.9-9-5-2-1.7-3.7-3.7-5-6Z"/>
  <path class="st20" d="M2040.5,1243.5c-7,6.7-14,13.4-21,20-6.7,5.9-13.7,11.6-21,17-3.6,2.3-7,5-10,8-1.4.2-2.8.7-4,1.5-3.1,2.5-6.1,5-9,7.5-6.7,3-12.7,7-18,12-2.8,1.6-5.8,2.9-9,4,14.2-9.8,28.6-19.6,43-29.5,16.7-13.2,33-26.7,49-40.5Z"/>
  <path class="st43" d="M1305.5,1299.5c4.1,1.9,8.1,4.1,12,6.5,2.5,1.3,4.5,3.2,6,5.5-4.5-1.5-8.5-3.8-12-7-2.9-.8-4.9-2.4-6-5Z"/>
  <path class="st123" d="M1975.5,1297.5c-1.8,3.6-4.8,5.8-9,6.5-2.2,3.4-5.2,5.2-9,5.5,5.3-5,11.3-9,18-12Z"/>
  <path class="st64" d="M1323.5,1311.5c2.8.9,5.4,2.1,8,3.5,1.6.8,2.6,1.9,3,3.5-3.3-1.4-6.7-2.9-10-4.5-.8-.7-1.1-1.5-1-2.5Z"/>
  <path class="st91" d="M1311.5,1304.5c3.5,3.2,7.5,5.5,12,7,0,1,.2,1.8,1,2.5,3.3,1.6,6.7,3.1,10,4.5,1,1.9,2.7,2.9,5,3,2.8.6,5.2,1.9,7,4-4.7-1.2-9.4-2.7-14-4.5-5.8-4.1-11.8-7.9-18-11.5-1.4-1.4-2.4-3.1-3-5Z"/>
  <path class="st164" d="M1334.5,1318.5c2.2.2,3.8,1.2,5,3-2.3,0-4-1.1-5-3Z"/>
  <path class="st1" d="M1948.5,1313.5c-4.1,4.6-9.1,7.7-15,9.5-2,2.9-4.7,4.7-8,5.5-1.3.3-2.7.7-4,1,.4-1,1.1-1.8,2-2.5,8.4-4.5,16.7-9,25-13.5Z"/>
  <path class="st166" d="M1346.5,1325.5c2.2.2,3.8,1.2,5,3-2.3,0-4-1.1-5-3Z"/>
  <path class="st183" d="M1358.5,1332.5c3.3,0,6,1.4,8,4-3.5.2-6.2-1.1-8-4Z"/>
  <path class="st95" d="M1351.5,1328.5c2.6,1,4.9,2.3,7,4,1.8,2.9,4.5,4.2,8,4l2,2c-4.1-.7-8.1-1.7-12-3-1.3-2.5-3-4.8-5-7Z"/>
  <path class="st24" d="M1366.5,1336.5c3.3,0,6.3,1.1,9,3,2,2.2,4.3,3.9,7,5-1.8,0-3.5-.2-5-1-2.5-2.4-5.5-4.1-9-5l-2-2Z"/>
  <path class="st68" d="M1925.5,1328.5c-5.7,4.7-12,8-19,10,1.7-1.3,3.3-2.7,5-4,3.3-1.7,6.6-3.3,10-5,1.3-.3,2.7-.7,4-1Z"/>
  <path class="st125" d="M1911.5,1334.5c-1.7,1.3-3.3,2.7-5,4-1.6.2-2.9.9-4,2-3.4.6-6.4,1.9-9,4,.8-1.3,1.8-2.5,3-3.5,5-2.2,10-4.3,15-6.5Z"/>
  <path class="st88" d="M1891.5,1344.5c-1.2,1.8-2.8,2.8-5,3,1-1.9,2.7-2.9,5-3Z"/>
  <path class="st116" d="M1382.5,1344.5c5.3.8,10,2.8,14,6-3.8-.6-7.5-1.7-11-3.5-1.4-.4-2.4-1.2-3-2.5Z"/>
  <path class="st31" d="M1886.5,1347.5l-2,2c-2.3.7-4.7,1.3-7,2,2.3-2.7,5.3-4,9-4Z"/>
  <path class="st108" d="M1902.5,1340.5c-4.4,5.9-10.4,8.9-18,9l2-2c2.2-.2,3.8-1.2,5-3h2c2.6-2.1,5.6-3.4,9-4Z"/>
  <path class="st103" d="M1377.5,1343.5c1.5.8,3.2,1.1,5,1,.6,1.3,1.6,2.1,3,2.5,3.5,1.8,7.2,2.9,11,3.5,1.7,1.8,3.7,3.2,6,4-2.4.2-4.7,0-7-.5-5.2-2.7-10.5-5-16-7-1.3-.8-2-2-2-3.5Z"/>
  <path class="st72" d="M1396.5,1350.5c3.2.4,5.9,1.7,8,4h-2c-2.3-.8-4.3-2.2-6-4Z"/>
  <path class="st177" d="M1404.5,1354.5c4.7,0,8.7,1.8,12,5-4.3-1.2-8.3-2.8-12-5Z"/>
  <path class="st37" d="M1877.5,1351.5c-4.2,3.4-8.8,5.8-14,7-1.3.3-2.7.7-4,1,0-1,.5-1.7,1.5-2,5.6-1.9,11.1-3.9,16.5-6Z"/>
  <path class="st97" d="M1402.5,1354.5h2c3.7,2.2,7.7,3.8,12,5h1c1.7,2.3,4,3.3,7,3,.3.7.7,1.3,1,2-6.3-1-12.3-2.8-18-5.5-2.5-.7-4.2-2.2-5-4.5Z"/>
  <path class="st10" d="M1417.5,1359.5c2.7.4,5,1.4,7,3-3,.3-5.3-.7-7-3Z"/>
  <path class="st23" d="M1858.5,1359.5c-3.7,2.2-7.7,3.8-12,5,3.3-3.2,7.3-4.9,12-5Z"/>
  <path class="st14" d="M1424.5,1362.5c1.4-.2,2.7,0,4,.5,5.2,2.8,10.6,5.3,16,7.5-6.5-1.6-12.8-3.6-19-6-.3-.7-.7-1.3-1-2Z"/>
  <path class="st144" d="M1863.5,1358.5c-2.4,1.8-5.1,3.3-8,4.5-7.4,2.4-14.7,4.9-22,7.5,2.7-2.2,5.7-3.9,9-5,1.2-.7,2.5-1.1,4-1,4.3-1.2,8.3-2.8,12-5h1c1.3-.3,2.7-.7,4-1Z"/>
  <path class="st83" d="M1447.5,1370.5c4.7.8,9.4,2,14,3.5,2.4.7,4.4,1.9,6,3.5-6.8-1.9-13.5-4.3-20-7Z"/>
  <path class="st10" d="M1842.5,1365.5c-3.3,1.1-6.3,2.8-9,5-4.2,1-8.2,2.3-12,4-5.4.6-10.8,1.6-16,3,12.3-3.8,24.7-7.8,37-12Z"/>
  <path class="st181" d="M1445.5,1370.5h2c6.5,2.7,13.2,5.1,20,7,8.3,1.1,16.3,3.4,24,7-16.3-2.1-31.6-6.8-46-14Z"/>
  <path class="st185" d="M1821.5,1374.5c-2.7,1.9-5.7,3.4-9,4.5-6.8,2.3-13.8,3.8-21,4.5,4.6-2.2,9.3-4.2,14-6,5.2-1.4,10.6-2.4,16-3Z"/>
  <path class="st158" d="M1805.5,1377.5c-4.7,1.8-9.4,3.8-14,6-2.7,0-5,.6-7,2h-8c9.5-2.9,19.2-5.6,29-8Z"/>
  <path class="st127" d="M1776.5,1385.5c-2.9,1.9-6.3,2.9-10,3,.5-1.2,1.5-1.9,3-2,2.3-.5,4.7-.8,7-1Z"/>
  <path class="st187" d="M1776.5,1385.5h8c-1.3,1.3-3,2.1-5,2.5-5.7.6-11.4,1.5-17,2.5,1-.7,2-1.3,3-2h1c3.7,0,7.1-1.1,10-3Z"/>
  <path class="st133" d="M1504.5,1386.5c2.7-.3,5.1.3,7,2-2.7,0-5-.6-7-2Z"/>
  <path class="st75" d="M1491.5,1384.5c4.3.8,8.6,1.5,13,2,2,1.4,4.3,2.1,7,2h1l2,2c-8.6.8-16.3-1.2-23-6Z"/>
  <path class="st4" d="M1765.5,1388.5c-1,.7-2,1.3-3,2h-4c-4.3.7-8.7,1.3-13,2,6.3-2.6,13-3.9,20-4Z"/>
  <path class="st120" d="M1512.5,1388.5c4.4,0,8.4,1,12,3-3.3-.6-6.6-.9-10-1l-2-2Z"/>
  <path class="st19" d="M1745.5,1392.5c-2.8,1.2-5.8,1.8-9,2,2.5-1.9,5.5-2.6,9-2Z"/>
  <path class="st73" d="M1524.5,1391.5h4c3.2.9,6.2,2.3,9,4-3.3-.4-6.7-.9-10-1.5-1.6-.2-2.6-1.1-3-2.5Z"/>
  <path class="st38" d="M1528.5,1391.5c5.8.6,11.5,1.6,17,3,2,.7,4,1.3,6,2-4.7-.2-9.3-.5-14-1-2.8-1.7-5.8-3.1-9-4Z"/>
  <path class="st9" d="M1735.5,1394.5c-4.1,1.6-8.4,2.2-13,2,.8-.8,1.8-1.3,3-1.5,3.3-.5,6.7-.7,10-.5Z"/>
  <path class="st153" d="M1758.5,1390.5c0,.6-.4,1.1-1,1.5-16.7,4.4-33.7,6.9-51,7.5,4.9-1.3,9.9-2.3,15-3h1c4.6.2,8.9-.4,13-2h1c3.2-.2,6.2-.8,9-2,4.3-.7,8.7-1.3,13-2Z"/>
  <path class="st146" d="M1545.5,1394.5c8.3.5,16.3,1.8,24,4h-4c-4.7-.7-9.3-1.3-14-2-2-.7-4-1.3-6-2Z"/>
  <path class="st186" d="M1721.5,1396.5c-5.1.7-10.1,1.7-15,3h-5c-9.7.7-19.3,1.4-29,2,16.2-2.2,32.5-3.8,49-5Z"/>
  <path class="st102" d="M1565.5,1398.5h8c2.7.7,5.3,1.3,8,2-5.6,0-10.9-.5-16-2Z"/>
  <path class="st149" d="M1583.5,1400.5c6.3-.4,12.3.3,18,2-6.2.3-12.2-.3-18-2Z"/>
  <path class="st129" d="M1573.5,1398.5c32.6,2.5,65.3,3.5,98,3-22.2,1-44.5,1.3-67,1h-3c-5.7-1.7-11.7-2.4-18-2h-2c-2.7-.7-5.3-1.3-8-2Z"/>
  <path class="st171" d="M696.5,1402.5c.5,0,.9.4,1,1-70,1-140,1.3-210,1,69.7-.7,139.3-1.3,209-2Z"/>
  <path class="st51" d="M1121.5,1402.5c.5,0,.9.4,1,1-75.2,1.3-150.2,1.3-225,0,74.8.3,149.5,0,224-1Z"/>
  <path class="st41" d="M1701.5,1399.5c-3.7,1.5-7.7,2.3-12,2.5-28.5,2.9-56.8,3.1-85,.5,22.5.3,44.8,0,67-1h1c9.7-.6,19.3-1.3,29-2Z"/>
</svg>