<?xml version="1.0" standalone="no"?>
<!DOCTYPE svg PUBLIC "-//W3C//DTD SVG 20010904//EN"
 "http://www.w3.org/TR/2001/REC-SVG-20010904/DTD/svg10.dtd">
<svg version="1.0" xmlns="http://www.w3.org/2000/svg"
 width="1600.000000pt" height="550.000000pt" viewBox="0 0 1600.000000 550.000000"
 preserveAspectRatio="xMidYMid meet">

<g transform="translate(0.000000,550.000000) scale(0.100000,-0.100000)"
fill="#ffffff" stroke="none">
<path d="M1419 4025 c-178 -36 -355 -150 -468 -304 -65 -88 -108 -176 -131
-269 -19 -72 -20 -118 -20 -754 l0 -678 210 0 210 0 0 653 0 652 24 57 c29 71
75 129 132 169 89 61 100 63 442 67 l312 4 0 209 0 209 -322 -1 c-224 -1 -343
-5 -389 -14z"/>
<path d="M14286 3714 c-207 -46 -363 -164 -445 -338 -74 -154 -76 -171 -76
-621 0 -352 2 -410 18 -480 58 -252 221 -419 472 -487 114 -30 346 -30 456 0
253 68 407 225 472 479 21 84 22 107 22 478 0 371 -1 394 -22 478 -64 248
-205 399 -448 477 -93 30 -343 38 -449 14z m300 -245 c164 -30 282 -147 320
-315 13 -60 15 -130 12 -440 -4 -352 -5 -372 -26 -429 -68 -184 -193 -265
-407 -265 -50 0 -118 7 -150 15 -75 19 -159 76 -203 137 -79 111 -96 238 -89
653 5 317 10 346 67 454 84 157 264 229 476 190z"/>
<path d="M6920 2750 l0 -950 140 0 140 0 -2 948 -3 947 -137 3 -138 3 0 -951z"/>
<path d="M2388 2848 l-3 -683 -33 -67 c-40 -83 -120 -158 -197 -187 -52 -20
-77 -21 -365 -21 l-310 0 0 -221 0 -221 353 4 c336 4 355 5 417 27 280 99 472
310 545 597 13 53 15 164 15 758 l0 696 -210 0 -209 0 -3 -682z"/>
<path d="M4557 3186 c-113 -47 -199 -121 -276 -238 -81 -124 -81 -122 -81
-704 l0 -514 145 0 144 0 3 493 c3 488 3 492 25 534 13 23 39 58 60 78 57 55
106 65 330 65 l193 0 0 155 0 155 -242 0 c-233 0 -245 -1 -301 -24z"/>
<path d="M5775 3160 c-322 -64 -515 -327 -514 -700 0 -169 37 -301 121 -426
123 -184 352 -287 606 -270 226 14 375 97 498 277 57 83 63 73 -86 149 l-96
48 -21 -37 c-39 -67 -110 -137 -165 -162 -46 -21 -68 -24 -173 -24 -109 0
-125 2 -177 27 -117 54 -203 171 -215 291 l-6 57 512 0 511 0 0 100 c0 214
-59 371 -189 501 -127 127 -264 180 -460 178 -58 -1 -124 -5 -146 -9z m224
-240 c150 -25 253 -122 280 -263 4 -25 6 -49 3 -52 -3 -3 -169 -5 -370 -5
l-364 0 7 38 c9 54 47 132 83 173 55 63 170 112 277 118 11 0 49 -4 84 -9z"/>
<path d="M8075 3160 c-322 -64 -515 -327 -514 -700 0 -169 37 -301 121 -426
123 -184 352 -287 606 -270 226 14 375 97 498 277 57 83 63 73 -86 149 l-96
48 -21 -37 c-39 -67 -110 -137 -165 -162 -46 -21 -68 -24 -173 -24 -109 0
-125 2 -177 27 -117 54 -203 171 -215 291 l-6 57 512 0 511 0 0 100 c0 214
-59 371 -189 501 -127 127 -264 180 -460 178 -58 -1 -124 -5 -146 -9z m224
-240 c150 -25 253 -122 280 -263 4 -25 6 -49 3 -52 -3 -3 -169 -5 -370 -5
l-364 0 7 38 c9 54 47 132 83 173 55 63 170 112 277 118 11 0 49 -4 84 -9z"/>
<path d="M9583 3155 c-158 -34 -295 -140 -365 -282 -24 -49 -38 -87 -32 -92
11 -9 245 -84 248 -79 2 2 14 28 28 58 34 76 78 123 140 151 44 19 70 23 153
24 92 0 105 -3 160 -30 47 -24 66 -41 90 -79 26 -43 30 -61 33 -137 l4 -87
-264 -5 c-202 -3 -277 -8 -323 -21 -143 -39 -235 -108 -287 -214 -31 -63 -33
-72 -33 -177 0 -100 3 -116 29 -172 66 -145 212 -232 416 -249 195 -16 354 50
437 182 35 56 65 57 74 4 7 -46 22 -73 59 -104 44 -37 90 -46 233 -46 l127 0
0 115 0 115 -69 0 c-53 0 -74 4 -94 20 l-25 20 -4 358 c-3 340 -5 360 -26 420
-13 35 -34 82 -48 104 -62 98 -180 176 -311 203 -84 18 -267 18 -350 0z m457
-828 c0 -174 -119 -302 -307 -329 -181 -26 -323 57 -323 190 0 86 43 142 132
173 45 16 87 18 276 19 l222 0 0 -53z"/>
<path d="M11082 3150 c-141 -37 -241 -112 -290 -218 -23 -49 -27 -70 -27 -152
0 -82 4 -103 27 -152 64 -138 192 -206 506 -268 178 -36 255 -67 290 -119 47
-72 13 -167 -78 -216 -48 -25 -68 -30 -152 -33 -129 -6 -219 20 -285 81 -47
43 -88 115 -99 175 -3 17 -11 32 -18 32 -6 -1 -63 -14 -126 -29 -133 -33 -133
-33 -100 -131 73 -217 263 -339 555 -356 237 -14 453 68 541 207 34 54 54 134
54 215 0 230 -140 338 -530 410 -170 31 -245 56 -282 96 -60 64 -41 168 41
216 43 25 53 27 166 27 115 0 122 -1 174 -30 57 -31 104 -91 116 -146 4 -16
12 -29 18 -29 7 0 65 14 130 32 88 25 117 37 117 49 0 39 -72 158 -128 211
-109 104 -238 148 -431 147 -81 0 -138 -6 -189 -19z"/>
<path d="M12675 3160 c-322 -64 -515 -327 -514 -700 0 -169 37 -301 121 -426
123 -184 352 -287 606 -270 226 14 375 97 498 277 57 83 63 73 -86 149 l-96
48 -21 -37 c-39 -67 -110 -137 -165 -162 -46 -21 -68 -24 -173 -24 -109 0
-125 2 -177 27 -117 54 -203 171 -215 291 l-6 57 512 0 511 0 0 100 c0 214
-59 371 -189 501 -127 127 -264 180 -460 178 -58 -1 -124 -5 -146 -9z m224
-240 c150 -25 253 -122 280 -263 4 -25 6 -49 3 -52 -3 -3 -169 -5 -370 -5
l-364 0 7 38 c9 54 47 132 83 173 55 63 170 112 277 118 11 0 49 -4 84 -9z"/>
<path d="M1745 2927 c-106 -60 -123 -191 -36 -278 85 -85 216 -68 276 36 53
89 18 201 -77 251 -41 21 -116 17 -163 -9z"/>
</g>
</svg>
