<svg xmlns="http://www.w3.org/2000/svg" width="5412" height="963"><g fill="#000" fill-rule="nonzero"><g transform="translate(4697 3.617)"><ellipse cx="356.972" cy="478.801" rx="64.199" ry="67.05"/><path d="M.062 578.576V369.283q0-181.33 90.031-275.31Q179.223.936 328.6.01l3.024-.01h135.86l-38.182 124.419h-97.678q-95.696 0-147.753 61.365l-1.263 1.507q-51.482 62.054-52.146 171.17l-.01 2.878v217.237h-.034v113.807H0V578.576zM714.423 377.807V587.1q0 181.33-90.032 275.31-89.13 93.038-238.506 93.963l-3.025.01H247l38.182-124.419h97.678q95.697 0 147.753-61.365l1.264-1.507q51.48-62.054 52.145-171.17l.01-2.878V377.807h.034V264h130.418v113.807z"/></g><path d="M870.514 962.574q84.588 0 138.878-27.767t87.746-68.754q33.458-40.986 51.132-78.013l-107.315-58.176q-20.202 44.958-57.444 79.336t-110.473 34.375q-78.276 0-130.671-50.903-52.395-50.91-54.92-136.85h478.5v-51.568q0-99.17-37.879-173.212-37.872-74.043-105.42-115.694Q955.102 273.7 865.464 273.7q-92.165 0-162.234 41.648-70.076 41.65-109.21 117.677-39.14 76.029-39.14 177.84v15.867q0 100.488 39.767 176.518 39.774 76.026 110.473 117.673 70.703 41.652 165.393 41.651m162.868-411.21H688.708q10.097-74.044 56.18-115.695 46.083-41.647 119.31-41.647 73.23 0 118.676 41.647 45.453 41.652 50.501 115.694M1452.527 963V0h-130.041v963zm478.49-.426q84.592 0 138.877-27.767 54.287-27.767 87.747-68.754 33.46-40.986 51.131-78.013l-107.311-58.176q-20.202 44.958-57.447 79.336-37.25 34.375-110.47 34.375-78.279 0-130.671-50.903-52.399-50.91-54.923-136.85h478.5v-51.568q0-99.17-37.876-173.212-37.875-74.043-105.42-115.694c-45.03-27.768-97.425-41.648-157.183-41.648q-92.165 0-162.234 41.648-70.07 41.65-109.21 117.677-39.14 76.026-39.14 177.84v15.867q.001 100.488 39.77 176.518 39.767 76.026 110.474 117.673 70.695 41.652 165.389 41.651m162.868-411.21h-344.674q10.101-74.044 56.183-115.695 46.082-41.647 119.307-41.647 73.227 0 118.68 41.647 45.447 41.652 50.504 115.694m482.278 411.211q64.386 0 103.526-19.172t59.339-45.615q20.2-26.445 30.299-46.279h18.941v3.967q0 40.987 27.775 64.787t71.964 23.8h97.213v-113.71h-53.025q-35.349 0-35.351-39.667V522.277q0-119.003-69.44-183.79-69.435-64.787-190.643-64.787-78.276 0-133.825 26.445-55.554 26.439-89.011 69.415t-48.604 95.86l121.201 40.99q11.366-52.89 46.713-85.947 35.348-33.056 102.266-33.056 68.178 0 101.002 34.379t32.824 91.235v42.31h-189.38q-68.178 0-121.833 22.477-53.656 22.479-84.59 66.774-30.93 44.296-30.929 111.727 0 66.11 30.93 112.389t83.328 70.076q52.398 23.799 119.31 23.8m18.938-112.391q-56.814 0-89.641-26.442-32.829-26.446-32.827-71.398 0-44.957 31.563-68.096 31.566-23.136 83.328-23.136h181.803v13.222q0 81.973-47.973 128.913t-126.253 46.94m766.343 112.388q117.416 0 186.855-54.212 69.44-54.21 69.439-152.053 0-66.113-32.194-105.78-32.192-39.667-87.746-60.82t-122.465-33.057l-44.185-7.933q-50.505-9.252-80.173-27.764-29.67-18.511-29.67-58.18 0-37.022 30.3-57.514 30.303-20.495 83.328-20.495 54.29 0 90.905 24.458 36.608 24.462 47.973 83.96l121.204-35.694q-20.202-84.624-87.747-134.209-67.545-49.582-172.335-49.581-108.579 0-174.23 50.903-65.65 50.904-65.65 143.462 0 62.142 30.3 101.81 30.299 39.667 82.067 62.146 51.758 22.478 114.888 34.375l42.924 7.934q61.863 11.903 93.43 30.412 31.563 18.51 31.563 58.179 0 39.667-33.458 64.787-33.457 25.119-95.323 25.123-41.664 0-77.642-13.223-35.985-13.222-59.972-44.957-23.987-31.73-34.088-85.943l-121.204 30.412q17.675 112.392 95.954 167.92 78.276 55.534 196.952 55.534m693.123 0q84.588 0 138.878-27.767t87.743-68.754 51.135-78.013l-107.315-58.176q-20.202 44.958-57.447 79.336t-110.47 34.375q-78.279 0-130.671-50.903-52.395-50.91-54.92-136.85H4350v-51.568q0-99.17-37.876-173.212-37.875-74.043-105.42-115.694c-45.03-27.768-97.425-41.648-157.183-41.648q-92.172 0-162.238 41.648-70.07 41.65-109.209 117.677-39.138 76.026-39.136 177.84v15.867q0 100.488 39.767 176.518 39.77 76.026 110.472 117.673 70.704 41.652 165.393 41.651m162.865-411.21h-344.671q10.104-74.044 56.183-115.695 46.083-41.647 119.31-41.647t118.677 41.647q45.448 41.649 50.5 115.694M.063 849.193V639.9q0-181.33 90.031-275.31 89.13-93.037 238.507-93.963l3.024-.01h135.86l-38.182 124.419h-97.678q-95.696 0-147.753 61.365l-1.263 1.507q-51.482 62.054-52.146 171.17l-.01 2.878v217.237h-.034V963H0V849.193z"/></g></svg>