<?xml version="1.0" encoding="UTF-8"?>
<!DOCTYPE svg PUBLIC "-//W3C//DTD SVG 1.1//EN" "http://www.w3.org/Graphics/SVG/1.1/DTD/svg11.dtd">
<svg xmlns="http://www.w3.org/2000/svg" version="1.1" width="2360px" height="1640px" style="shape-rendering:geometricPrecision; text-rendering:geometricPrecision; image-rendering:optimizeQuality; fill-rule:evenodd; clip-rule:evenodd" xmlns:xlink="http://www.w3.org/1999/xlink">
<g><path style="opacity:1" fill="#fefefe" d="M -0.5,-0.5 C 786.167,-0.5 1572.83,-0.5 2359.5,-0.5C 2359.5,546.167 2359.5,1092.83 2359.5,1639.5C 1572.83,1639.5 786.167,1639.5 -0.5,1639.5C -0.5,1092.83 -0.5,546.167 -0.5,-0.5 Z"/></g>
<g><path style="opacity:1" fill="#9e9d9e" d="M 1606.5,228.5 C 1644.45,226.469 1682.45,227.636 1720.5,232C 1727.32,233.464 1733.98,234.964 1740.5,236.5C 1735.53,235.836 1730.53,235.503 1725.5,235.5C 1722.41,234.215 1719.08,233.549 1715.5,233.5C 1708.05,232.028 1700.38,231.361 1692.5,231.5C 1692.17,231.5 1691.83,231.5 1691.5,231.5C 1684.41,229.869 1677.08,229.035 1669.5,229C 1648.5,228.5 1627.5,228.333 1606.5,228.5 Z"/></g>
<g><path style="opacity:1" fill="#000000" d="M 846.5,239.5 C 848.515,240.924 850.848,241.59 853.5,241.5C 937.131,270.292 1004.3,320.959 1055,393.5C 1074.24,421.635 1090.07,451.635 1102.5,483.5C 1102.66,485.153 1103.33,486.486 1104.5,487.5C 1145.2,600.581 1185.53,713.914 1225.5,827.5C 1225.26,829.898 1225.93,831.898 1227.5,833.5C 1227.26,834.791 1227.6,835.791 1228.5,836.5C 1228.17,839.228 1228.84,841.562 1230.5,843.5C 1233.17,850.225 1235.84,856.892 1238.5,863.5C 1238.26,865.898 1238.93,867.898 1240.5,869.5C 1243.8,876.65 1246.8,883.984 1249.5,891.5C 1249.6,894.636 1250.6,897.302 1252.5,899.5C 1252.66,901.153 1253.33,902.486 1254.5,903.5C 1254.05,906.01 1254.72,908.01 1256.5,909.5C 1263.57,931.757 1271.57,953.757 1280.5,975.5C 1280.43,977.027 1281.09,978.027 1282.5,978.5C 1320.76,1060.6 1379.76,1123.1 1459.5,1166C 1465.05,1168.96 1470.71,1171.46 1476.5,1173.5C 1477.29,1175.1 1478.62,1175.77 1480.5,1175.5C 1485.05,1177.69 1489.72,1179.69 1494.5,1181.5C 1498.44,1183.96 1502.78,1185.63 1507.5,1186.5C 1520.8,1191.5 1534.47,1195.5 1548.5,1198.5C 1552.24,1200.1 1556.24,1201.1 1560.5,1201.5C 1563.17,1201.83 1565.83,1202.17 1568.5,1202.5C 1571.17,1204.12 1574.17,1204.78 1577.5,1204.5C 1588.3,1205.92 1598.96,1207.25 1609.5,1208.5C 1628.84,1210.92 1648.17,1210.92 1667.5,1208.5C 1672.07,1207.56 1676.74,1207.23 1681.5,1207.5C 1686.41,1207.64 1691.08,1206.97 1695.5,1205.5C 1696.17,1205.5 1696.83,1205.5 1697.5,1205.5C 1706.9,1205.21 1715.9,1203.55 1724.5,1200.5C 1734.41,1197.85 1744.41,1195.19 1754.5,1192.5C 1758.16,1192.28 1761.5,1191.28 1764.5,1189.5C 1770.63,1187.01 1776.96,1184.68 1783.5,1182.5C 1786.49,1182.83 1788.82,1181.83 1790.5,1179.5C 1794.2,1177.32 1798.2,1175.65 1802.5,1174.5C 1807.51,1173.83 1811.84,1171.83 1815.5,1168.5C 1817.85,1168.41 1819.51,1167.41 1820.5,1165.5C 1849.43,1149.88 1876.43,1131.55 1901.5,1110.5C 1907.11,1106.56 1912.11,1101.89 1916.5,1096.5C 1917.5,1094.83 1918.83,1093.5 1920.5,1092.5C 1925.23,1088.77 1929.23,1084.44 1932.5,1079.5C 1935.9,1077.1 1938.57,1074.1 1940.5,1070.5C 1942.59,1069.42 1943.92,1067.75 1944.5,1065.5C 1946.91,1064.09 1948.58,1062.09 1949.5,1059.5C 1961.91,1042.34 1973.58,1024.67 1984.5,1006.5C 1988.04,1002.46 1990.87,997.794 1993,992.5C 1993.49,991.207 1993.66,989.873 1993.5,988.5C 1999.77,975.026 2005.43,961.359 2010.5,947.5C 2013.66,942.367 2015.66,936.7 2016.5,930.5C 2017.84,925.817 2019.17,921.15 2020.5,916.5C 2021.59,916.38 2022.25,915.713 2022.5,914.5C 2023.35,910.188 2024.02,905.854 2024.5,901.5C 2024.78,897.426 2025.45,893.426 2026.5,889.5C 2028.76,884.527 2029.76,879.194 2029.5,873.5C 2031.99,864.467 2032.99,855.134 2032.5,845.5C 2032.5,844.5 2032.5,843.5 2032.5,842.5C 2035.13,822.831 2035.13,803.164 2032.5,783.5C 2031.34,776.217 2030.67,768.883 2030.5,761.5C 2030.8,757.21 2030.14,753.21 2028.5,749.5C 2027.9,742.892 2026.57,736.558 2024.5,730.5C 2024.5,729.833 2024.5,729.167 2024.5,728.5C 2024.59,725.848 2023.92,723.515 2022.5,721.5C 2022.59,718.848 2021.92,716.515 2020.5,714.5C 2020.5,714.167 2020.5,713.833 2020.5,713.5C 2020.74,711.102 2020.07,709.102 2018.5,707.5C 2017.74,702.57 2016.41,697.903 2014.5,693.5C 2013.99,688.297 2012.32,683.63 2009.5,679.5C 2008.54,673.909 2006.54,668.909 2003.5,664.5C 2003.74,662.102 2003.07,660.102 2001.5,658.5C 2001.5,657.833 2001.17,657.5 2000.5,657.5C 2000.58,654.351 1999.58,651.684 1997.5,649.5C 1994.67,642.516 1991.34,635.849 1987.5,629.5C 1987.57,627.973 1986.91,626.973 1985.5,626.5C 1985.28,623.454 1983.94,621.121 1981.5,619.5C 1979.34,614.5 1976.67,609.833 1973.5,605.5C 1973.57,603.973 1972.91,602.973 1971.5,602.5C 1966.9,594.301 1961.57,586.635 1955.5,579.5C 1954.92,577.251 1953.59,575.585 1951.5,574.5C 1951.26,572.596 1950.26,571.262 1948.5,570.5C 1947.58,567.911 1945.91,565.911 1943.5,564.5C 1942.92,562.251 1941.59,560.585 1939.5,559.5C 1939.17,558.5 1938.5,557.833 1937.5,557.5C 1936.58,554.911 1934.91,552.911 1932.5,551.5C 1924.17,542.833 1915.83,534.167 1907.5,525.5C 1906.42,523.413 1904.75,522.08 1902.5,521.5C 1862.5,485.655 1816.83,459.322 1765.5,442.5C 1763.38,440.345 1760.72,439.345 1757.5,439.5C 1752.76,438.363 1748.09,437.03 1743.5,435.5C 1741.49,434.076 1739.15,433.41 1736.5,433.5C 1728.11,431.984 1719.77,430.317 1711.5,428.5C 1703.81,426.108 1695.81,424.774 1687.5,424.5C 1682.14,424.528 1676.8,424.194 1671.5,423.5C 1651,422.337 1630.34,422.171 1609.5,423C 1603.29,423.382 1597.29,424.215 1591.5,425.5C 1586.59,425.362 1581.92,426.028 1577.5,427.5C 1574.61,427.194 1571.95,427.527 1569.5,428.5C 1561.85,429.249 1554.51,430.916 1547.5,433.5C 1543.48,433.63 1539.81,434.63 1536.5,436.5C 1536.17,436.5 1535.83,436.5 1535.5,436.5C 1527.16,438.552 1519.16,441.219 1511.5,444.5C 1508.28,444.345 1505.62,445.345 1503.5,447.5C 1495.99,449.002 1488.99,451.669 1482.5,455.5C 1476.4,457.384 1470.74,460.051 1465.5,463.5C 1391.25,501.384 1333.75,556.718 1293,629.5C 1285.94,642.955 1279.44,656.622 1273.5,670.5C 1243.44,594.656 1213.77,518.656 1184.5,442.5C 1186.97,440.939 1188.97,438.939 1190.5,436.5C 1192.5,435.167 1194.17,433.5 1195.5,431.5C 1195.43,429.973 1196.09,428.973 1197.5,428.5C 1198.97,427.564 1199.97,426.23 1200.5,424.5C 1201.82,423.058 1203.49,422.392 1205.5,422.5C 1205.7,420.315 1206.37,418.315 1207.5,416.5C 1213.18,409.457 1219.51,403.124 1226.5,397.5C 1228.83,395.833 1230.83,393.833 1232.5,391.5C 1232.5,390.833 1232.83,390.5 1233.5,390.5C 1234.83,389.833 1235.83,388.833 1236.5,387.5C 1237.17,386.167 1238.17,385.167 1239.5,384.5C 1246.08,380.587 1251.75,375.587 1256.5,369.5C 1256.5,368.833 1256.83,368.5 1257.5,368.5C 1259.75,367.92 1261.42,366.587 1262.5,364.5C 1268.39,361.281 1273.39,356.948 1277.5,351.5C 1288.84,343.164 1300.18,334.831 1311.5,326.5C 1316.53,325.483 1320.53,322.816 1323.5,318.5C 1325.98,317.758 1328.31,316.758 1330.5,315.5C 1333.2,315.155 1335.2,313.822 1336.5,311.5C 1340.87,309.654 1344.87,307.321 1348.5,304.5C 1365.08,296.574 1381.41,288.24 1397.5,279.5C 1401.9,278.594 1405.9,276.928 1409.5,274.5C 1413.48,273.337 1417.48,272.171 1421.5,271C 1422.94,270.623 1423.94,269.79 1424.5,268.5C 1426.12,267.962 1427.78,267.629 1429.5,267.5C 1435.37,265.902 1441.03,263.735 1446.5,261C 1453.16,260.743 1459.16,258.743 1464.5,255C 1467.92,254.479 1471.25,253.645 1474.5,252.5C 1475.29,252.931 1476.13,253.265 1477,253.5C 1480.18,251.663 1483.35,249.996 1486.5,248.5C 1492.37,247.529 1498.04,246.196 1503.5,244.5C 1509.52,243.239 1515.52,241.906 1521.5,240.5C 1527.66,239.695 1533.66,238.695 1539.5,237.5C 1553.53,234.839 1567.53,232.839 1581.5,231.5C 1618.16,228.856 1654.83,228.856 1691.5,231.5C 1691.83,231.5 1692.17,231.5 1692.5,231.5C 1699.95,232.972 1707.62,233.639 1715.5,233.5C 1719.08,233.549 1722.41,234.215 1725.5,235.5C 1749.13,240.095 1772.8,245.095 1796.5,250.5C 1804.24,252.515 1811.91,254.849 1819.5,257.5C 1824.04,260.125 1829.04,261.791 1834.5,262.5C 1836.15,262.66 1837.49,263.326 1838.5,264.5C 1842.21,266.435 1846.21,267.768 1850.5,268.5C 1854.59,271.092 1858.93,273.259 1863.5,275C 1866.72,276.352 1870.05,277.186 1873.5,277.5C 1874.64,279.213 1876.3,279.88 1878.5,279.5C 1881.32,282.751 1884.99,284.751 1889.5,285.5C 1891.98,286.883 1894.64,287.883 1897.5,288.5C 1900.65,291.244 1904.31,293.244 1908.5,294.5C 1908.37,295.376 1908.7,296.043 1909.5,296.5C 1912.85,297.846 1916.19,299.18 1919.5,300.5C 1921.42,303.138 1924.08,304.805 1927.5,305.5C 1929.17,306.167 1930.83,306.833 1932.5,307.5C 1934.43,311.092 1937.43,313.092 1941.5,313.5C 1943.63,316.738 1946.63,318.738 1950.5,319.5C 1954.5,321.833 1958.5,324.167 1962.5,326.5C 1963.58,328.587 1965.25,329.92 1967.5,330.5C 1969.17,331.167 1970.83,331.833 1972.5,332.5C 1975.5,336.843 1979.5,339.843 1984.5,341.5C 1986.15,344.061 1988.48,345.727 1991.5,346.5C 1993.21,349.213 1995.55,351.213 1998.5,352.5C 1999.58,354.587 2001.25,355.92 2003.5,356.5C 2010.91,364.239 2019.25,370.906 2028.5,376.5C 2035.89,384.889 2043.89,392.556 2052.5,399.5C 2058.14,408.076 2065.14,415.409 2073.5,421.5C 2074.65,426.651 2077.65,430.317 2082.5,432.5C 2083.08,434.749 2084.41,436.415 2086.5,437.5C 2087.76,440.427 2089.76,442.761 2092.5,444.5C 2094.19,444.856 2095.19,445.856 2095.5,447.5C 2096.65,451.332 2098.99,454.332 2102.5,456.5C 2102.43,458.027 2103.09,459.027 2104.5,459.5C 2105.07,462.407 2106.74,464.407 2109.5,465.5C 2109.5,466.167 2109.5,466.833 2109.5,467.5C 2110.76,470.427 2112.76,472.761 2115.5,474.5C 2122.43,486.698 2130.09,498.365 2138.5,509.5C 2141.89,516.151 2145.39,522.817 2149,529.5C 2150.84,531.201 2152.67,532.868 2154.5,534.5C 2155.54,538.259 2156.88,541.926 2158.5,545.5C 2161.09,551.72 2164.42,557.387 2168.5,562.5C 2172.37,571.466 2176.04,580.466 2179.5,589.5C 2180.55,593.275 2181.89,596.942 2183.5,600.5C 2185.13,605.735 2187.13,610.735 2189.5,615.5C 2192.8,625.729 2196.46,635.729 2200.5,645.5C 2200.26,647.898 2200.93,649.898 2202.5,651.5C 2207.17,671.552 2211.83,691.552 2216.5,711.5C 2217.11,716.812 2217.61,722.146 2218,727.5C 2218.28,730.457 2219.11,733.123 2220.5,735.5C 2221.2,739.798 2221.53,744.131 2221.5,748.5C 2222.93,767.644 2224.26,786.644 2225.5,805.5C 2225.5,811.5 2225.5,817.5 2225.5,823.5C 2222.53,835.91 2221.86,848.576 2223.5,861.5C 2222.13,871.658 2221.13,881.992 2220.5,892.5C 2220.5,892.833 2220.5,893.167 2220.5,893.5C 2216.32,911.896 2212.99,930.563 2210.5,949.5C 2206.93,959.547 2203.93,969.881 2201.5,980.5C 2200.7,982.042 2200.37,983.708 2200.5,985.5C 2197.53,991.085 2195.53,997.085 2194.5,1003.5C 2190.07,1017.04 2185.07,1030.37 2179.5,1043.5C 2179.5,1044.17 2179.5,1044.83 2179.5,1045.5C 2177.03,1046.61 2176.03,1048.61 2176.5,1051.5C 2173.71,1055.88 2171.21,1060.55 2169,1065.5C 2168.51,1066.79 2168.34,1068.13 2168.5,1069.5C 2164.99,1074.98 2161.99,1080.65 2159.5,1086.5C 2157.02,1087.69 2156.02,1089.69 2156.5,1092.5C 2155.12,1095.31 2153.45,1097.97 2151.5,1100.5C 2149.17,1104.45 2146.84,1108.45 2144.5,1112.5C 2142.28,1115.14 2140.61,1118.14 2139.5,1121.5C 2132.47,1131.56 2125.81,1141.89 2119.5,1152.5C 2115.9,1155.65 2112.73,1159.32 2110,1163.5C 2108.88,1165.41 2108.04,1167.41 2107.5,1169.5C 2105.85,1170.71 2104.18,1172.05 2102.5,1173.5C 2099.8,1177.03 2097.3,1180.7 2095,1184.5C 2085.6,1195.06 2076.43,1205.73 2067.5,1216.5C 2065.11,1217.22 2063.61,1218.89 2063,1221.5C 2060.94,1223.73 2058.77,1225.73 2056.5,1227.5C 2055.76,1227.37 2055.09,1227.54 2054.5,1228C 2049.66,1232.41 2045.32,1237.24 2041.5,1242.5C 2040.83,1242.5 2040.5,1242.83 2040.5,1243.5C 2024.49,1257.32 2008.15,1270.82 1991.5,1284C 1977.07,1293.87 1962.73,1303.7 1948.5,1313.5C 1940.2,1317.98 1931.87,1322.48 1923.5,1327C 1922.62,1327.71 1921.95,1328.54 1921.5,1329.5C 1918.14,1331.18 1914.81,1332.85 1911.5,1334.5C 1906.52,1336.65 1901.52,1338.82 1896.5,1341C 1895.29,1342.04 1894.29,1343.21 1893.5,1344.5C 1892.83,1344.5 1892.17,1344.5 1891.5,1344.5C 1889.15,1344.59 1887.49,1345.59 1886.5,1347.5C 1882.84,1347.5 1879.84,1348.84 1877.5,1351.5C 1872.09,1353.61 1866.59,1355.61 1861,1357.5C 1859.97,1357.84 1859.47,1358.5 1859.5,1359.5C 1859.17,1359.5 1858.83,1359.5 1858.5,1359.5C 1853.77,1359.63 1849.77,1361.29 1846.5,1364.5C 1845.04,1364.43 1843.71,1364.77 1842.5,1365.5C 1830.17,1369.66 1817.84,1373.66 1805.5,1377.5C 1795.68,1379.92 1786.01,1382.59 1776.5,1385.5C 1774.15,1385.67 1771.82,1386 1769.5,1386.5C 1767.97,1386.64 1766.97,1387.31 1766.5,1388.5C 1766.17,1388.5 1765.83,1388.5 1765.5,1388.5C 1758.47,1388.6 1751.8,1389.93 1745.5,1392.5C 1741.99,1391.95 1738.99,1392.61 1736.5,1394.5C 1736.17,1394.5 1735.83,1394.5 1735.5,1394.5C 1732.15,1394.33 1728.82,1394.5 1725.5,1395C 1724.26,1395.23 1723.26,1395.73 1722.5,1396.5C 1722.17,1396.5 1721.83,1396.5 1721.5,1396.5C 1704.98,1397.65 1688.65,1399.32 1672.5,1401.5C 1672.17,1401.5 1671.83,1401.5 1671.5,1401.5C 1638.78,1401.98 1606.12,1400.98 1573.5,1398.5C 1572.17,1398.5 1570.83,1398.5 1569.5,1398.5C 1561.77,1396.32 1553.77,1394.99 1545.5,1394.5C 1539.99,1393.13 1534.32,1392.13 1528.5,1391.5C 1527.17,1391.5 1525.83,1391.5 1524.5,1391.5C 1520.87,1389.5 1516.87,1388.5 1512.5,1388.5C 1512.17,1388.5 1511.83,1388.5 1511.5,1388.5C 1509.56,1386.84 1507.23,1386.17 1504.5,1386.5C 1500.14,1385.99 1495.81,1385.33 1491.5,1384.5C 1483.83,1380.94 1475.83,1378.61 1467.5,1377.5C 1465.88,1375.88 1463.88,1374.72 1461.5,1374C 1456.89,1372.52 1452.22,1371.35 1447.5,1370.5C 1446.83,1370.5 1446.17,1370.5 1445.5,1370.5C 1445.17,1370.5 1444.83,1370.5 1444.5,1370.5C 1439.07,1368.3 1433.74,1365.8 1428.5,1363C 1427.21,1362.51 1425.87,1362.34 1424.5,1362.5C 1422.49,1360.93 1420.16,1359.93 1417.5,1359.5C 1417.17,1359.5 1416.83,1359.5 1416.5,1359.5C 1413.23,1356.29 1409.23,1354.63 1404.5,1354.5C 1402.39,1352.23 1399.72,1350.9 1396.5,1350.5C 1392.46,1347.31 1387.79,1345.31 1382.5,1344.5C 1379.82,1343.37 1377.49,1341.71 1375.5,1339.5C 1372.77,1337.63 1369.77,1336.63 1366.5,1336.5C 1364.52,1333.86 1361.85,1332.53 1358.5,1332.5C 1356.43,1330.8 1354.1,1329.47 1351.5,1328.5C 1350.34,1326.75 1348.67,1325.75 1346.5,1325.5C 1344.66,1323.41 1342.33,1322.08 1339.5,1321.5C 1338.34,1319.75 1336.67,1318.75 1334.5,1318.5C 1334.06,1316.93 1333.06,1315.76 1331.5,1315C 1328.94,1313.6 1326.27,1312.44 1323.5,1311.5C 1322,1309.16 1320,1307.33 1317.5,1306C 1313.64,1303.57 1309.64,1301.4 1305.5,1299.5C 1301.21,1295.35 1296.54,1291.69 1291.5,1288.5C 1286.93,1286.26 1282.93,1283.26 1279.5,1279.5C 1276.3,1275.63 1272.3,1272.97 1267.5,1271.5C 1264.11,1267.1 1260.11,1263.44 1255.5,1260.5C 1253.43,1257.43 1250.76,1255.09 1247.5,1253.5C 1245.43,1250.43 1242.76,1248.09 1239.5,1246.5C 1224.46,1231.29 1210.29,1215.29 1197,1198.5C 1171.41,1165.02 1149.08,1129.35 1130,1091.5C 1120.3,1072.43 1111.46,1053.1 1103.5,1033.5C 1096.68,1015.87 1089.35,998.535 1081.5,981.5C 1073.64,962.28 1065.64,943.113 1057.5,924C 1014.47,807.248 969.633,691.081 923,575.5C 895.643,512.81 850.81,467.31 788.5,439C 780.362,435.732 772.029,433.065 763.5,431C 746.266,428.269 728.933,426.436 711.5,425.5C 522.506,426.657 333.506,426.824 144.5,426C 135.482,425.832 126.482,425.332 117.5,424.5C 178.65,358.849 239.983,293.349 301.5,228C 464.792,228.328 628.126,228.661 791.5,229C 809.98,231.796 828.313,235.296 846.5,239.5 Z"/></g>
<g><path style="opacity:1" fill="#504f4f" d="M 1602.5,228.5 C 1603.83,228.5 1605.17,228.5 1606.5,228.5C 1627.5,228.333 1648.5,228.5 1669.5,229C 1677.08,229.035 1684.41,229.869 1691.5,231.5C 1654.83,228.856 1618.16,228.856 1581.5,231.5C 1588.43,229.994 1595.43,228.994 1602.5,228.5 Z"/></g>
<g><path style="opacity:1" fill="#aeadae" d="M 1602.5,228.5 C 1595.43,228.994 1588.43,229.994 1581.5,231.5C 1570.42,231.737 1559.42,232.737 1548.5,234.5C 1550.88,233.113 1553.54,232.279 1556.5,232C 1571.77,229.937 1587.11,228.77 1602.5,228.5 Z"/></g>
<g><path style="opacity:1" fill="#4d4c4d" d="M 1692.5,231.5 C 1700.38,231.361 1708.05,232.028 1715.5,233.5C 1707.62,233.639 1699.95,232.972 1692.5,231.5 Z"/></g>
<g><path style="opacity:1" fill="#575657" d="M 1581.5,231.5 C 1567.53,232.839 1553.53,234.839 1539.5,237.5C 1542.35,236.046 1545.35,235.046 1548.5,234.5C 1559.42,232.737 1570.42,231.737 1581.5,231.5 Z"/></g>
<g><path style="opacity:1" fill="#595859" d="M 1725.5,235.5 C 1730.53,235.503 1735.53,235.836 1740.5,236.5C 1753.11,240.156 1766.11,242.823 1779.5,244.5C 1785.04,246.305 1790.7,247.971 1796.5,249.5C 1796.5,249.833 1796.5,250.167 1796.5,250.5C 1772.8,245.095 1749.13,240.095 1725.5,235.5 Z"/></g>
<g><path style="opacity:1" fill="#a2a2a2" d="M 846.5,239.5 C 849.152,239.41 851.485,240.076 853.5,241.5C 850.848,241.59 848.515,240.924 846.5,239.5 Z"/></g>
<g><path style="opacity:1" fill="#4f4e4e" d="M 1539.5,237.5 C 1533.66,238.695 1527.66,239.695 1521.5,240.5C 1521.92,239.778 1522.58,239.278 1523.5,239C 1528.79,238.023 1534.13,237.523 1539.5,237.5 Z"/></g>
<g><path style="opacity:1" fill="#d4d4d4" d="M 1740.5,236.5 C 1748.21,236.857 1755.88,237.69 1763.5,239C 1767.15,241.082 1771.15,242.082 1775.5,242C 1776.86,242.934 1778.19,243.768 1779.5,244.5C 1766.11,242.823 1753.11,240.156 1740.5,236.5 Z"/></g>
<g><path style="opacity:1" fill="#8e8d8e" d="M 1548.5,234.5 C 1545.35,235.046 1542.35,236.046 1539.5,237.5C 1534.13,237.523 1528.79,238.023 1523.5,239C 1522.58,239.278 1521.92,239.778 1521.5,240.5C 1515.52,241.906 1509.52,243.239 1503.5,244.5C 1502.17,244.5 1500.83,244.5 1499.5,244.5C 1515.25,238.956 1531.59,235.623 1548.5,234.5 Z"/></g>
<g><path style="opacity:1" fill="#a9a8a8" d="M 1495.5,244.5 C 1492.5,245.833 1489.5,247.167 1486.5,248.5C 1485.17,248.5 1483.83,248.5 1482.5,248.5C 1486.5,246.39 1490.84,245.057 1495.5,244.5 Z"/></g>
<g><path style="opacity:1" fill="#4d4b4c" d="M 1495.5,244.5 C 1496.83,244.5 1498.17,244.5 1499.5,244.5C 1500.83,244.5 1502.17,244.5 1503.5,244.5C 1498.04,246.196 1492.37,247.529 1486.5,248.5C 1489.5,247.167 1492.5,245.833 1495.5,244.5 Z"/></g>
<g><path style="opacity:1" fill="#c2c2c2" d="M 1482.5,248.5 C 1476.6,250.161 1470.6,251.827 1464.5,253.5C 1464.41,252.504 1464.75,251.671 1465.5,251C 1471.18,250.165 1476.84,249.331 1482.5,248.5 Z"/></g>
<g><path style="opacity:1" fill="#343334" d="M 1482.5,248.5 C 1483.83,248.5 1485.17,248.5 1486.5,248.5C 1483.35,249.996 1480.18,251.663 1477,253.5C 1476.13,253.265 1475.29,252.931 1474.5,252.5C 1471.25,253.645 1467.92,254.479 1464.5,255C 1459.16,258.743 1453.16,260.743 1446.5,261C 1441.03,263.735 1435.37,265.902 1429.5,267.5C 1432.37,265.649 1435.37,263.983 1438.5,262.5C 1441.17,261.5 1443.83,260.5 1446.5,259.5C 1452.05,258.203 1457.38,256.537 1462.5,254.5C 1463.17,254.167 1463.83,253.833 1464.5,253.5C 1470.6,251.827 1476.6,250.161 1482.5,248.5 Z"/></g>
<g><path style="opacity:1" fill="#a6a6a6" d="M 1796.5,250.5 C 1796.5,250.167 1796.5,249.833 1796.5,249.5C 1800.8,250.43 1805.13,251.263 1809.5,252C 1815.52,255.006 1821.85,257.006 1828.5,258C 1829.06,258.383 1829.39,258.883 1829.5,259.5C 1826.17,258.833 1822.83,258.167 1819.5,257.5C 1811.91,254.849 1804.24,252.515 1796.5,250.5 Z"/></g>
<g><path style="opacity:1" fill="#a5a5a5" d="M 1462.5,254.5 C 1457.38,256.537 1452.05,258.203 1446.5,259.5C 1451.21,256.342 1456.55,254.675 1462.5,254.5 Z"/></g>
<g><path style="opacity:1" fill="#565555" d="M 1819.5,257.5 C 1822.83,258.167 1826.17,258.833 1829.5,259.5C 1831.17,260.167 1832.83,260.833 1834.5,261.5C 1834.5,261.833 1834.5,262.167 1834.5,262.5C 1829.04,261.791 1824.04,260.125 1819.5,257.5 Z"/></g>
<g><path style="opacity:1" fill="#c5c5c5" d="M 1834.5,262.5 C 1834.5,262.167 1834.5,261.833 1834.5,261.5C 1841.96,262.014 1848.63,264.347 1854.5,268.5C 1853.17,268.5 1851.83,268.5 1850.5,268.5C 1846.92,266.194 1842.92,264.861 1838.5,264.5C 1837.49,263.326 1836.15,262.66 1834.5,262.5 Z"/></g>
<g><path style="opacity:1" fill="#838282" d="M 1438.5,262.5 C 1435.37,263.983 1432.37,265.649 1429.5,267.5C 1427.78,267.629 1426.12,267.962 1424.5,268.5C 1428.47,265.166 1433.14,263.166 1438.5,262.5 Z"/></g>
<g><path style="opacity:1" fill="#4d4d4d" d="M 1838.5,264.5 C 1842.92,264.861 1846.92,266.194 1850.5,268.5C 1846.21,267.768 1842.21,266.435 1838.5,264.5 Z"/></g>
<g><path style="opacity:1" fill="#656364" d="M 1850.5,268.5 C 1851.83,268.5 1853.17,268.5 1854.5,268.5C 1861.2,270.684 1867.54,273.684 1873.5,277.5C 1870.05,277.186 1866.72,276.352 1863.5,275C 1858.93,273.259 1854.59,271.092 1850.5,268.5 Z"/></g>
<g><path style="opacity:1" fill="#646464" d="M 1424.5,268.5 C 1423.94,269.79 1422.94,270.623 1421.5,271C 1417.48,272.171 1413.48,273.337 1409.5,274.5C 1413.67,270.718 1418.67,268.718 1424.5,268.5 Z"/></g>
<g><path style="opacity:1" fill="#666465" d="M 1409.5,274.5 C 1405.9,276.928 1401.9,278.594 1397.5,279.5C 1400.97,276.772 1404.97,275.105 1409.5,274.5 Z"/></g>
<g><path style="opacity:1" fill="#878787" d="M 1873.5,277.5 C 1875.7,277.12 1877.36,277.787 1878.5,279.5C 1876.3,279.88 1874.64,279.213 1873.5,277.5 Z"/></g>
<g><path style="opacity:1" fill="#5a5a5a" d="M 1878.5,279.5 C 1882.66,280.742 1886.32,282.742 1889.5,285.5C 1884.99,284.751 1881.32,282.751 1878.5,279.5 Z"/></g>
<g><path style="opacity:1" fill="#8a898a" d="M 1897.5,288.5 C 1901.03,289.361 1904.36,290.694 1907.5,292.5C 1908.3,292.957 1908.63,293.624 1908.5,294.5C 1904.31,293.244 1900.65,291.244 1897.5,288.5 Z"/></g>
<g><path style="opacity:1" fill="#535253" d="M 1397.5,279.5 C 1381.41,288.24 1365.08,296.574 1348.5,304.5C 1356.03,299.538 1364.03,295.038 1372.5,291C 1373.5,290 1374.5,289 1375.5,288C 1382.96,285.437 1390.29,282.604 1397.5,279.5 Z"/></g>
<g><path style="opacity:1" fill="#7e7d7e" d="M 1908.5,294.5 C 1911.05,295.606 1913.72,296.439 1916.5,297C 1918.06,297.759 1919.06,298.926 1919.5,300.5C 1916.19,299.18 1912.85,297.846 1909.5,296.5C 1908.7,296.043 1908.37,295.376 1908.5,294.5 Z"/></g>
<g><path style="opacity:1" fill="#585858" d="M 1919.5,300.5 C 1922.92,301.195 1925.58,302.862 1927.5,305.5C 1924.08,304.805 1921.42,303.138 1919.5,300.5 Z"/></g>
<g><path style="opacity:1" fill="#545354" d="M 1932.5,307.5 C 1935.53,309.538 1938.53,311.538 1941.5,313.5C 1937.43,313.092 1934.43,311.092 1932.5,307.5 Z"/></g>
<g><path style="opacity:1" fill="#9f9e9f" d="M 1348.5,304.5 C 1344.87,307.321 1340.87,309.654 1336.5,311.5C 1334.15,312.34 1332.15,313.674 1330.5,315.5C 1328.31,316.758 1325.98,317.758 1323.5,318.5C 1330.76,312.035 1339.09,307.368 1348.5,304.5 Z"/></g>
<g><path style="opacity:1" fill="#474647" d="M 1336.5,311.5 C 1335.2,313.822 1333.2,315.155 1330.5,315.5C 1332.15,313.674 1334.15,312.34 1336.5,311.5 Z"/></g>
<g><path style="opacity:1" fill="#3d3b3c" d="M 1941.5,313.5 C 1943.69,314.758 1946.02,315.758 1948.5,316.5C 1949.17,317.5 1949.83,318.5 1950.5,319.5C 1946.63,318.738 1943.63,316.738 1941.5,313.5 Z"/></g>
<g><path style="opacity:1" fill="#b8b8b8" d="M 1948.5,316.5 C 1950.18,316.892 1951.85,317.392 1953.5,318C 1957.57,320.395 1961.24,323.228 1964.5,326.5C 1963.83,326.5 1963.17,326.5 1962.5,326.5C 1958.5,324.167 1954.5,321.833 1950.5,319.5C 1949.83,318.5 1949.17,317.5 1948.5,316.5 Z"/></g>
<g><path style="opacity:1" fill="#767676" d="M 1323.5,318.5 C 1320.53,322.816 1316.53,325.483 1311.5,326.5C 1315.2,323.479 1319.2,320.812 1323.5,318.5 Z"/></g>
<g><path style="opacity:1" fill="#8a8a8a" d="M 1311.5,326.5 C 1300.18,334.831 1288.84,343.164 1277.5,351.5C 1287.76,341.704 1299.09,333.371 1311.5,326.5 Z"/></g>
<g><path style="opacity:1" fill="#565656" d="M 1962.5,326.5 C 1963.17,326.5 1963.83,326.5 1964.5,326.5C 1965.5,327.833 1966.5,329.167 1967.5,330.5C 1965.25,329.92 1963.58,328.587 1962.5,326.5 Z"/></g>
<g><path style="opacity:1" fill="#a7a7a7" d="M 1972.5,332.5 C 1977.68,334.028 1981.68,337.028 1984.5,341.5C 1979.5,339.843 1975.5,336.843 1972.5,332.5 Z"/></g>
<g><path style="opacity:1" fill="#898989" d="M 1984.5,341.5 C 1987.37,342.433 1989.7,344.1 1991.5,346.5C 1988.48,345.727 1986.15,344.061 1984.5,341.5 Z"/></g>
<g><path style="opacity:1" fill="#818181" d="M 1991.5,346.5 C 1994.75,347.412 1997.08,349.412 1998.5,352.5C 1995.55,351.213 1993.21,349.213 1991.5,346.5 Z"/></g>
<g><path style="opacity:1" fill="#5e5e5e" d="M 1998.5,352.5 C 2000.75,353.08 2002.42,354.413 2003.5,356.5C 2001.25,355.92 1999.58,354.587 1998.5,352.5 Z"/></g>
<g><path style="opacity:1" fill="#565656" d="M 1277.5,351.5 C 1273.39,356.948 1268.39,361.281 1262.5,364.5C 1267.2,359.8 1272.2,355.466 1277.5,351.5 Z"/></g>
<g><path style="opacity:1" fill="#767676" d="M 2003.5,356.5 C 2004.87,356.343 2006.21,356.51 2007.5,357C 2014.67,363.338 2021.67,369.838 2028.5,376.5C 2019.25,370.906 2010.91,364.239 2003.5,356.5 Z"/></g>
<g><path style="opacity:1" fill="#494949" d="M 1262.5,364.5 C 1261.42,366.587 1259.75,367.92 1257.5,368.5C 1258.58,366.413 1260.25,365.08 1262.5,364.5 Z"/></g>
<g><path style="opacity:1" fill="#414040" d="M 1256.5,369.5 C 1251.75,375.587 1246.08,380.587 1239.5,384.5C 1244.82,379.186 1250.49,374.186 1256.5,369.5 Z"/></g>
<g><path style="opacity:1" fill="#7c7b7c" d="M 2028.5,376.5 C 2037.11,383.444 2045.11,391.111 2052.5,399.5C 2043.89,392.556 2035.89,384.889 2028.5,376.5 Z"/></g>
<g><path style="opacity:1" fill="#666666" d="M 1236.5,387.5 C 1235.83,388.833 1234.83,389.833 1233.5,390.5C 1233.5,388.5 1234.5,387.5 1236.5,387.5 Z"/></g>
<g><path style="opacity:1" fill="#626262" d="M 1232.5,391.5 C 1230.83,393.833 1228.83,395.833 1226.5,397.5C 1227.5,394.5 1229.5,392.5 1232.5,391.5 Z"/></g>
<g><path style="opacity:1" fill="#6c6b6b" d="M 2052.5,399.5 C 2059.52,406.019 2066.35,412.685 2073,419.5C 2073.46,420.094 2073.63,420.761 2073.5,421.5C 2065.14,415.409 2058.14,408.076 2052.5,399.5 Z"/></g>
<g><path style="opacity:1" fill="#3b3b3b" d="M 1207.5,416.5 C 1206.37,418.315 1205.7,420.315 1205.5,422.5C 1203.49,422.392 1201.82,423.058 1200.5,424.5C 1202.78,421.878 1205.12,419.212 1207.5,416.5 Z"/></g>
<g><path style="opacity:1" fill="#c3c3c3" d="M 1671.5,423.5 C 1644.8,423.174 1618.13,423.84 1591.5,425.5C 1597.29,424.215 1603.29,423.382 1609.5,423C 1630.34,422.171 1651,422.337 1671.5,423.5 Z"/></g>
<g><path style="opacity:1" fill="#464646" d="M 1687.5,424.5 C 1695.81,424.774 1703.81,426.108 1711.5,428.5C 1703.3,427.617 1695.3,426.283 1687.5,424.5 Z"/></g>
<g><path style="opacity:1" fill="#666666" d="M 1200.5,424.5 C 1199.97,426.23 1198.97,427.564 1197.5,428.5C 1197.55,426.368 1198.55,425.035 1200.5,424.5 Z"/></g>
<g><path style="opacity:1" fill="#bebebe" d="M 1591.5,425.5 C 1587.08,426.972 1582.41,427.638 1577.5,427.5C 1581.92,426.028 1586.59,425.362 1591.5,425.5 Z"/></g>
<g><path style="opacity:1" fill="#535252" d="M 2073.5,421.5 C 2077.63,424.29 2080.63,427.957 2082.5,432.5C 2077.65,430.317 2074.65,426.651 2073.5,421.5 Z"/></g>
<g><path style="opacity:1" fill="#c7c7c7" d="M 1569.5,428.5 C 1562.63,431.714 1555.3,433.381 1547.5,433.5C 1554.51,430.916 1561.85,429.249 1569.5,428.5 Z"/></g>
<g><path style="opacity:1" fill="#4b4b4b" d="M 1736.5,433.5 C 1739.15,433.41 1741.49,434.076 1743.5,435.5C 1743.17,435.5 1742.83,435.5 1742.5,435.5C 1740.21,435.405 1738.21,434.738 1736.5,433.5 Z"/></g>
<g><path style="opacity:1" fill="#585858" d="M 2082.5,432.5 C 2084.17,433.5 2085.5,434.833 2086.5,436.5C 2086.5,436.833 2086.5,437.167 2086.5,437.5C 2084.41,436.415 2083.08,434.749 2082.5,432.5 Z"/></g>
<g><path style="opacity:1" fill="#646464" d="M 1195.5,431.5 C 1194.17,433.5 1192.5,435.167 1190.5,436.5C 1191.17,433.833 1192.83,432.167 1195.5,431.5 Z"/></g>
<g><path style="opacity:1" fill="#b1b1b1" d="M 1547.5,433.5 C 1547.39,434.117 1547.06,434.617 1546.5,435C 1543.17,435.61 1539.84,436.11 1536.5,436.5C 1539.81,434.63 1543.48,433.63 1547.5,433.5 Z"/></g>
<g><path style="opacity:1" fill="#c1c1c1" d="M 1742.5,435.5 C 1742.83,435.5 1743.17,435.5 1743.5,435.5C 1748.09,437.03 1752.76,438.363 1757.5,439.5C 1757.5,439.833 1757.5,440.167 1757.5,440.5C 1752.03,439.789 1747.03,438.123 1742.5,435.5 Z"/></g>
<g><path style="opacity:1" fill="#bfbfbf" d="M 1535.5,436.5 C 1527.82,440.04 1519.82,442.706 1511.5,444.5C 1519.16,441.219 1527.16,438.552 1535.5,436.5 Z"/></g>
<g><path style="opacity:1" fill="#494949" d="M 1757.5,440.5 C 1757.5,440.167 1757.5,439.833 1757.5,439.5C 1760.72,439.345 1763.38,440.345 1765.5,442.5C 1762.89,441.629 1760.22,440.963 1757.5,440.5 Z"/></g>
<g><path style="opacity:1" fill="#6c6b6c" d="M 1190.5,436.5 C 1188.97,438.939 1186.97,440.939 1184.5,442.5C 1185.6,439.614 1187.6,437.614 1190.5,436.5 Z"/></g>
<g><path style="opacity:1" fill="#595959" d="M 2086.5,437.5 C 2089.24,439.239 2091.24,441.573 2092.5,444.5C 2089.76,442.761 2087.76,440.427 2086.5,437.5 Z"/></g>
<g><path style="opacity:1" fill="#cbcbcb" d="M 2086.5,437.5 C 2086.5,437.167 2086.5,436.833 2086.5,436.5C 2093.46,439.714 2098.13,445.047 2100.5,452.5C 2098.61,451.027 2096.94,449.36 2095.5,447.5C 2095.19,445.856 2094.19,444.856 2092.5,444.5C 2091.24,441.573 2089.24,439.239 2086.5,437.5 Z"/></g>
<g><path style="opacity:1" fill="#a8a8a8" d="M 1511.5,444.5 C 1509.06,445.871 1506.4,446.871 1503.5,447.5C 1505.62,445.345 1508.28,444.345 1511.5,444.5 Z"/></g>
<g><path style="opacity:1" fill="#646464" d="M 2095.5,447.5 C 2096.94,449.36 2098.61,451.027 2100.5,452.5C 2100.83,453.5 2101.5,454.167 2102.5,454.5C 2102.5,455.167 2102.5,455.833 2102.5,456.5C 2098.99,454.332 2096.65,451.332 2095.5,447.5 Z"/></g>
<g><path style="opacity:1" fill="#c1c1c1" d="M 2102.5,454.5 C 2105.47,454.746 2106.8,456.412 2106.5,459.5C 2105.83,459.5 2105.17,459.5 2104.5,459.5C 2103.09,459.027 2102.43,458.027 2102.5,456.5C 2102.5,455.833 2102.5,455.167 2102.5,454.5 Z"/></g>
<g><path style="opacity:1" fill="#bebebe" d="M 1482.5,455.5 C 1477.51,459.493 1471.84,462.16 1465.5,463.5C 1470.74,460.051 1476.4,457.384 1482.5,455.5 Z"/></g>
<g><path style="opacity:1" fill="#6a6a6a" d="M 2104.5,459.5 C 2105.17,459.5 2105.83,459.5 2106.5,459.5C 2107.5,461.5 2108.5,463.5 2109.5,465.5C 2106.74,464.407 2105.07,462.407 2104.5,459.5 Z"/></g>
<g><path style="opacity:1" fill="#c0c0c0" d="M 2109.5,465.5 C 2112.15,467.811 2114.81,470.144 2117.5,472.5C 2121.25,476.99 2124.25,481.99 2126.5,487.5C 2123.49,482.504 2119.83,478.17 2115.5,474.5C 2114.24,471.573 2112.24,469.239 2109.5,467.5C 2109.5,466.833 2109.5,466.167 2109.5,465.5 Z"/></g>
<g><path style="opacity:1" fill="#4a4a4a" d="M 2109.5,467.5 C 2112.24,469.239 2114.24,471.573 2115.5,474.5C 2112.76,472.761 2110.76,470.427 2109.5,467.5 Z"/></g>
<g><path style="opacity:1" fill="#6a6a6a" d="M 1102.5,483.5 C 1104.1,484.287 1104.77,485.62 1104.5,487.5C 1103.33,486.486 1102.66,485.153 1102.5,483.5 Z"/></g>
<g><path style="opacity:1" fill="#575656" d="M 2115.5,474.5 C 2119.83,478.17 2123.49,482.504 2126.5,487.5C 2129.56,493.952 2133.4,499.952 2138,505.5C 2138.49,506.793 2138.66,508.127 2138.5,509.5C 2130.09,498.365 2122.43,486.698 2115.5,474.5 Z"/></g>
<g><path style="opacity:1" fill="#6b696a" d="M 2138.5,509.5 C 2145.29,516.843 2150.63,525.176 2154.5,534.5C 2152.67,532.868 2150.84,531.201 2149,529.5C 2145.39,522.817 2141.89,516.151 2138.5,509.5 Z"/></g>
<g><path style="opacity:1" fill="#494949" d="M 1902.5,521.5 C 1904.75,522.08 1906.42,523.413 1907.5,525.5C 1905.25,524.92 1903.58,523.587 1902.5,521.5 Z"/></g>
<g><path style="opacity:1" fill="#949393" d="M 2154.5,534.5 C 2155.46,534.953 2156.29,535.619 2157,536.5C 2158.36,540.759 2160.19,544.759 2162.5,548.5C 2161.17,547.5 2159.83,546.5 2158.5,545.5C 2156.88,541.926 2155.54,538.259 2154.5,534.5 Z"/></g>
<g><path style="opacity:1" fill="#585758" d="M 2158.5,545.5 C 2159.83,546.5 2161.17,547.5 2162.5,548.5C 2162.83,552.021 2164.33,555.021 2167,557.5C 2167.61,559.154 2168.11,560.821 2168.5,562.5C 2164.42,557.387 2161.09,551.72 2158.5,545.5 Z"/></g>
<g><path style="opacity:1" fill="#9e9e9e" d="M 1932.5,551.5 C 1934.91,552.911 1936.58,554.911 1937.5,557.5C 1935.09,556.089 1933.42,554.089 1932.5,551.5 Z"/></g>
<g><path style="opacity:1" fill="#a0a0a0" d="M 1939.5,559.5 C 1941.59,560.585 1942.92,562.251 1943.5,564.5C 1941.41,563.415 1940.08,561.749 1939.5,559.5 Z"/></g>
<g><path style="opacity:1" fill="#9b9b9b" d="M 1943.5,564.5 C 1945.91,565.911 1947.58,567.911 1948.5,570.5C 1946.09,569.089 1944.42,567.089 1943.5,564.5 Z"/></g>
<g><path style="opacity:1" fill="#7f7f7f" d="M 1855.5,578.5 C 1855.38,577.414 1854.71,576.747 1853.5,576.5C 1851.24,577.467 1848.9,578.134 1846.5,578.5C 1849.25,576.025 1852.58,575.025 1856.5,575.5C 1856.74,576.791 1856.4,577.791 1855.5,578.5 Z"/></g>
<g><path style="opacity:1" fill="#a4a4a4" d="M 1951.5,574.5 C 1953.59,575.585 1954.92,577.251 1955.5,579.5C 1953.41,578.415 1952.08,576.749 1951.5,574.5 Z"/></g>
<g><path style="opacity:1" fill="#000000" d="M 1855.5,578.5 C 1854.89,579.391 1854.56,580.391 1854.5,581.5C 1851.71,584.655 1849.71,588.322 1848.5,592.5C 1846.75,594.033 1845.75,596.033 1845.5,598.5C 1843.46,599.911 1842.46,601.911 1842.5,604.5C 1841.5,604.47 1840.84,604.97 1840.5,606C 1838.7,609.766 1837.03,613.599 1835.5,617.5C 1833.75,619.033 1832.75,621.033 1832.5,623.5C 1827.81,631.56 1823.47,639.893 1819.5,648.5C 1818.1,650.255 1817.1,652.255 1816.5,654.5C 1813.37,658.671 1811.03,663.338 1809.5,668.5C 1807.23,670.612 1805.9,673.279 1805.5,676.5C 1803.75,678.033 1802.75,680.033 1802.5,682.5C 1801.26,683.965 1800.26,685.632 1799.5,687.5C 1797.75,689.033 1796.75,691.033 1796.5,693.5C 1794.75,695.033 1793.75,697.033 1793.5,699.5C 1792.89,700.391 1792.56,701.391 1792.5,702.5C 1789.53,705.087 1787.53,708.42 1786.5,712.5C 1786.5,712.833 1786.5,713.167 1786.5,713.5C 1784.75,714.659 1783.75,716.326 1783.5,718.5C 1783.5,718.833 1783.5,719.167 1783.5,719.5C 1781.59,720.486 1780.59,722.152 1780.5,724.5C 1778.23,726.612 1776.9,729.279 1776.5,732.5C 1774.75,734.033 1773.75,736.033 1773.5,738.5C 1770.37,742.671 1768.03,747.338 1766.5,752.5C 1764.75,753.659 1763.75,755.326 1763.5,757.5C 1761.75,759.033 1760.75,761.033 1760.5,763.5C 1758.75,765.033 1757.75,767.033 1757.5,769.5C 1753.85,774.781 1750.69,780.448 1748,786.5C 1747.51,787.793 1747.34,789.127 1747.5,790.5C 1746.83,790.5 1746.5,790.833 1746.5,791.5C 1743.39,794.468 1741.39,798.134 1740.5,802.5C 1735.85,810.534 1731.52,818.867 1727.5,827.5C 1725.75,829.033 1724.75,831.033 1724.5,833.5C 1722.13,836.904 1720.13,840.571 1718.5,844.5C 1717.77,845.708 1717.43,847.041 1717.5,848.5C 1714.53,851.087 1712.53,854.42 1711.5,858.5C 1711.5,858.833 1711.5,859.167 1711.5,859.5C 1708.03,863.031 1705.7,867.364 1704.5,872.5C 1702.8,874.566 1701.47,876.9 1700.5,879.5C 1699.46,880.93 1698.8,882.597 1698.5,884.5C 1694.41,890.351 1691.07,896.685 1688.5,903.5C 1683.77,911.58 1679.44,919.913 1675.5,928.5C 1675.67,929.492 1675.34,930.158 1674.5,930.5C 1672.84,933.789 1671.17,937.123 1669.5,940.5C 1667.75,942.033 1666.75,944.033 1666.5,946.5C 1665.66,946.842 1665.33,947.508 1665.5,948.5C 1663.75,950.033 1662.75,952.033 1662.5,954.5C 1659.81,958.557 1657.47,962.89 1655.5,967.5C 1653.99,969.181 1652.99,971.181 1652.5,973.5C 1650.75,975.033 1649.75,977.033 1649.5,979.5C 1645.23,985.614 1641.9,992.281 1639.5,999.5C 1637.75,1000.66 1636.75,1002.33 1636.5,1004.5C 1633.93,1004.72 1631.6,1005.39 1629.5,1006.5C 1629.16,1007.34 1628.49,1007.67 1627.5,1007.5C 1623.84,1007.72 1620.5,1008.72 1617.5,1010.5C 1615,1010.75 1612.5,1011.08 1610,1011.5C 1608.32,1011.61 1607.15,1012.27 1606.5,1013.5C 1606.17,1013.5 1605.83,1013.5 1605.5,1013.5C 1599.99,1014.21 1594.66,1015.54 1589.5,1017.5C 1587,1017.75 1584.5,1018.08 1582,1018.5C 1580.32,1018.61 1579.15,1019.27 1578.5,1020.5C 1574.48,1020.63 1570.81,1021.63 1567.5,1023.5C 1564.54,1024.14 1561.54,1024.64 1558.5,1025C 1557.94,1025.38 1557.61,1025.88 1557.5,1026.5C 1554.01,1026.45 1551.01,1027.45 1548.5,1029.5C 1546.38,1029.33 1544.38,1029.66 1542.5,1030.5C 1539.57,1030.57 1536.91,1031.23 1534.5,1032.5C 1533.79,1033.4 1532.79,1033.74 1531.5,1033.5C 1524.94,1035.19 1518.27,1036.69 1511.5,1038C 1509.69,1038.76 1508.02,1039.59 1506.5,1040.5C 1502.48,1040.63 1498.81,1041.63 1495.5,1043.5C 1495.17,1043.5 1494.83,1043.5 1494.5,1043.5C 1491.01,1043.45 1488.01,1044.45 1485.5,1046.5C 1484.83,1046.5 1484.17,1046.5 1483.5,1046.5C 1481.52,1046.16 1480.18,1046.82 1479.5,1048.5C 1472.5,1049.32 1465.84,1050.99 1459.5,1053.5C 1455.2,1053.75 1451.2,1054.75 1447.5,1056.5C 1446.5,1056.5 1445.5,1056.5 1444.5,1056.5C 1444.5,1055.5 1444.5,1054.5 1444.5,1053.5C 1445.88,1050.41 1447.55,1047.41 1449.5,1044.5C 1451.45,1042.52 1452.95,1040.19 1454,1037.5C 1454.81,1035.56 1455.31,1033.56 1455.5,1031.5C 1456.17,1031.5 1456.5,1031.17 1456.5,1030.5C 1458.25,1028.97 1459.25,1026.97 1459.5,1024.5C 1460.53,1022.48 1461.53,1020.48 1462.5,1018.5C 1464.41,1017.51 1465.41,1015.85 1465.5,1013.5C 1470.67,1004.48 1475.34,995.152 1479.5,985.5C 1479.66,983.847 1480.33,982.514 1481.5,981.5C 1483.76,979.469 1485.09,976.802 1485.5,973.5C 1488.29,970.345 1490.29,966.678 1491.5,962.5C 1491.33,961.508 1491.66,960.842 1492.5,960.5C 1494.25,958.967 1495.25,956.967 1495.5,954.5C 1497.35,950.821 1499.35,947.154 1501.5,943.5C 1504.06,939.842 1506.06,935.842 1507.5,931.5C 1508.28,927.722 1509.94,924.389 1512.5,921.5C 1513.87,919.75 1514.87,917.75 1515.5,915.5C 1517.17,912.123 1518.84,908.789 1520.5,905.5C 1522.77,903.388 1524.1,900.721 1524.5,897.5C 1527.09,893.331 1529.42,888.997 1531.5,884.5C 1534.01,880.818 1536.01,876.818 1537.5,872.5C 1537.83,871.833 1538.17,871.167 1538.5,870.5C 1540.25,868.967 1541.25,866.967 1541.5,864.5C 1543.45,863.965 1544.45,862.632 1544.5,860.5C 1546.64,855.415 1548.97,850.415 1551.5,845.5C 1553.25,843.967 1554.25,841.967 1554.5,839.5C 1556.35,835.802 1558.35,832.135 1560.5,828.5C 1563.63,824.329 1565.97,819.662 1567.5,814.5C 1569.25,812.967 1570.25,810.967 1570.5,808.5C 1573.37,804.086 1575.71,799.419 1577.5,794.5C 1579.25,792.967 1580.25,790.967 1580.5,788.5C 1582.57,786.682 1583.9,784.349 1584.5,781.5C 1586.01,779.819 1587.01,777.819 1587.5,775.5C 1590.49,769.837 1593.49,764.17 1596.5,758.5C 1599.59,755.554 1601.59,751.887 1602.5,747.5C 1602.56,746.391 1602.89,745.391 1603.5,744.5C 1605.4,741.701 1607.07,738.701 1608.5,735.5C 1611.45,729.939 1614.11,724.273 1616.5,718.5C 1618.41,717.514 1619.41,715.848 1619.5,713.5C 1623.8,708.664 1626.8,702.997 1628.5,696.5C 1629.32,693.52 1630.66,690.853 1632.5,688.5C 1634.25,687.341 1635.25,685.674 1635.5,683.5C 1636.72,679.294 1638.38,675.294 1640.5,671.5C 1643.42,668.79 1645.42,665.457 1646.5,661.5C 1646.5,661.167 1646.5,660.833 1646.5,660.5C 1648.25,658.967 1649.25,656.967 1649.5,654.5C 1651.05,653.232 1652.05,651.565 1652.5,649.5C 1653.76,647.71 1655.26,646.043 1657,644.5C 1657.49,643.207 1657.66,641.873 1657.5,640.5C 1658.91,636.688 1660.57,633.022 1662.5,629.5C 1664.46,627.688 1666.79,626.688 1669.5,626.5C 1671.9,626.741 1673.9,626.074 1675.5,624.5C 1676.83,624.167 1678.17,623.833 1679.5,623.5C 1681.9,623.741 1683.9,623.074 1685.5,621.5C 1686.17,621.5 1686.83,621.5 1687.5,621.5C 1690.4,620.871 1693.06,619.871 1695.5,618.5C 1702.83,616.833 1710.17,615.166 1717.5,613.5C 1719.9,613.741 1721.9,613.074 1723.5,611.5C 1724.83,611.167 1726.17,610.833 1727.5,610.5C 1737.74,608.441 1747.74,605.774 1757.5,602.5C 1763.31,600.544 1769.31,598.877 1775.5,597.5C 1777.9,597.741 1779.9,597.074 1781.5,595.5C 1785.88,594.624 1790.21,593.624 1794.5,592.5C 1799.46,591.784 1804.13,590.451 1808.5,588.5C 1813.15,587.503 1817.82,586.503 1822.5,585.5C 1823.6,584.824 1824.6,584.158 1825.5,583.5C 1832.34,581.604 1839.34,579.938 1846.5,578.5C 1848.9,578.134 1851.24,577.467 1853.5,576.5C 1854.71,576.747 1855.38,577.414 1855.5,578.5 Z"/></g>
<g><path style="opacity:1" fill="#b8b8b8" d="M 2168.5,562.5 C 2171.78,565.677 2174.61,569.344 2177,573.5C 2178.4,580.797 2180.57,587.797 2183.5,594.5C 2182.41,592.651 2181.07,590.984 2179.5,589.5C 2176.04,580.466 2172.37,571.466 2168.5,562.5 Z"/></g>
<g><path style="opacity:1" fill="#797979" d="M 1825.5,583.5 C 1824.6,584.158 1823.6,584.824 1822.5,585.5C 1817.82,586.503 1813.15,587.503 1808.5,588.5C 1808.61,587.883 1808.94,587.383 1809.5,587C 1814.99,586.145 1820.33,584.978 1825.5,583.5 Z"/></g>
<g><path style="opacity:1" fill="#5c5c5c" d="M 1808.5,588.5 C 1804.13,590.451 1799.46,591.784 1794.5,592.5C 1798.8,590.254 1803.47,588.92 1808.5,588.5 Z"/></g>
<g><path style="opacity:1" fill="#909090" d="M 1854.5,581.5 C 1853.29,585.678 1851.29,589.345 1848.5,592.5C 1849.71,588.322 1851.71,584.655 1854.5,581.5 Z"/></g>
<g><path style="opacity:1" fill="#656565" d="M 1781.5,595.5 C 1779.9,597.074 1777.9,597.741 1775.5,597.5C 1777.1,595.926 1779.1,595.259 1781.5,595.5 Z"/></g>
<g><path style="opacity:1" fill="#8f8f8f" d="M 1848.5,592.5 C 1848.25,594.967 1847.25,596.967 1845.5,598.5C 1845.75,596.033 1846.75,594.033 1848.5,592.5 Z"/></g>
<g><path style="opacity:1" fill="#747474" d="M 2179.5,589.5 C 2181.07,590.984 2182.41,592.651 2183.5,594.5C 2184.93,596.558 2185.6,598.892 2185.5,601.5C 2184.83,601.167 2184.17,600.833 2183.5,600.5C 2181.89,596.942 2180.55,593.275 2179.5,589.5 Z"/></g>
<g><path style="opacity:1" fill="#878787" d="M 1971.5,602.5 C 1972.91,602.973 1973.57,603.973 1973.5,605.5C 1972.09,605.027 1971.43,604.027 1971.5,602.5 Z"/></g>
<g><path style="opacity:1" fill="#3b3b3b" d="M 2183.5,600.5 C 2184.17,600.833 2184.83,601.167 2185.5,601.5C 2186.11,602.391 2186.44,603.391 2186.5,604.5C 2187.7,608.11 2188.7,611.777 2189.5,615.5C 2187.13,610.735 2185.13,605.735 2183.5,600.5 Z"/></g>
<g><path style="opacity:1" fill="#5d5d5d" d="M 1757.5,602.5 C 1747.74,605.774 1737.74,608.441 1727.5,610.5C 1734.09,608.472 1740.75,606.305 1747.5,604C 1750.76,602.957 1754.09,602.457 1757.5,602.5 Z"/></g>
<g><path style="opacity:1" fill="#525252" d="M 1723.5,611.5 C 1721.9,613.074 1719.9,613.741 1717.5,613.5C 1719.1,611.926 1721.1,611.259 1723.5,611.5 Z"/></g>
<g><path style="opacity:1" fill="#9a9a9a" d="M 1842.5,604.5 C 1841.31,609.626 1838.98,613.959 1835.5,617.5C 1837.03,613.599 1838.7,609.766 1840.5,606C 1840.84,604.97 1841.5,604.47 1842.5,604.5 Z"/></g>
<g><path style="opacity:1" fill="#6c6b6b" d="M 2186.5,604.5 C 2187.12,604.611 2187.62,604.944 2188,605.5C 2190.84,615.851 2194.34,625.851 2198.5,635.5C 2199.37,638.789 2200.04,642.123 2200.5,645.5C 2196.46,635.729 2192.8,625.729 2189.5,615.5C 2188.7,611.777 2187.7,608.11 2186.5,604.5 Z"/></g>
<g><path style="opacity:1" fill="#979797" d="M 1695.5,618.5 C 1693.06,619.871 1690.4,620.871 1687.5,621.5C 1689.62,619.345 1692.28,618.345 1695.5,618.5 Z"/></g>
<g><path style="opacity:1" fill="#656565" d="M 1685.5,621.5 C 1683.9,623.074 1681.9,623.741 1679.5,623.5C 1681.1,621.926 1683.1,621.259 1685.5,621.5 Z"/></g>
<g><path style="opacity:1" fill="#7e7e7e" d="M 1835.5,617.5 C 1835.25,619.967 1834.25,621.967 1832.5,623.5C 1832.75,621.033 1833.75,619.033 1835.5,617.5 Z"/></g>
<g><path style="opacity:1" fill="#a8a8a8" d="M 1669.5,625.5 C 1669.5,625.833 1669.5,626.167 1669.5,626.5C 1666.79,626.688 1664.46,627.688 1662.5,629.5C 1662.54,628.417 1662.87,627.417 1663.5,626.5C 1665.4,625.534 1667.4,625.201 1669.5,625.5 Z"/></g>
<g><path style="opacity:1" fill="#525252" d="M 1675.5,624.5 C 1673.9,626.074 1671.9,626.741 1669.5,626.5C 1669.5,626.167 1669.5,625.833 1669.5,625.5C 1671.44,624.85 1673.44,624.517 1675.5,624.5 Z"/></g>
<g><path style="opacity:1" fill="#9e9e9e" d="M 1981.5,619.5 C 1983.94,621.121 1985.28,623.454 1985.5,626.5C 1983.8,624.434 1982.47,622.1 1981.5,619.5 Z"/></g>
<g><path style="opacity:1" fill="#848484" d="M 1985.5,626.5 C 1986.91,626.973 1987.57,627.973 1987.5,629.5C 1986.09,629.027 1985.43,628.027 1985.5,626.5 Z"/></g>
<g><path style="opacity:1" fill="#919191" d="M 1832.5,623.5 C 1829.38,631.748 1825.71,639.748 1821.5,647.5C 1821.04,648.298 1820.38,648.631 1819.5,648.5C 1823.47,639.893 1827.81,631.56 1832.5,623.5 Z"/></g>
<g><path style="opacity:1" fill="#353535" d="M 1657.5,640.5 C 1657.66,641.873 1657.49,643.207 1657,644.5C 1655.26,646.043 1653.76,647.71 1652.5,649.5C 1652.5,649.167 1652.5,648.833 1652.5,648.5C 1653.73,645.491 1655.4,642.824 1657.5,640.5 Z"/></g>
<g><path style="opacity:1" fill="#727272" d="M 2200.5,645.5 C 2202.07,647.102 2202.74,649.102 2202.5,651.5C 2200.93,649.898 2200.26,647.898 2200.5,645.5 Z"/></g>
<g><path style="opacity:1" fill="#9c9c9c" d="M 1997.5,649.5 C 1999.58,651.684 2000.58,654.351 2000.5,657.5C 1998.42,655.316 1997.42,652.649 1997.5,649.5 Z"/></g>
<g><path style="opacity:1" fill="#8d8d8d" d="M 1652.5,648.5 C 1652.5,648.833 1652.5,649.167 1652.5,649.5C 1652.05,651.565 1651.05,653.232 1649.5,654.5C 1649.75,652.033 1650.75,650.033 1652.5,648.5 Z"/></g>
<g><path style="opacity:1" fill="#686868" d="M 2202.5,651.5 C 2206.86,665.27 2210.86,679.27 2214.5,693.5C 2215.49,699.459 2216.16,705.459 2216.5,711.5C 2211.83,691.552 2207.17,671.552 2202.5,651.5 Z"/></g>
<g><path style="opacity:1" fill="#818181" d="M 1649.5,654.5 C 1649.25,656.967 1648.25,658.967 1646.5,660.5C 1646.75,658.033 1647.75,656.033 1649.5,654.5 Z"/></g>
<g><path style="opacity:1" fill="#9e9e9e" d="M 2001.5,658.5 C 2003.07,660.102 2003.74,662.102 2003.5,664.5C 2001.93,662.898 2001.26,660.898 2001.5,658.5 Z"/></g>
<g><path style="opacity:1" fill="#808080" d="M 1646.5,661.5 C 1645.42,665.457 1643.42,668.79 1640.5,671.5C 1641.81,668.514 1643.14,665.514 1644.5,662.5C 1644.96,661.702 1645.62,661.369 1646.5,661.5 Z"/></g>
<g><path style="opacity:1" fill="#929292" d="M 1816.5,654.5 C 1814.97,659.662 1812.63,664.329 1809.5,668.5C 1811.03,663.338 1813.37,658.671 1816.5,654.5 Z"/></g>
<g><path style="opacity:1" fill="#959595" d="M 1809.5,668.5 C 1809.1,671.721 1807.77,674.388 1805.5,676.5C 1805.9,673.279 1807.23,670.612 1809.5,668.5 Z"/></g>
<g><path style="opacity:1" fill="#d9d9d9" d="M 2198.5,635.5 C 2199.8,636.64 2200.97,637.973 2202,639.5C 2204.03,649.075 2206.7,658.409 2210,667.5C 2211.55,676.204 2213.05,684.871 2214.5,693.5C 2210.86,679.27 2206.86,665.27 2202.5,651.5C 2202.74,649.102 2202.07,647.102 2200.5,645.5C 2200.04,642.123 2199.37,638.789 2198.5,635.5 Z"/></g>
<g><path style="opacity:1" fill="#9e9e9e" d="M 1805.5,676.5 C 1805.25,678.967 1804.25,680.967 1802.5,682.5C 1802.75,680.033 1803.75,678.033 1805.5,676.5 Z"/></g>
<g><path style="opacity:1" fill="#6d6d6d" d="M 2009.5,679.5 C 2012.32,683.63 2013.99,688.297 2014.5,693.5C 2012.46,689.06 2010.8,684.393 2009.5,679.5 Z"/></g>
<g><path style="opacity:1" fill="#4d4d4d" d="M 1635.5,683.5 C 1635.25,685.674 1634.25,687.341 1632.5,688.5C 1632.59,686.152 1633.59,684.486 1635.5,683.5 Z"/></g>
<g><path style="opacity:1" fill="#7d7d7d" d="M 1799.5,687.5 C 1799.25,689.967 1798.25,691.967 1796.5,693.5C 1796.75,691.033 1797.75,689.033 1799.5,687.5 Z"/></g>
<g><path style="opacity:1" fill="#818181" d="M 1796.5,693.5 C 1796.25,695.967 1795.25,697.967 1793.5,699.5C 1793.75,697.033 1794.75,695.033 1796.5,693.5 Z"/></g>
<g><path style="opacity:1" fill="#414141" d="M 1628.5,696.5 C 1626.8,702.997 1623.8,708.664 1619.5,713.5C 1621.15,709.507 1622.82,705.507 1624.5,701.5C 1625.84,699.725 1627.17,698.059 1628.5,696.5 Z"/></g>
<g><path style="opacity:1" fill="#979797" d="M 1792.5,702.5 C 1791.19,705.486 1789.86,708.486 1788.5,711.5C 1788.04,712.298 1787.38,712.631 1786.5,712.5C 1787.53,708.42 1789.53,705.087 1792.5,702.5 Z"/></g>
<g><path style="opacity:1" fill="#8b8b8b" d="M 2018.5,707.5 C 2020.07,709.102 2020.74,711.102 2020.5,713.5C 2018.93,711.898 2018.26,709.898 2018.5,707.5 Z"/></g>
<g><path style="opacity:1" fill="#656565" d="M 1619.5,713.5 C 1619.41,715.848 1618.41,717.514 1616.5,718.5C 1616.75,716.326 1617.75,714.659 1619.5,713.5 Z"/></g>
<g><path style="opacity:1" fill="#999999" d="M 1786.5,713.5 C 1786.41,715.848 1785.41,717.514 1783.5,718.5C 1783.75,716.326 1784.75,714.659 1786.5,713.5 Z"/></g>
<g><path style="opacity:1" fill="#8b8b8b" d="M 2020.5,714.5 C 2021.92,716.515 2022.59,718.848 2022.5,721.5C 2021.08,719.485 2020.41,717.152 2020.5,714.5 Z"/></g>
<g><path style="opacity:1" fill="#909090" d="M 1783.5,719.5 C 1783.22,721.728 1782.22,723.395 1780.5,724.5C 1780.59,722.152 1781.59,720.486 1783.5,719.5 Z"/></g>
<g><path style="opacity:1" fill="#606060" d="M 2022.5,721.5 C 2023.92,723.515 2024.59,725.848 2024.5,728.5C 2023.08,726.485 2022.41,724.152 2022.5,721.5 Z"/></g>
<g><path style="opacity:1" fill="#8b8b8b" d="M 1780.5,724.5 C 1780.35,727.868 1779.01,730.535 1776.5,732.5C 1776.9,729.279 1778.23,726.612 1780.5,724.5 Z"/></g>
<g><path style="opacity:1" fill="#686767" d="M 2216.5,711.5 C 2218.13,713.026 2218.96,715.026 2219,717.5C 2219.83,723.477 2220.33,729.477 2220.5,735.5C 2219.11,733.123 2218.28,730.457 2218,727.5C 2217.61,722.146 2217.11,716.812 2216.5,711.5 Z"/></g>
<g><path style="opacity:1" fill="#858585" d="M 1776.5,732.5 C 1776.25,734.967 1775.25,736.967 1773.5,738.5C 1773.75,736.033 1774.75,734.033 1776.5,732.5 Z"/></g>
<g><path style="opacity:1" fill="#a3a3a3" d="M 2024.5,730.5 C 2026.57,736.558 2027.9,742.892 2028.5,749.5C 2028.5,750.833 2028.5,752.167 2028.5,753.5C 2026.4,746.082 2025.07,738.416 2024.5,730.5 Z"/></g>
<g><path style="opacity:1" fill="#000000" d="M 1121.5,1402.5 C 1047,1403.5 972.335,1403.83 897.5,1403.5C 785.343,1209.19 673.676,1014.53 562.5,819.5C 610.33,818.501 658.33,818.168 706.5,818.5C 722.17,818.667 737.837,818.5 753.5,818C 756.365,817.817 759.031,817.317 761.5,816.5C 762.568,815.566 763.901,815.232 765.5,815.5C 768.85,815.665 772.183,815.498 775.5,815C 777.066,814.392 778.4,813.558 779.5,812.5C 823.541,799.288 859.541,774.455 887.5,738C 888.483,737.409 889.15,737.743 889.5,739C 912.597,804.79 935.597,870.624 958.5,936.5C 958.124,938.383 957.124,939.883 955.5,941C 932.435,956.872 908.102,970.705 882.5,982.5C 898.171,1007.84 913.337,1033.5 928,1059.5C 992.512,1173.86 1057.01,1288.19 1121.5,1402.5 Z"/></g>
<g><path style="opacity:1" fill="#7f7f7f" d="M 1608.5,735.5 C 1607.07,738.701 1605.4,741.701 1603.5,744.5C 1603.89,740.716 1605.56,737.716 1608.5,735.5 Z"/></g>
<g><path style="opacity:1" fill="#a2a2a2" d="M 1773.5,738.5 C 1771.97,743.662 1769.63,748.329 1766.5,752.5C 1768.03,747.338 1770.37,742.671 1773.5,738.5 Z"/></g>
<g><path style="opacity:1" fill="#353535" d="M 2028.5,749.5 C 2030.14,753.21 2030.8,757.21 2030.5,761.5C 2029.47,759.039 2028.8,756.373 2028.5,753.5C 2028.5,752.167 2028.5,750.833 2028.5,749.5 Z"/></g>
<g><path style="opacity:1" fill="#9b9b9b" d="M 1766.5,752.5 C 1766.41,754.848 1765.41,756.514 1763.5,757.5C 1763.75,755.326 1764.75,753.659 1766.5,752.5 Z"/></g>
<g><path style="opacity:1" fill="#494949" d="M 1602.5,747.5 C 1601.59,751.887 1599.59,755.554 1596.5,758.5C 1597.78,754.279 1599.78,750.612 1602.5,747.5 Z"/></g>
<g><path style="opacity:1" fill="#9d9d9d" d="M 2220.5,735.5 C 2222.77,744.6 2224.43,753.933 2225.5,763.5C 2226.06,773.491 2226.39,783.491 2226.5,793.5C 2226.17,793.5 2225.83,793.5 2225.5,793.5C 2225.38,778.243 2224.05,763.243 2221.5,748.5C 2221.53,744.131 2221.2,739.798 2220.5,735.5 Z"/></g>
<g><path style="opacity:1" fill="#717171" d="M 1763.5,757.5 C 1763.25,759.967 1762.25,761.967 1760.5,763.5C 1760.75,761.033 1761.75,759.033 1763.5,757.5 Z"/></g>
<g><path style="opacity:1" fill="#434343" d="M 2221.5,748.5 C 2224.05,763.243 2225.38,778.243 2225.5,793.5C 2225.5,797.5 2225.5,801.5 2225.5,805.5C 2224.26,786.644 2222.93,767.644 2221.5,748.5 Z"/></g>
<g><path style="opacity:1" fill="#7e7e7e" d="M 1760.5,763.5 C 1760.25,765.967 1759.25,767.967 1757.5,769.5C 1757.75,767.033 1758.75,765.033 1760.5,763.5 Z"/></g>
<g><path style="opacity:1" fill="#8a8a8a" d="M 1587.5,775.5 C 1587.01,777.819 1586.01,779.819 1584.5,781.5C 1584.46,778.911 1585.46,776.911 1587.5,775.5 Z"/></g>
<g><path style="opacity:1" fill="#989898" d="M 1757.5,769.5 C 1754.92,776.922 1751.59,783.922 1747.5,790.5C 1747.34,789.127 1747.51,787.793 1748,786.5C 1750.69,780.448 1753.85,774.781 1757.5,769.5 Z"/></g>
<g><path style="opacity:1" fill="#8f8f8f" d="M 1580.5,788.5 C 1580.25,790.967 1579.25,792.967 1577.5,794.5C 1577.75,792.033 1578.75,790.033 1580.5,788.5 Z"/></g>
<g><path style="opacity:1" fill="#a7a7a7" d="M 1746.5,791.5 C 1745.71,795.992 1743.71,799.659 1740.5,802.5C 1741.39,798.134 1743.39,794.468 1746.5,791.5 Z"/></g>
<g><path style="opacity:1" fill="#716f70" d="M 2225.5,793.5 C 2225.83,793.5 2226.17,793.5 2226.5,793.5C 2226.91,815.693 2226.25,837.693 2224.5,859.5C 2224.7,847.495 2225.03,835.495 2225.5,823.5C 2225.5,817.5 2225.5,811.5 2225.5,805.5C 2225.5,801.5 2225.5,797.5 2225.5,793.5 Z"/></g>
<g><path style="opacity:1" fill="#616161" d="M 2032.5,783.5 C 2035.13,803.164 2035.13,822.831 2032.5,842.5C 2033.81,822.834 2033.81,803.167 2032.5,783.5 Z"/></g>
<g><path style="opacity:1" fill="#9c9c9c" d="M 1740.5,802.5 C 1737.42,810.673 1733.75,818.673 1729.5,826.5C 1729.04,827.298 1728.38,827.631 1727.5,827.5C 1731.52,818.867 1735.85,810.534 1740.5,802.5 Z"/></g>
<g><path style="opacity:1" fill="#6d6d6d" d="M 1570.5,808.5 C 1570.25,810.967 1569.25,812.967 1567.5,814.5C 1567.75,812.033 1568.75,810.033 1570.5,808.5 Z"/></g>
<g><path style="opacity:1" fill="#3a3a3a" d="M 779.5,812.5 C 778.4,813.558 777.066,814.392 775.5,815C 772.183,815.498 768.85,815.665 765.5,815.5C 769.942,814.01 774.609,813.01 779.5,812.5 Z"/></g>
<g><path style="opacity:1" fill="#7b7b7b" d="M 706.5,817.5 C 706.5,817.833 706.5,818.167 706.5,818.5C 658.33,818.168 610.33,818.501 562.5,819.5C 561.957,819.44 561.624,819.107 561.5,818.5C 609.829,817.5 658.162,817.167 706.5,817.5 Z"/></g>
<g><path style="opacity:1" fill="#555555" d="M 761.5,816.5 C 759.031,817.317 756.365,817.817 753.5,818C 737.837,818.5 722.17,818.667 706.5,818.5C 706.5,818.167 706.5,817.833 706.5,817.5C 724.849,817.703 743.182,817.369 761.5,816.5 Z"/></g>
<g><path style="opacity:1" fill="#d5d5d5" d="M 167.5,819.5 C 156.5,819.5 145.5,819.5 134.5,819.5C 134.263,820.791 134.596,821.791 135.5,822.5C 136.167,824.5 136.833,826.5 137.5,828.5C 135.61,828.703 134.11,828.037 133,826.5C 132.231,823.901 132.398,821.401 133.5,819C 145.008,818.174 156.341,818.341 167.5,819.5 Z"/></g>
<g><path style="opacity:1" fill="#000000" d="M 364.5,821.5 C 475.922,1014.67 586.589,1208.34 696.5,1402.5C 626.833,1403.17 557.167,1403.83 487.5,1404.5C 481.242,1404.81 475.076,1404.48 469,1403.5C 442.059,1356.61 414.892,1309.94 387.5,1263.5C 385.336,1258.5 382.669,1253.83 379.5,1249.5C 299.083,1109 218.416,968.662 137.5,828.5C 136.833,826.5 136.167,824.5 135.5,822.5C 146.647,821.168 158.147,820.501 170,820.5C 234.83,821.356 299.664,821.69 364.5,821.5 Z"/></g>
<g><path style="opacity:1" fill="#272727" d="M 167.5,819.5 C 233.336,819.63 299.003,820.297 364.5,821.5C 299.664,821.69 234.83,821.356 170,820.5C 158.147,820.501 146.647,821.168 135.5,822.5C 134.596,821.791 134.263,820.791 134.5,819.5C 145.5,819.5 156.5,819.5 167.5,819.5 Z"/></g>
<g><path style="opacity:1" fill="#575757" d="M 1567.5,814.5 C 1565.97,819.662 1563.63,824.329 1560.5,828.5C 1562.03,823.338 1564.37,818.671 1567.5,814.5 Z"/></g>
<g><path style="opacity:1" fill="#686868" d="M 1225.5,827.5 C 1226.74,829.214 1227.41,831.214 1227.5,833.5C 1225.93,831.898 1225.26,829.898 1225.5,827.5 Z"/></g>
<g><path style="opacity:1" fill="#767676" d="M 1727.5,827.5 C 1727.25,829.967 1726.25,831.967 1724.5,833.5C 1724.75,831.033 1725.75,829.033 1727.5,827.5 Z"/></g>
<g><path style="opacity:1" fill="#7a7a7a" d="M 1724.5,833.5 C 1723.78,837.945 1721.78,841.612 1718.5,844.5C 1720.13,840.571 1722.13,836.904 1724.5,833.5 Z"/></g>
<g><path style="opacity:1" fill="#201f1f" d="M 2225.5,823.5 C 2225.03,835.495 2224.7,847.495 2224.5,859.5C 2224.5,860.167 2224.5,860.833 2224.5,861.5C 2224.17,861.5 2223.83,861.5 2223.5,861.5C 2221.86,848.576 2222.53,835.91 2225.5,823.5 Z"/></g>
<g><path style="opacity:1" fill="#4c4c4c" d="M 1228.5,836.5 C 1229.92,838.515 1230.59,840.848 1230.5,843.5C 1228.84,841.562 1228.17,839.228 1228.5,836.5 Z"/></g>
<g><path style="opacity:1" fill="#777777" d="M 1554.5,839.5 C 1554.25,841.967 1553.25,843.967 1551.5,845.5C 1551.75,843.033 1552.75,841.033 1554.5,839.5 Z"/></g>
<g><path style="opacity:1" fill="#9b9b9b" d="M 1717.5,848.5 C 1716.19,851.486 1714.86,854.486 1713.5,857.5C 1713.04,858.298 1712.38,858.631 1711.5,858.5C 1712.53,854.42 1714.53,851.087 1717.5,848.5 Z"/></g>
<g><path style="opacity:1" fill="#828282" d="M 1711.5,859.5 C 1709.97,863.396 1708.3,867.23 1706.5,871C 1706.16,872.03 1705.5,872.53 1704.5,872.5C 1705.7,867.364 1708.03,863.031 1711.5,859.5 Z"/></g>
<g><path style="opacity:1" fill="#545454" d="M 1544.5,860.5 C 1544.45,862.632 1543.45,863.965 1541.5,864.5C 1541.55,862.368 1542.55,861.035 1544.5,860.5 Z"/></g>
<g><path style="opacity:1" fill="#838383" d="M 1238.5,863.5 C 1240.07,865.102 1240.74,867.102 1240.5,869.5C 1238.93,867.898 1238.26,865.898 1238.5,863.5 Z"/></g>
<g><path style="opacity:1" fill="#919191" d="M 1541.5,864.5 C 1541.25,866.967 1540.25,868.967 1538.5,870.5C 1538.75,868.033 1539.75,866.033 1541.5,864.5 Z"/></g>
<g><path style="opacity:1" fill="#5c5c5c" d="M 2032.5,845.5 C 2032.99,855.134 2031.99,864.467 2029.5,873.5C 2030.51,864.026 2031.51,854.693 2032.5,845.5 Z"/></g>
<g><path style="opacity:1" fill="#dcdbdb" d="M 2225.5,763.5 C 2227.13,769.238 2227.97,775.238 2228,781.5C 2229.56,818.626 2228.23,855.626 2224,892.5C 2220.74,906.02 2218.4,919.687 2217,933.5C 2215.05,939.359 2213.71,945.359 2213,951.5C 2212.29,952.381 2211.46,953.047 2210.5,953.5C 2210.5,952.167 2210.5,950.833 2210.5,949.5C 2214.9,931.138 2218.23,912.471 2220.5,893.5C 2220.5,893.167 2220.5,892.833 2220.5,892.5C 2221.27,891.737 2221.77,890.737 2222,889.5C 2223.1,880.185 2223.94,870.852 2224.5,861.5C 2224.5,860.833 2224.5,860.167 2224.5,859.5C 2226.25,837.693 2226.91,815.693 2226.5,793.5C 2226.39,783.491 2226.06,773.491 2225.5,763.5 Z"/></g>
<g><path style="opacity:1" fill="#7c7c7c" d="M 1537.5,872.5 C 1536.01,876.818 1534.01,880.818 1531.5,884.5C 1532.48,879.871 1534.48,875.871 1537.5,872.5 Z"/></g>
<g><path style="opacity:1" fill="#797979" d="M 1704.5,872.5 C 1704.28,875.546 1702.94,877.879 1700.5,879.5C 1701.47,876.9 1702.8,874.566 1704.5,872.5 Z"/></g>
<g><path style="opacity:1" fill="#707070" d="M 2223.5,861.5 C 2223.83,861.5 2224.17,861.5 2224.5,861.5C 2223.94,870.852 2223.1,880.185 2222,889.5C 2221.77,890.737 2221.27,891.737 2220.5,892.5C 2221.13,881.992 2222.13,871.658 2223.5,861.5 Z"/></g>
<g><path style="opacity:1" fill="#656565" d="M 2029.5,873.5 C 2029.76,879.194 2028.76,884.527 2026.5,889.5C 2026.96,883.939 2027.96,878.606 2029.5,873.5 Z"/></g>
<g><path style="opacity:1" fill="#909090" d="M 1698.5,884.5 C 1696.03,890.565 1693.37,896.565 1690.5,902.5C 1690.04,903.298 1689.38,903.631 1688.5,903.5C 1691.07,896.685 1694.41,890.351 1698.5,884.5 Z"/></g>
<g><path style="opacity:1" fill="#939393" d="M 1249.5,891.5 C 1251.27,893.792 1252.27,896.458 1252.5,899.5C 1250.6,897.302 1249.6,894.636 1249.5,891.5 Z"/></g>
<g><path style="opacity:1" fill="#939393" d="M 1524.5,897.5 C 1524.1,900.721 1522.77,903.388 1520.5,905.5C 1521.27,902.504 1522.6,899.837 1524.5,897.5 Z"/></g>
<g><path style="opacity:1" fill="#535253" d="M 2220.5,893.5 C 2218.23,912.471 2214.9,931.138 2210.5,949.5C 2212.99,930.563 2216.32,911.896 2220.5,893.5 Z"/></g>
<g><path style="opacity:1" fill="#525252" d="M 1254.5,903.5 C 1255.74,905.214 1256.41,907.214 1256.5,909.5C 1254.72,908.01 1254.05,906.01 1254.5,903.5 Z"/></g>
<g><path style="opacity:1" fill="#828282" d="M 1688.5,903.5 C 1685.41,912.558 1681.08,920.891 1675.5,928.5C 1679.44,919.913 1683.77,911.58 1688.5,903.5 Z"/></g>
<g><path style="opacity:1" fill="#454545" d="M 2024.5,901.5 C 2024.02,905.854 2023.35,910.188 2022.5,914.5C 2022.25,915.713 2021.59,916.38 2020.5,916.5C 2021.08,911.191 2022.41,906.191 2024.5,901.5 Z"/></g>
<g><path style="opacity:1" fill="#9b9b9b" d="M 1515.5,915.5 C 1514.87,917.75 1513.87,919.75 1512.5,921.5C 1512.39,918.784 1513.39,916.784 1515.5,915.5 Z"/></g>
<g><path style="opacity:1" fill="#717171" d="M 2016.5,930.5 C 2015.66,936.7 2013.66,942.367 2010.5,947.5C 2012.13,941.608 2014.13,935.941 2016.5,930.5 Z"/></g>
<g><path style="opacity:1" fill="#a8a8a8" d="M 1674.5,930.5 C 1674.37,934.758 1672.71,938.091 1669.5,940.5C 1671.17,937.123 1672.84,933.789 1674.5,930.5 Z"/></g>
<g><path style="opacity:1" fill="#4c4c4c" d="M 1507.5,931.5 C 1506.06,935.842 1504.06,939.842 1501.5,943.5C 1502.48,938.871 1504.48,934.871 1507.5,931.5 Z"/></g>
<g><path style="opacity:1" fill="#7c7c7c" d="M 1669.5,940.5 C 1669.25,942.967 1668.25,944.967 1666.5,946.5C 1666.75,944.033 1667.75,942.033 1669.5,940.5 Z"/></g>
<g><path style="opacity:1" fill="#888888" d="M 1665.5,948.5 C 1665.25,950.967 1664.25,952.967 1662.5,954.5C 1662.75,952.033 1663.75,950.033 1665.5,948.5 Z"/></g>
<g><path style="opacity:1" fill="#6b6b6b" d="M 1495.5,954.5 C 1495.25,956.967 1494.25,958.967 1492.5,960.5C 1492.75,958.033 1493.75,956.033 1495.5,954.5 Z"/></g>
<g><path style="opacity:1" fill="#9a9a9a" d="M 1662.5,954.5 C 1661.3,959.636 1658.97,963.969 1655.5,967.5C 1657.47,962.89 1659.81,958.557 1662.5,954.5 Z"/></g>
<g><path style="opacity:1" fill="#5c5c5c" d="M 2210.5,949.5 C 2210.5,950.833 2210.5,952.167 2210.5,953.5C 2210.63,955.292 2210.3,956.958 2209.5,958.5C 2207.4,963.974 2205.73,969.641 2204.5,975.5C 2203.69,977.261 2202.69,978.928 2201.5,980.5C 2203.93,969.881 2206.93,959.547 2210.5,949.5 Z"/></g>
<g><path style="opacity:1" fill="#7a7a7a" d="M 1491.5,962.5 C 1490.29,966.678 1488.29,970.345 1485.5,973.5C 1486.71,969.322 1488.71,965.655 1491.5,962.5 Z"/></g>
<g><path style="opacity:1" fill="#a7a7a7" d="M 1655.5,967.5 C 1655.97,970.393 1654.97,972.393 1652.5,973.5C 1652.99,971.181 1653.99,969.181 1655.5,967.5 Z"/></g>
<g><path style="opacity:1" fill="#757575" d="M 1280.5,975.5 C 1281.91,975.973 1282.57,976.973 1282.5,978.5C 1281.09,978.027 1280.43,977.027 1280.5,975.5 Z"/></g>
<g><path style="opacity:1" fill="#6e6e6e" d="M 1485.5,973.5 C 1485.09,976.802 1483.76,979.469 1481.5,981.5C 1482.28,978.455 1483.61,975.789 1485.5,973.5 Z"/></g>
<g><path style="opacity:1" fill="#7b7b7b" d="M 1652.5,973.5 C 1652.25,975.967 1651.25,977.967 1649.5,979.5C 1649.75,977.033 1650.75,975.033 1652.5,973.5 Z"/></g>
<g><path style="opacity:1" fill="#999899" d="M 2204.5,975.5 C 2203.68,980.427 2202.35,985.094 2200.5,989.5C 2200.5,988.167 2200.5,986.833 2200.5,985.5C 2200.37,983.708 2200.7,982.042 2201.5,980.5C 2202.69,978.928 2203.69,977.261 2204.5,975.5 Z"/></g>
<g><path style="opacity:1" fill="#dddddd" d="M 2209.5,958.5 C 2210.23,964.311 2209.06,969.645 2206,974.5C 2205.16,979.531 2204.16,984.531 2203,989.5C 2202.5,991.544 2201.34,992.878 2199.5,993.5C 2199.5,992.833 2199.5,992.167 2199.5,991.5C 2199.33,990.508 2199.66,989.842 2200.5,989.5C 2202.35,985.094 2203.68,980.427 2204.5,975.5C 2205.73,969.641 2207.4,963.974 2209.5,958.5 Z"/></g>
<g><path style="opacity:1" fill="#858585" d="M 1649.5,979.5 C 1646.72,986.544 1643.39,993.211 1639.5,999.5C 1641.9,992.281 1645.23,985.614 1649.5,979.5 Z"/></g>
<g><path style="opacity:1" fill="#494849" d="M 2200.5,985.5 C 2200.5,986.833 2200.5,988.167 2200.5,989.5C 2199.66,989.842 2199.33,990.508 2199.5,991.5C 2197.83,995.5 2196.17,999.5 2194.5,1003.5C 2195.53,997.085 2197.53,991.085 2200.5,985.5 Z"/></g>
<g><path style="opacity:1" fill="#9d9c9d" d="M 2199.5,991.5 C 2199.5,992.167 2199.5,992.833 2199.5,993.5C 2198.2,998.393 2196.54,1003.06 2194.5,1007.5C 2194.5,1006.17 2194.5,1004.83 2194.5,1003.5C 2196.17,999.5 2197.83,995.5 2199.5,991.5 Z"/></g>
<g><path style="opacity:1" fill="#686868" d="M 1479.5,985.5 C 1475.34,995.152 1470.67,1004.48 1465.5,1013.5C 1469.19,1003.46 1473.86,994.122 1479.5,985.5 Z"/></g>
<g><path style="opacity:1" fill="#353535" d="M 1993.5,988.5 C 1993.66,989.873 1993.49,991.207 1993,992.5C 1990.87,997.794 1988.04,1002.46 1984.5,1006.5C 1986.99,1000.18 1989.99,994.182 1993.5,988.5 Z"/></g>
<g><path style="opacity:1" fill="#949494" d="M 1639.5,999.5 C 1639.41,1001.85 1638.41,1003.51 1636.5,1004.5C 1636.75,1002.33 1637.75,1000.66 1639.5,999.5 Z"/></g>
<g><path style="opacity:1" fill="#7d7d7d" d="M 1636.5,1004.5 C 1636.39,1005.12 1636.06,1005.62 1635.5,1006C 1633.53,1006.5 1631.53,1006.66 1629.5,1006.5C 1631.6,1005.39 1633.93,1004.72 1636.5,1004.5 Z"/></g>
<g><path style="opacity:1" fill="#9e9e9e" d="M 1627.5,1007.5 C 1624.5,1009.28 1621.16,1010.28 1617.5,1010.5C 1620.5,1008.72 1623.84,1007.72 1627.5,1007.5 Z"/></g>
<g><path style="opacity:1" fill="#9c9c9c" d="M 1617.5,1010.5 C 1614.13,1012.14 1610.46,1013.14 1606.5,1013.5C 1607.15,1012.27 1608.32,1011.61 1610,1011.5C 1612.5,1011.08 1615,1010.75 1617.5,1010.5 Z"/></g>
<g><path style="opacity:1" fill="#515151" d="M 1465.5,1013.5 C 1465.41,1015.85 1464.41,1017.51 1462.5,1018.5C 1462.75,1016.33 1463.75,1014.66 1465.5,1013.5 Z"/></g>
<g><path style="opacity:1" fill="#373737" d="M 1589.5,1017.5 C 1588.5,1018.17 1587.5,1018.83 1586.5,1019.5C 1583.79,1019.58 1581.13,1019.91 1578.5,1020.5C 1579.15,1019.27 1580.32,1018.61 1582,1018.5C 1584.5,1018.08 1587,1017.75 1589.5,1017.5 Z"/></g>
<g><path style="opacity:1" fill="#c5c5c5" d="M 1605.5,1013.5 C 1604.02,1015.25 1602.02,1016.41 1599.5,1017C 1595.13,1017.74 1590.8,1018.57 1586.5,1019.5C 1587.5,1018.83 1588.5,1018.17 1589.5,1017.5C 1594.66,1015.54 1599.99,1014.21 1605.5,1013.5 Z"/></g>
<g><path style="opacity:1" fill="#474747" d="M 1578.5,1020.5 C 1575.11,1022.12 1571.45,1023.12 1567.5,1023.5C 1570.81,1021.63 1574.48,1020.63 1578.5,1020.5 Z"/></g>
<g><path style="opacity:1" fill="#dfdfdf" d="M 1081.5,981.5 C 1089.35,998.535 1096.68,1015.87 1103.5,1033.5C 1102.88,1033.61 1102.38,1033.94 1102,1034.5C 1099.17,1030.53 1097.01,1026.2 1095.5,1021.5C 1096.53,1018.3 1095.36,1015.96 1092,1014.5C 1088.18,1005.03 1084.34,995.534 1080.5,986C 1081.15,984.56 1081.48,983.06 1081.5,981.5 Z"/></g>
<g><path style="opacity:1" fill="#7a7a7a" d="M 1567.5,1023.5 C 1567.39,1024.12 1567.06,1024.62 1566.5,1025C 1563.46,1025.36 1560.46,1025.86 1557.5,1026.5C 1557.61,1025.88 1557.94,1025.38 1558.5,1025C 1561.54,1024.64 1564.54,1024.14 1567.5,1023.5 Z"/></g>
<g><path style="opacity:1" fill="#a0a0a0" d="M 1557.5,1026.5 C 1554.98,1028.32 1551.98,1029.32 1548.5,1029.5C 1551.01,1027.45 1554.01,1026.45 1557.5,1026.5 Z"/></g>
<g><path style="opacity:1" fill="#6f6f6f" d="M 2194.5,1003.5 C 2194.5,1004.83 2194.5,1006.17 2194.5,1007.5C 2191.97,1014.42 2189.64,1021.42 2187.5,1028.5C 2185.61,1033.94 2182.95,1038.94 2179.5,1043.5C 2185.07,1030.37 2190.07,1017.04 2194.5,1003.5 Z"/></g>
<g><path style="opacity:1" fill="#6b6b6b" d="M 1459.5,1024.5 C 1459.25,1026.97 1458.25,1028.97 1456.5,1030.5C 1456.75,1028.03 1457.75,1026.03 1459.5,1024.5 Z"/></g>
<g><path style="opacity:1" fill="#6b6b6b" d="M 1542.5,1030.5 C 1540.16,1032.04 1537.5,1032.71 1534.5,1032.5C 1536.91,1031.23 1539.57,1030.57 1542.5,1030.5 Z"/></g>
<g><path style="opacity:1" fill="#828282" d="M 1531.5,1033.5 C 1523.71,1037.2 1515.37,1039.53 1506.5,1040.5C 1508.02,1039.59 1509.69,1038.76 1511.5,1038C 1518.27,1036.69 1524.94,1035.19 1531.5,1033.5 Z"/></g>
<g><path style="opacity:1" fill="#cecece" d="M 2187.5,1028.5 C 2186.98,1034.56 2184.82,1039.9 2181,1044.5C 2180.57,1048.69 2179.07,1052.35 2176.5,1055.5C 2176.5,1054.17 2176.5,1052.83 2176.5,1051.5C 2178.01,1049.82 2179.01,1047.82 2179.5,1045.5C 2179.5,1044.83 2179.5,1044.17 2179.5,1043.5C 2182.95,1038.94 2185.61,1033.94 2187.5,1028.5 Z"/></g>
<g><path style="opacity:1" fill="#6b6b6b" d="M 1506.5,1040.5 C 1503.15,1042.26 1499.48,1043.26 1495.5,1043.5C 1498.81,1041.63 1502.48,1040.63 1506.5,1040.5 Z"/></g>
<g><path style="opacity:1" fill="#595959" d="M 1455.5,1031.5 C 1455.31,1033.56 1454.81,1035.56 1454,1037.5C 1452.95,1040.19 1451.45,1042.52 1449.5,1044.5C 1450.73,1039.71 1452.73,1035.37 1455.5,1031.5 Z"/></g>
<g><path style="opacity:1" fill="#5c5c5c" d="M 1494.5,1043.5 C 1491.75,1044.95 1488.75,1045.95 1485.5,1046.5C 1488.01,1044.45 1491.01,1043.45 1494.5,1043.5 Z"/></g>
<g><path style="opacity:1" fill="#a0a0a0" d="M 1483.5,1046.5 C 1482.82,1048.18 1481.48,1048.84 1479.5,1048.5C 1480.18,1046.82 1481.52,1046.16 1483.5,1046.5 Z"/></g>
<g><path style="opacity:1" fill="#606060" d="M 2179.5,1045.5 C 2179.01,1047.82 2178.01,1049.82 2176.5,1051.5C 2176.03,1048.61 2177.03,1046.61 2179.5,1045.5 Z"/></g>
<g><path style="opacity:1" fill="#b6b6b6" d="M 1479.5,1048.5 C 1479.03,1049.69 1478.03,1050.36 1476.5,1050.5C 1470.76,1051.22 1465.1,1052.22 1459.5,1053.5C 1465.84,1050.99 1472.5,1049.32 1479.5,1048.5 Z"/></g>
<g><path style="opacity:1" fill="#707070" d="M 1459.5,1053.5 C 1455.8,1055.25 1451.8,1056.25 1447.5,1056.5C 1451.2,1054.75 1455.2,1053.75 1459.5,1053.5 Z"/></g>
<g><path style="opacity:1" fill="#888888" d="M 1444.5,1053.5 C 1444.5,1054.5 1444.5,1055.5 1444.5,1056.5C 1445.5,1056.5 1446.5,1056.5 1447.5,1056.5C 1446.22,1057.93 1444.55,1058.6 1442.5,1058.5C 1442.4,1056.45 1443.07,1054.78 1444.5,1053.5 Z"/></g>
<g><path style="opacity:1" fill="#545454" d="M 1949.5,1059.5 C 1948.58,1062.09 1946.91,1064.09 1944.5,1065.5C 1945.42,1062.91 1947.09,1060.91 1949.5,1059.5 Z"/></g>
<g><path style="opacity:1" fill="#7c7c7c" d="M 2176.5,1051.5 C 2176.5,1052.83 2176.5,1054.17 2176.5,1055.5C 2174.06,1057.07 2172.89,1059.41 2173,1062.5C 2171.97,1065.24 2170.47,1067.57 2168.5,1069.5C 2168.34,1068.13 2168.51,1066.79 2169,1065.5C 2171.21,1060.55 2173.71,1055.88 2176.5,1051.5 Z"/></g>
<g><path style="opacity:1" fill="#555555" d="M 1944.5,1065.5 C 1943.92,1067.75 1942.59,1069.42 1940.5,1070.5C 1941.08,1068.25 1942.41,1066.58 1944.5,1065.5 Z"/></g>
<g><path style="opacity:1" fill="#959595" d="M 2168.5,1069.5 C 2167.25,1074.67 2165.42,1079.67 2163,1084.5C 2162.05,1086.09 2160.88,1087.43 2159.5,1088.5C 2159.5,1087.83 2159.5,1087.17 2159.5,1086.5C 2161.99,1080.65 2164.99,1074.98 2168.5,1069.5 Z"/></g>
<g><path style="opacity:1" fill="#5d5d5d" d="M 1940.5,1070.5 C 1938.57,1074.1 1935.9,1077.1 1932.5,1079.5C 1934.43,1075.9 1937.1,1072.9 1940.5,1070.5 Z"/></g>
<g><path style="opacity:1" fill="#515151" d="M 1932.5,1079.5 C 1929.23,1084.44 1925.23,1088.77 1920.5,1092.5C 1923.77,1087.56 1927.77,1083.23 1932.5,1079.5 Z"/></g>
<g><path style="opacity:1" fill="#464646" d="M 2159.5,1086.5 C 2159.5,1087.17 2159.5,1087.83 2159.5,1088.5C 2158.14,1089.59 2157.14,1090.92 2156.5,1092.5C 2156.02,1089.69 2157.02,1087.69 2159.5,1086.5 Z"/></g>
<g><path style="opacity:1" fill="#454545" d="M 1916.5,1096.5 C 1912.11,1101.89 1907.11,1106.56 1901.5,1110.5C 1905.89,1105.11 1910.89,1100.44 1916.5,1096.5 Z"/></g>
<g><path style="opacity:1" fill="#a3a3a3" d="M 2159.5,1088.5 C 2158.12,1095.09 2155.12,1100.76 2150.5,1105.5C 2151.04,1103.88 2151.37,1102.22 2151.5,1100.5C 2153.45,1097.97 2155.12,1095.31 2156.5,1092.5C 2157.14,1090.92 2158.14,1089.59 2159.5,1088.5 Z"/></g>
<g><path style="opacity:1" fill="#535353" d="M 2151.5,1100.5 C 2151.37,1102.22 2151.04,1103.88 2150.5,1105.5C 2149.08,1106.92 2148.08,1108.59 2147.5,1110.5C 2146.5,1111.17 2145.5,1111.83 2144.5,1112.5C 2146.84,1108.45 2149.17,1104.45 2151.5,1100.5 Z"/></g>
<g><path style="opacity:1" fill="#cbcbcb" d="M 2147.5,1110.5 C 2147.48,1112.93 2146.98,1115.26 2146,1117.5C 2142.47,1120.51 2139.64,1123.84 2137.5,1127.5C 2138.17,1125.5 2138.83,1123.5 2139.5,1121.5C 2142.84,1119.5 2144.51,1116.5 2144.5,1112.5C 2145.5,1111.83 2146.5,1111.17 2147.5,1110.5 Z"/></g>
<g><path style="opacity:1" fill="#646263" d="M 2144.5,1112.5 C 2144.51,1116.5 2142.84,1119.5 2139.5,1121.5C 2140.61,1118.14 2142.28,1115.14 2144.5,1112.5 Z"/></g>
<g><path style="opacity:1" fill="#6e6e6e" d="M 2139.5,1121.5 C 2138.83,1123.5 2138.17,1125.5 2137.5,1127.5C 2133.16,1134.24 2128.83,1140.91 2124.5,1147.5C 2122.61,1148.97 2120.94,1150.64 2119.5,1152.5C 2125.81,1141.89 2132.47,1131.56 2139.5,1121.5 Z"/></g>
<g><path style="opacity:1" fill="#bbbbbb" d="M 2124.5,1147.5 C 2124.11,1149.18 2123.61,1150.85 2123,1152.5C 2120.72,1153.76 2118.89,1155.43 2117.5,1157.5C 2117.89,1155.72 2118.56,1154.05 2119.5,1152.5C 2120.94,1150.64 2122.61,1148.97 2124.5,1147.5 Z"/></g>
<g><path style="opacity:1" fill="#4f4e4f" d="M 2119.5,1152.5 C 2118.56,1154.05 2117.89,1155.72 2117.5,1157.5C 2113.84,1161.16 2110.51,1165.16 2107.5,1169.5C 2108.04,1167.41 2108.88,1165.41 2110,1163.5C 2112.73,1159.32 2115.9,1155.65 2119.5,1152.5 Z"/></g>
<g><path style="opacity:1" fill="#b7b6b6" d="M 2117.5,1157.5 C 2117.29,1158.92 2116.79,1160.26 2116,1161.5C 2112.82,1165.24 2109.65,1168.91 2106.5,1172.5C 2106.56,1171.39 2106.89,1170.39 2107.5,1169.5C 2110.51,1165.16 2113.84,1161.16 2117.5,1157.5 Z"/></g>
<g><path style="opacity:1" fill="#535353" d="M 1820.5,1165.5 C 1819.51,1167.41 1817.85,1168.41 1815.5,1168.5C 1816.66,1166.75 1818.33,1165.75 1820.5,1165.5 Z"/></g>
<g><path style="opacity:1" fill="#353535" d="M 1815.5,1168.5 C 1811.84,1171.83 1807.51,1173.83 1802.5,1174.5C 1806.4,1171.72 1810.74,1169.72 1815.5,1168.5 Z"/></g>
<g><path style="opacity:1" fill="#6a6a6a" d="M 1476.5,1173.5 C 1478.15,1173.66 1479.49,1174.33 1480.5,1175.5C 1478.62,1175.77 1477.29,1175.1 1476.5,1173.5 Z"/></g>
<g><path style="opacity:1" fill="#a3a3a3" d="M 1494.5,1181.5 C 1498.55,1182.35 1502.55,1183.52 1506.5,1185C 1507.06,1185.38 1507.39,1185.88 1507.5,1186.5C 1502.78,1185.63 1498.44,1183.96 1494.5,1181.5 Z"/></g>
<g><path style="opacity:1" fill="#474747" d="M 1790.5,1179.5 C 1788.82,1181.83 1786.49,1182.83 1783.5,1182.5C 1785.51,1180.93 1787.84,1179.93 1790.5,1179.5 Z"/></g>
<g><path style="opacity:1" fill="#616161" d="M 1764.5,1189.5 C 1761.5,1191.28 1758.16,1192.28 1754.5,1192.5C 1757.5,1190.72 1760.84,1189.72 1764.5,1189.5 Z"/></g>
<g><path style="opacity:1" fill="#bbbbbb" d="M 2096.5,1185.5 C 2092.87,1191.07 2088.54,1196.07 2083.5,1200.5C 2087.13,1194.93 2091.46,1189.93 2096.5,1185.5 Z"/></g>
<g><path style="opacity:1" fill="#8e8e8e" d="M 1548.5,1198.5 C 1552.84,1198.58 1556.84,1199.58 1560.5,1201.5C 1556.24,1201.1 1552.24,1200.1 1548.5,1198.5 Z"/></g>
<g><path style="opacity:1" fill="#696969" d="M 1568.5,1202.5 C 1571.73,1202.68 1574.73,1203.34 1577.5,1204.5C 1574.17,1204.78 1571.17,1204.12 1568.5,1202.5 Z"/></g>
<g><path style="opacity:1" fill="#3b3b3b" d="M 1724.5,1200.5 C 1715.9,1203.55 1706.9,1205.21 1697.5,1205.5C 1706.25,1203.2 1715.25,1201.53 1724.5,1200.5 Z"/></g>
<g><path style="opacity:1" fill="#4c4c4c" d="M 1695.5,1205.5 C 1691.08,1206.97 1686.41,1207.64 1681.5,1207.5C 1685.92,1206.03 1690.59,1205.36 1695.5,1205.5 Z"/></g>
<g><path style="opacity:1" fill="#b1b1b1" d="M 2083.5,1200.5 C 2078.6,1208.07 2072.6,1214.73 2065.5,1220.5C 2065.73,1218.94 2066.4,1217.6 2067.5,1216.5C 2072.83,1211.17 2078.17,1205.83 2083.5,1200.5 Z"/></g>
<g><path style="opacity:1" fill="#4f4f4f" d="M 1609.5,1208.5 C 1628.83,1208.5 1648.17,1208.5 1667.5,1208.5C 1648.17,1210.92 1628.84,1210.92 1609.5,1208.5 Z"/></g>
<g><path style="opacity:1" fill="#595859" d="M 2107.5,1169.5 C 2106.89,1170.39 2106.56,1171.39 2106.5,1172.5C 2103.69,1175.38 2100.86,1178.38 2098,1181.5C 2097.21,1182.74 2096.71,1184.08 2096.5,1185.5C 2091.46,1189.93 2087.13,1194.93 2083.5,1200.5C 2078.17,1205.83 2072.83,1211.17 2067.5,1216.5C 2076.43,1205.73 2085.6,1195.06 2095,1184.5C 2097.3,1180.7 2099.8,1177.03 2102.5,1173.5C 2104.18,1172.05 2105.85,1170.71 2107.5,1169.5 Z"/></g>
<g><path style="opacity:1" fill="#8a898a" d="M 2067.5,1216.5 C 2066.4,1217.6 2065.73,1218.94 2065.5,1220.5C 2061.83,1225.5 2057.5,1229.83 2052.5,1233.5C 2053.42,1231.25 2054.75,1229.25 2056.5,1227.5C 2058.77,1225.73 2060.94,1223.73 2063,1221.5C 2063.61,1218.89 2065.11,1217.22 2067.5,1216.5 Z"/></g>
<g><path style="opacity:1" fill="#474647" d="M 2056.5,1227.5 C 2054.75,1229.25 2053.42,1231.25 2052.5,1233.5C 2051.5,1233.83 2050.83,1234.5 2050.5,1235.5C 2047.23,1237.43 2044.23,1239.76 2041.5,1242.5C 2045.32,1237.24 2049.66,1232.41 2054.5,1228C 2055.09,1227.54 2055.76,1227.37 2056.5,1227.5 Z"/></g>
<g><path style="opacity:1" fill="#5d5d5d" d="M 1239.5,1246.5 C 1242.76,1248.09 1245.43,1250.43 1247.5,1253.5C 1244.24,1251.91 1241.57,1249.57 1239.5,1246.5 Z"/></g>
<g><path style="opacity:1" fill="#b7b7b7" d="M 2050.5,1235.5 C 2041.34,1246.34 2031.01,1255.67 2019.5,1263.5C 2026.47,1256.86 2033.47,1250.19 2040.5,1243.5C 2040.5,1242.83 2040.83,1242.5 2041.5,1242.5C 2044.23,1239.76 2047.23,1237.43 2050.5,1235.5 Z"/></g>
<g><path style="opacity:1" fill="#4c4b4c" d="M 1247.5,1253.5 C 1250.76,1255.09 1253.43,1257.43 1255.5,1260.5C 1252.24,1258.91 1249.57,1256.57 1247.5,1253.5 Z"/></g>
<g><path style="opacity:1" fill="#d3d3d3" d="M 379.5,1249.5 C 382.669,1253.83 385.336,1258.5 387.5,1263.5C 382.07,1260.66 379.403,1255.99 379.5,1249.5 Z"/></g>
<g><path style="opacity:1" fill="#6c6c6c" d="M 1255.5,1260.5 C 1260.11,1263.44 1264.11,1267.1 1267.5,1271.5C 1262.89,1268.56 1258.89,1264.9 1255.5,1260.5 Z"/></g>
<g><path style="opacity:1" fill="#525252" d="M 1267.5,1271.5 C 1272.3,1272.97 1276.3,1275.63 1279.5,1279.5C 1278.83,1279.5 1278.17,1279.5 1277.5,1279.5C 1273.48,1277.71 1270.15,1275.04 1267.5,1271.5 Z"/></g>
<g><path style="opacity:1" fill="#c0bfbf" d="M 1998.5,1280.5 C 1996.04,1284.3 1992.7,1286.97 1988.5,1288.5C 1991.54,1285.46 1994.87,1282.79 1998.5,1280.5 Z"/></g>
<g><path style="opacity:1" fill="#a5a5a5" d="M 1277.5,1279.5 C 1278.17,1279.5 1278.83,1279.5 1279.5,1279.5C 1282.93,1283.26 1286.93,1286.26 1291.5,1288.5C 1292.82,1290.82 1294.49,1292.82 1296.5,1294.5C 1288.68,1291.34 1282.35,1286.34 1277.5,1279.5 Z"/></g>
<g><path style="opacity:1" fill="#515151" d="M 1291.5,1288.5 C 1296.54,1291.69 1301.21,1295.35 1305.5,1299.5C 1302.19,1298.29 1299.19,1296.62 1296.5,1294.5C 1294.49,1292.82 1292.82,1290.82 1291.5,1288.5 Z"/></g>
<g><path style="opacity:1" fill="#595959" d="M 2040.5,1243.5 C 2033.47,1250.19 2026.47,1256.86 2019.5,1263.5C 2012.76,1269.38 2005.76,1275.05 1998.5,1280.5C 1994.87,1282.79 1991.54,1285.46 1988.5,1288.5C 1987.08,1288.71 1985.74,1289.21 1984.5,1290C 1981.43,1292.52 1978.43,1295.02 1975.5,1297.5C 1968.77,1300.52 1962.77,1304.52 1957.5,1309.5C 1954.65,1311.09 1951.65,1312.42 1948.5,1313.5C 1962.73,1303.7 1977.07,1293.87 1991.5,1284C 2008.15,1270.82 2024.49,1257.32 2040.5,1243.5 Z"/></g>
<g><path style="opacity:1" fill="#5f5e5f" d="M 1305.5,1299.5 C 1309.64,1301.4 1313.64,1303.57 1317.5,1306C 1320,1307.33 1322,1309.16 1323.5,1311.5C 1319.02,1310.02 1315.02,1307.69 1311.5,1304.5C 1308.64,1303.75 1306.64,1302.09 1305.5,1299.5 Z"/></g>
<g><path style="opacity:1" fill="#c9c9c9" d="M 1975.5,1297.5 C 1973.67,1301.1 1970.67,1303.26 1966.5,1304C 1964.33,1307.37 1961.33,1309.2 1957.5,1309.5C 1962.77,1304.52 1968.77,1300.52 1975.5,1297.5 Z"/></g>
<g><path style="opacity:1" fill="#565555" d="M 1323.5,1311.5 C 1326.27,1312.44 1328.94,1313.6 1331.5,1315C 1333.06,1315.76 1334.06,1316.93 1334.5,1318.5C 1331.15,1317.1 1327.82,1315.6 1324.5,1314C 1323.75,1313.33 1323.41,1312.5 1323.5,1311.5 Z"/></g>
<g><path style="opacity:1" fill="#c7c7c7" d="M 1311.5,1304.5 C 1315.02,1307.69 1319.02,1310.02 1323.5,1311.5C 1323.41,1312.5 1323.75,1313.33 1324.5,1314C 1327.82,1315.6 1331.15,1317.1 1334.5,1318.5C 1335.49,1320.41 1337.15,1321.41 1339.5,1321.5C 1342.33,1322.08 1344.66,1323.41 1346.5,1325.5C 1341.81,1324.32 1337.14,1322.82 1332.5,1321C 1326.66,1316.91 1320.66,1313.08 1314.5,1309.5C 1313.05,1308.06 1312.05,1306.39 1311.5,1304.5 Z"/></g>
<g><path style="opacity:1" fill="#737272" d="M 1334.5,1318.5 C 1336.67,1318.75 1338.34,1319.75 1339.5,1321.5C 1337.15,1321.41 1335.49,1320.41 1334.5,1318.5 Z"/></g>
<g><path style="opacity:1" fill="#616161" d="M 1948.5,1313.5 C 1944.43,1318.06 1939.43,1321.23 1933.5,1323C 1931.48,1325.87 1928.81,1327.7 1925.5,1328.5C 1924.17,1328.83 1922.83,1329.17 1921.5,1329.5C 1921.95,1328.54 1922.62,1327.71 1923.5,1327C 1931.87,1322.48 1940.2,1317.98 1948.5,1313.5 Z"/></g>
<g><path style="opacity:1" fill="#747474" d="M 1346.5,1325.5 C 1348.67,1325.75 1350.34,1326.75 1351.5,1328.5C 1349.15,1328.41 1347.49,1327.41 1346.5,1325.5 Z"/></g>
<g><path style="opacity:1" fill="#7d7b7c" d="M 1358.5,1332.5 C 1361.85,1332.53 1364.52,1333.86 1366.5,1336.5C 1362.98,1336.74 1360.31,1335.41 1358.5,1332.5 Z"/></g>
<g><path style="opacity:1" fill="#c8c7c7" d="M 1351.5,1328.5 C 1354.1,1329.47 1356.43,1330.8 1358.5,1332.5C 1360.31,1335.41 1362.98,1336.74 1366.5,1336.5C 1367.17,1337.17 1367.83,1337.83 1368.5,1338.5C 1364.4,1337.81 1360.4,1336.81 1356.5,1335.5C 1355.2,1332.98 1353.54,1330.65 1351.5,1328.5 Z"/></g>
<g><path style="opacity:1" fill="#545354" d="M 1366.5,1336.5 C 1369.77,1336.63 1372.77,1337.63 1375.5,1339.5C 1377.49,1341.71 1379.82,1343.37 1382.5,1344.5C 1380.71,1344.63 1379.04,1344.3 1377.5,1343.5C 1374.96,1341.06 1371.96,1339.39 1368.5,1338.5C 1367.83,1337.83 1367.17,1337.17 1366.5,1336.5 Z"/></g>
<g><path style="opacity:1" fill="#b8b8b8" d="M 1925.5,1328.5 C 1919.84,1333.16 1913.51,1336.5 1906.5,1338.5C 1908.17,1337.17 1909.83,1335.83 1911.5,1334.5C 1914.81,1332.85 1918.14,1331.18 1921.5,1329.5C 1922.83,1329.17 1924.17,1328.83 1925.5,1328.5 Z"/></g>
<g><path style="opacity:1" fill="#555555" d="M 1911.5,1334.5 C 1909.83,1335.83 1908.17,1337.17 1906.5,1338.5C 1904.94,1338.73 1903.6,1339.4 1902.5,1340.5C 1899.1,1341.07 1896.1,1342.41 1893.5,1344.5C 1894.29,1343.21 1895.29,1342.04 1896.5,1341C 1901.52,1338.82 1906.52,1336.65 1911.5,1334.5 Z"/></g>
<g><path style="opacity:1" fill="#575757" d="M 1891.5,1344.5 C 1890.34,1346.25 1888.67,1347.25 1886.5,1347.5C 1887.49,1345.59 1889.15,1344.59 1891.5,1344.5 Z"/></g>
<g><path style="opacity:1" fill="#5c5b5b" d="M 1382.5,1344.5 C 1387.79,1345.31 1392.46,1347.31 1396.5,1350.5C 1392.68,1349.93 1389.01,1348.76 1385.5,1347C 1384.06,1346.62 1383.06,1345.79 1382.5,1344.5 Z"/></g>
<g><path style="opacity:1" fill="#626262" d="M 1886.5,1347.5 C 1885.83,1348.17 1885.17,1348.83 1884.5,1349.5C 1882.17,1350.17 1879.83,1350.83 1877.5,1351.5C 1879.84,1348.84 1882.84,1347.5 1886.5,1347.5 Z"/></g>
<g><path style="opacity:1" fill="#cdcdcd" d="M 1902.5,1340.5 C 1898.06,1346.41 1892.06,1349.41 1884.5,1349.5C 1885.17,1348.83 1885.83,1348.17 1886.5,1347.5C 1888.67,1347.25 1890.34,1346.25 1891.5,1344.5C 1892.17,1344.5 1892.83,1344.5 1893.5,1344.5C 1896.1,1342.41 1899.1,1341.07 1902.5,1340.5 Z"/></g>
<g><path style="opacity:1" fill="#dbdada" d="M 1377.5,1343.5 C 1379.04,1344.3 1380.71,1344.63 1382.5,1344.5C 1383.06,1345.79 1384.06,1346.62 1385.5,1347C 1389.01,1348.76 1392.68,1349.93 1396.5,1350.5C 1398.19,1352.34 1400.19,1353.68 1402.5,1354.5C 1400.14,1354.66 1397.81,1354.5 1395.5,1354C 1390.33,1351.34 1385,1349 1379.5,1347C 1378.18,1346.18 1377.51,1345.02 1377.5,1343.5 Z"/></g>
<g><path style="opacity:1" fill="#5b595a" d="M 1396.5,1350.5 C 1399.72,1350.9 1402.39,1352.23 1404.5,1354.5C 1403.83,1354.5 1403.17,1354.5 1402.5,1354.5C 1400.19,1353.68 1398.19,1352.34 1396.5,1350.5 Z"/></g>
<g><path style="opacity:1" fill="#4f4f4f" d="M 1404.5,1354.5 C 1409.23,1354.63 1413.23,1356.29 1416.5,1359.5C 1412.2,1358.35 1408.2,1356.68 1404.5,1354.5 Z"/></g>
<g><path style="opacity:1" fill="#858585" d="M 1877.5,1351.5 C 1873.33,1354.92 1868.67,1357.25 1863.5,1358.5C 1862.17,1358.83 1860.83,1359.17 1859.5,1359.5C 1859.47,1358.5 1859.97,1357.84 1861,1357.5C 1866.59,1355.61 1872.09,1353.61 1877.5,1351.5 Z"/></g>
<g><path style="opacity:1" fill="#d0d0d0" d="M 1402.5,1354.5 C 1403.17,1354.5 1403.83,1354.5 1404.5,1354.5C 1408.2,1356.68 1412.2,1358.35 1416.5,1359.5C 1416.83,1359.5 1417.17,1359.5 1417.5,1359.5C 1419.18,1361.83 1421.51,1362.83 1424.5,1362.5C 1424.83,1363.17 1425.17,1363.83 1425.5,1364.5C 1419.21,1363.52 1413.21,1361.68 1407.5,1359C 1405.01,1358.34 1403.35,1356.84 1402.5,1354.5 Z"/></g>
<g><path style="opacity:1" fill="#6b6b6b" d="M 1417.5,1359.5 C 1420.16,1359.93 1422.49,1360.93 1424.5,1362.5C 1421.51,1362.83 1419.18,1361.83 1417.5,1359.5 Z"/></g>
<g><path style="opacity:1" fill="#5f5f5f" d="M 1858.5,1359.5 C 1854.8,1361.68 1850.8,1363.35 1846.5,1364.5C 1849.77,1361.29 1853.77,1359.63 1858.5,1359.5 Z"/></g>
<g><path style="opacity:1" fill="#8d8c8d" d="M 1424.5,1362.5 C 1425.87,1362.34 1427.21,1362.51 1428.5,1363C 1433.74,1365.8 1439.07,1368.3 1444.5,1370.5C 1438.01,1368.89 1431.67,1366.89 1425.5,1364.5C 1425.17,1363.83 1424.83,1363.17 1424.5,1362.5 Z"/></g>
<g><path style="opacity:1" fill="#b1b0b0" d="M 1863.5,1358.5 C 1861.11,1360.26 1858.45,1361.76 1855.5,1363C 1848.11,1365.41 1840.77,1367.91 1833.5,1370.5C 1836.19,1368.27 1839.19,1366.6 1842.5,1365.5C 1843.71,1364.77 1845.04,1364.43 1846.5,1364.5C 1850.8,1363.35 1854.8,1361.68 1858.5,1359.5C 1858.83,1359.5 1859.17,1359.5 1859.5,1359.5C 1860.83,1359.17 1862.17,1358.83 1863.5,1358.5 Z"/></g>
<g><path style="opacity:1" fill="#464646" d="M 1447.5,1370.5 C 1452.22,1371.35 1456.89,1372.52 1461.5,1374C 1463.88,1374.72 1465.88,1375.88 1467.5,1377.5C 1460.67,1375.56 1454,1373.22 1447.5,1370.5 Z"/></g>
<g><path style="opacity:1" fill="#6b6b6b" d="M 1842.5,1365.5 C 1839.19,1366.6 1836.19,1368.27 1833.5,1370.5C 1829.34,1371.46 1825.34,1372.79 1821.5,1374.5C 1816.09,1375.08 1810.75,1376.08 1805.5,1377.5C 1817.84,1373.66 1830.17,1369.66 1842.5,1365.5 Z"/></g>
<g><path style="opacity:1" fill="#ababab" d="M 1445.5,1370.5 C 1446.17,1370.5 1446.83,1370.5 1447.5,1370.5C 1454,1373.22 1460.67,1375.56 1467.5,1377.5C 1475.83,1378.61 1483.83,1380.94 1491.5,1384.5C 1475.21,1382.4 1459.88,1377.73 1445.5,1370.5 Z"/></g>
<g><path style="opacity:1" fill="#d1d0d0" d="M 1821.5,1374.5 C 1818.8,1376.44 1815.8,1377.94 1812.5,1379C 1805.66,1381.29 1798.66,1382.79 1791.5,1383.5C 1796.1,1381.3 1800.76,1379.3 1805.5,1377.5C 1810.75,1376.08 1816.09,1375.08 1821.5,1374.5 Z"/></g>
<g><path style="opacity:1" fill="#676667" d="M 1805.5,1377.5 C 1800.76,1379.3 1796.1,1381.3 1791.5,1383.5C 1788.85,1383.41 1786.51,1384.08 1784.5,1385.5C 1781.83,1385.5 1779.17,1385.5 1776.5,1385.5C 1786.01,1382.59 1795.68,1379.92 1805.5,1377.5 Z"/></g>
<g><path style="opacity:1" fill="#676767" d="M 1776.5,1385.5 C 1773.55,1387.41 1770.21,1388.41 1766.5,1388.5C 1766.97,1387.31 1767.97,1386.64 1769.5,1386.5C 1771.82,1386 1774.15,1385.67 1776.5,1385.5 Z"/></g>
<g><path style="opacity:1" fill="#cecece" d="M 1776.5,1385.5 C 1779.17,1385.5 1781.83,1385.5 1784.5,1385.5C 1783.16,1386.79 1781.49,1387.63 1779.5,1388C 1773.79,1388.64 1768.13,1389.48 1762.5,1390.5C 1763.5,1389.83 1764.5,1389.17 1765.5,1388.5C 1765.83,1388.5 1766.17,1388.5 1766.5,1388.5C 1770.21,1388.41 1773.55,1387.41 1776.5,1385.5 Z"/></g>
<g><path style="opacity:1" fill="#494949" d="M 1504.5,1386.5 C 1507.23,1386.17 1509.56,1386.84 1511.5,1388.5C 1508.85,1388.59 1506.51,1387.92 1504.5,1386.5 Z"/></g>
<g><path style="opacity:1" fill="#c7c6c6" d="M 1491.5,1384.5 C 1495.81,1385.33 1500.14,1385.99 1504.5,1386.5C 1506.51,1387.92 1508.85,1388.59 1511.5,1388.5C 1511.83,1388.5 1512.17,1388.5 1512.5,1388.5C 1513.17,1389.17 1513.83,1389.83 1514.5,1390.5C 1505.89,1391.25 1498.23,1389.25 1491.5,1384.5 Z"/></g>
<g><path style="opacity:1" fill="#595758" d="M 1765.5,1388.5 C 1764.5,1389.17 1763.5,1389.83 1762.5,1390.5C 1761.17,1390.5 1759.83,1390.5 1758.5,1390.5C 1754.17,1391.17 1749.83,1391.83 1745.5,1392.5C 1751.8,1389.93 1758.47,1388.6 1765.5,1388.5 Z"/></g>
<g><path style="opacity:1" fill="#555354" d="M 1512.5,1388.5 C 1516.87,1388.5 1520.87,1389.5 1524.5,1391.5C 1521.19,1390.95 1517.86,1390.62 1514.5,1390.5C 1513.83,1389.83 1513.17,1389.17 1512.5,1388.5 Z"/></g>
<g><path style="opacity:1" fill="#686667" d="M 1745.5,1392.5 C 1742.73,1393.66 1739.73,1394.32 1736.5,1394.5C 1738.99,1392.61 1741.99,1391.95 1745.5,1392.5 Z"/></g>
<g><path style="opacity:1" fill="#b0b0b0" d="M 1524.5,1391.5 C 1525.83,1391.5 1527.17,1391.5 1528.5,1391.5C 1531.66,1392.44 1534.66,1393.78 1537.5,1395.5C 1534.16,1395.11 1530.83,1394.61 1527.5,1394C 1525.88,1393.76 1524.88,1392.93 1524.5,1391.5 Z"/></g>
<g><path style="opacity:1" fill="#797778" d="M 1528.5,1391.5 C 1534.32,1392.13 1539.99,1393.13 1545.5,1394.5C 1547.5,1395.17 1549.5,1395.83 1551.5,1396.5C 1546.82,1396.33 1542.15,1396 1537.5,1395.5C 1534.66,1393.78 1531.66,1392.44 1528.5,1391.5 Z"/></g>
<g><path style="opacity:1" fill="#6b696a" d="M 1735.5,1394.5 C 1731.43,1396.05 1727.1,1396.72 1722.5,1396.5C 1723.26,1395.73 1724.26,1395.23 1725.5,1395C 1728.82,1394.5 1732.15,1394.33 1735.5,1394.5 Z"/></g>
<g><path style="opacity:1" fill="#cecdce" d="M 1758.5,1390.5 C 1758.39,1391.12 1758.06,1391.62 1757.5,1392C 1740.79,1396.44 1723.79,1398.94 1706.5,1399.5C 1711.44,1398.17 1716.44,1397.17 1721.5,1396.5C 1721.83,1396.5 1722.17,1396.5 1722.5,1396.5C 1727.1,1396.72 1731.43,1396.05 1735.5,1394.5C 1735.83,1394.5 1736.17,1394.5 1736.5,1394.5C 1739.73,1394.32 1742.73,1393.66 1745.5,1392.5C 1749.83,1391.83 1754.17,1391.17 1758.5,1390.5 Z"/></g>
<g><path style="opacity:1" fill="#4e4d4d" d="M 1545.5,1394.5 C 1553.77,1394.99 1561.77,1396.32 1569.5,1398.5C 1568.17,1398.5 1566.83,1398.5 1565.5,1398.5C 1560.83,1397.83 1556.17,1397.17 1551.5,1396.5C 1549.5,1395.83 1547.5,1395.17 1545.5,1394.5 Z"/></g>
<g><path style="opacity:1" fill="#565455" d="M 1721.5,1396.5 C 1716.44,1397.17 1711.44,1398.17 1706.5,1399.5C 1704.83,1399.5 1703.17,1399.5 1701.5,1399.5C 1691.84,1400.22 1682.17,1400.89 1672.5,1401.5C 1688.65,1399.32 1704.98,1397.65 1721.5,1396.5 Z"/></g>
<g><path style="opacity:1" fill="#959394" d="M 1565.5,1398.5 C 1566.83,1398.5 1568.17,1398.5 1569.5,1398.5C 1570.83,1398.5 1572.17,1398.5 1573.5,1398.5C 1576.17,1399.17 1578.83,1399.83 1581.5,1400.5C 1575.93,1400.62 1570.6,1399.96 1565.5,1398.5 Z"/></g>
<g><path style="opacity:1" fill="#a9a8a8" d="M 1583.5,1400.5 C 1589.76,1400.1 1595.76,1400.77 1601.5,1402.5C 1595.25,1402.82 1589.25,1402.15 1583.5,1400.5 Z"/></g>
<g><path style="opacity:1" fill="#555454" d="M 1573.5,1398.5 C 1606.12,1400.98 1638.78,1401.98 1671.5,1401.5C 1649.34,1402.5 1627.01,1402.83 1604.5,1402.5C 1603.5,1402.5 1602.5,1402.5 1601.5,1402.5C 1595.76,1400.77 1589.76,1400.1 1583.5,1400.5C 1582.83,1400.5 1582.17,1400.5 1581.5,1400.5C 1578.83,1399.83 1576.17,1399.17 1573.5,1398.5 Z"/></g>
<g><path style="opacity:1" fill="#3f3f3f" d="M 696.5,1402.5 C 697.043,1402.56 697.376,1402.89 697.5,1403.5C 627.503,1404.5 557.503,1404.83 487.5,1404.5C 557.167,1403.83 626.833,1403.17 696.5,1402.5 Z"/></g>
<g><path style="opacity:1" fill="#acacac" d="M 1121.5,1402.5 C 1122.04,1402.56 1122.38,1402.89 1122.5,1403.5C 1047.33,1404.83 972.334,1404.83 897.5,1403.5C 972.335,1403.83 1047,1403.5 1121.5,1402.5 Z"/></g>
<g><path style="opacity:1" fill="#c6c5c6" d="M 1701.5,1399.5 C 1697.77,1400.98 1693.77,1401.81 1689.5,1402C 1661.02,1404.92 1632.68,1405.08 1604.5,1402.5C 1627.01,1402.83 1649.34,1402.5 1671.5,1401.5C 1671.83,1401.5 1672.17,1401.5 1672.5,1401.5C 1682.17,1400.89 1691.84,1400.22 1701.5,1399.5 Z"/></g>
</svg>
