<svg width="450" height="123" xmlns="http://www.w3.org/2000/svg" fill="none">

 <g>
  <title>Layer 1</title>
  <path id="svg_1" fill="#000000" d="m4.18957,30.1035c-2.43888,4.1016 -3.65832,8.6817 -3.65832,13.7403l0,42.6562l14.29455,0l0,-42.6562c0,-3.6003 1.2646,-6.6537 3.7938,-9.1602c2.5744,-2.5521 5.6456,-3.8281 9.2136,-3.8281l18.698,0l0,-14.3555l-18.698,0c-5.0133,0 -9.5975,1.2305 -13.7526,3.6914c-4.10998,2.4609 -7.40698,5.765 -9.89103,9.9121z"/>
  <path id="svg_2" fill="#000000" d="m66.8729,92.5078c2.4389,-4.2187 3.6584,-8.9297 3.6584,-14.1328l0,-43.875l-14.29461,0l0,43.875c0,3.7031 -1.2646,6.8438 -3.7938,9.4219c-2.5744,2.625 -5.6456,3.9375 -9.2136,3.9375l-18.6981,0l0,14.7656l18.6981,0c5.0133,0 9.5975,-1.266 13.7526,-3.797c4.11,-2.53101 7.407,-5.9296 9.891,-10.19521z"/>
  <circle id="svg_3" fill="#000000" r="6" cy="60.5" cx="36.5312"/>
  <path id="svg_4" fill="#000000" d="m121.076,55.8281c-1.696,2.8125 -2.545,5.9531 -2.545,9.4219l0,31.25l9.94401,0l0,-31.25c0,-2.4688 0.87999,-4.5625 2.63899,-6.2812c1.791,-1.75 3.92801,-2.625 6.41,-2.625l13.007,0l0,-9.8438l-13.007,0c-3.48801,0 -6.677,0.8438 -9.567,2.5312c-2.859,1.6876 -5.153,3.9532 -6.881,6.7969z"/>
  <path id="svg_5" fill="#000000" d="m179.52299,95.844c-4.79999,0 -8.99199,-0.992 -12.57599,-2.97601c-3.584,-2.048 -6.40001,-4.896 -8.44801,-8.544c-1.98399,-3.712 -2.976,-8 -2.976,-12.864l0,-1.152c0,-4.928 0.992,-9.216 2.976,-12.864c1.98401,-3.712 4.73601,-6.56 8.25601,-8.544c3.584,-2.048 7.71199,-3.072 12.384,-3.072c4.54399,0 8.51199,1.024 11.90399,3.072c3.45599,1.984 6.144,4.768 8.064,8.352c1.92,3.584 2.88,7.776 2.88,12.576l0,3.744l-36.384,0c0.12801,4.16 1.504,7.488 4.12801,9.984c2.688,2.432 6.01599,3.648 9.98399,3.648c3.71201,0 6.496,-0.832 8.35201,-2.496c1.92,-1.664 3.392,-3.584 4.416,-5.76l8.16,4.224c-0.89601,1.792 -2.20801,3.68 -3.936,5.664c-1.664,1.984 -3.87199,3.648 -6.62401,4.992c-2.752,1.34399 -6.27199,2.016 -10.56,2.016zm-13.82399,-29.856l26.20799,0c-0.256,-3.584 -1.536,-6.368 -3.84,-8.352c-2.304,-2.048 -5.312,-3.072 -9.024,-3.072c-3.71201,0 -6.752,1.024 -9.12,3.072c-2.304,1.984 -3.71201,4.768 -4.224,8.352zm48.19099,28.512l0,-67.2l9.888,0l0,67.2l-9.888,0zm46.25801,1.344c-4.8,0 -8.992,-0.992 -12.576,-2.97601c-3.584,-2.048 -6.40001,-4.896 -8.44801,-8.544c-1.98399,-3.712 -2.976,-8 -2.976,-12.864l0,-1.152c0,-4.928 0.992,-9.216 2.976,-12.864c1.98401,-3.712 4.73601,-6.56 8.25601,-8.544c3.584,-2.048 7.71199,-3.072 12.384,-3.072c4.54401,0 8.51199,1.024 11.90399,3.072c3.45599,1.984 6.14401,4.768 8.064,8.352c1.92001,3.584 2.88,7.776 2.88,12.576l0,3.744l-36.384,0c0.12801,4.16 1.504,7.488 4.12801,9.984c2.688,2.432 6.01601,3.648 9.98399,3.648c3.71201,0 6.496,-0.832 8.35199,-2.496c1.92001,-1.664 3.39203,-3.584 4.41602,-5.76l8.16,4.224c-0.896,1.792 -2.20801,3.68 -3.936,5.664c-1.664,1.984 -3.87201,3.648 -6.62399,4.992c-2.75201,1.34399 -6.272,2.016 -10.56,2.016zm-13.82401,-29.856l26.20801,0c-0.25601,-3.584 -1.53601,-6.368 -3.84003,-8.352c-2.30399,-2.048 -5.31198,-3.072 -9.02399,-3.072c-3.71201,0 -6.752,1.024 -9.12,3.072c-2.304,1.984 -3.71201,4.768 -4.224,8.352zm62.879,29.856c-3.392,0 -6.43201,-0.576 -9.12,-1.728c-2.62399,-1.152 -4.73602,-2.848 -6.336,-5.088c-1.53601,-2.24 -2.30402,-4.96 -2.30402,-8.16c0,-3.264 0.76801,-5.952 2.30402,-8.064c1.59998,-2.176 3.74399,-3.808 6.43198,-4.896c2.75201,-1.088 5.85602,-1.632 9.31201,-1.632l14.39999,0l0,-3.072c0,-2.752 -0.832,-4.96 -2.496,-6.624c-1.664,-1.664 -4.224,-2.496 -7.67999,-2.496c-3.392,0 -5.98401,0.8 -7.776,2.4c-1.79199,1.6 -2.97598,3.68 -3.552,6.24l-9.216,-2.976c0.76801,-2.56 1.98401,-4.864 3.64801,-6.912c1.728,-2.112 4,-3.808 6.81601,-5.088c2.81598,-1.28 6.20798,-1.92 10.17599,-1.92c6.14398,0 10.97598,1.568 14.496,4.704c3.51999,3.136 5.28,7.584 5.28,13.344l0,19.488c0,1.92 0.896,2.88 2.68799,2.88l4.03201,0l0,8.256l-7.392,0c-2.24002,0 -4.064,-0.576 -5.47202,-1.728c-1.40799,-1.152 -2.112,-2.72 -2.112,-4.704l0,-0.288l-1.44,0c-0.51199,0.96 -1.28,2.08 -2.30399,3.36c-1.02402,1.28 -2.52802,2.4 -4.51199,3.36c-1.98401,0.896 -4.608,1.344 -7.87201,1.344zm1.44,-8.16c3.96799,0 7.168,-1.12 9.60001,-3.36c2.43198,-2.304 3.64798,-5.43999 3.64798,-9.408l0,-0.96l-13.82401,0c-2.62399,0 -4.73599,0.576 -6.336,1.728c-1.59998,1.08801 -2.39999,2.72 -2.39999,4.896c0,2.17599 0.832,3.904 2.496,5.184c1.664,1.28 3.936,1.92 6.81601,1.92zm58.29498,8.16c-6.01599,0 -11.008,-1.344 -14.97598,-4.03201c-3.96802,-2.688 -6.39999,-6.752 -7.29602,-12.19199l9.216,-2.208c0.51202,2.624 1.37601,4.70399 2.59201,6.24c1.216,1.536 2.72,2.624 4.51199,3.264c1.85602,0.64 3.84,0.96 5.952,0.96c3.13602,0 5.53601,-0.608 7.20001,-1.824c1.728,-1.216 2.59201,-2.784 2.59201,-4.704c0,-1.92 -0.80002,-3.328 -2.40002,-4.224c-1.59998,-0.896 -3.96799,-1.632 -7.10397,-2.208l-3.26401,-0.576c-3.20001,-0.576 -6.112,-1.408 -8.73599,-2.49599c-2.62402,-1.08801 -4.70401,-2.592 -6.24002,-4.512c-1.53598,-1.92 -2.30399,-4.384 -2.30399,-7.392c0,-4.48 1.664,-7.936 4.992,-10.368c3.328,-2.496 7.74399,-3.744 13.24799,-3.744c5.31201,0 9.664,1.216 13.056,3.648c3.45599,2.368 5.69601,5.6 6.72,9.696l-9.216,2.592c-0.57599,-2.88 -1.79199,-4.896 -3.64798,-6.048c-1.85602,-1.216 -4.16,-1.824 -6.91202,-1.824c-2.68799,0 -4.79999,0.512 -6.336,1.536c-1.53601,0.96 -2.30399,2.336 -2.30399,4.128c0,1.92 0.73599,3.328 2.20798,4.224c1.53601,0.896 3.58401,1.568 6.14401,2.016l3.35999,0.576c3.392,0.576 6.496,1.376 9.31201,2.4c2.81601,1.02399 5.02399,2.49599 6.62399,4.416c1.664,1.92 2.496,4.48 2.496,7.67999c0,4.736 -1.76001,8.416 -5.28,11.04c-3.51999,2.624 -8.25598,3.936 -14.20801,3.936zm52.742,0c-4.79999,0 -8.992,-0.992 -12.57599,-2.97601c-3.58401,-2.048 -6.39999,-4.896 -8.448,-8.544c-1.98401,-3.712 -2.97601,-8 -2.97601,-12.864l0,-1.152c0,-4.928 0.992,-9.216 2.97601,-12.864c1.98401,-3.712 4.73599,-6.56 8.25598,-8.544c3.58401,-2.048 7.71201,-3.072 12.384,-3.072c4.54401,0 8.51202,1.024 11.90402,3.072c3.45599,1.984 6.14398,4.768 8.064,8.352c1.91998,3.584 2.88,7.776 2.88,12.576l0,3.744l-36.384,0c0.12799,4.16 1.504,7.488 4.12799,9.984c2.68799,2.432 6.01599,3.648 9.98401,3.648c3.71201,0 6.496,-0.832 8.35199,-2.496c1.92001,-1.664 3.392,-3.584 4.41602,-5.76l8.15997,4.224c-0.896,1.792 -2.20798,3.68 -3.93597,5.664c-1.664,1.984 -3.87201,3.648 -6.62402,4.992c-2.75198,1.34399 -6.272,2.016 -10.56,2.016zm-13.82401,-29.856l26.20801,0c-0.25598,-3.584 -1.53598,-6.368 -3.84,-8.352c-2.30399,-2.048 -5.31201,-3.072 -9.02399,-3.072c-3.71201,0 -6.75201,1.024 -9.12003,3.072c-2.30399,1.984 -3.71198,4.768 -4.224,8.352z"/>
 </g>
</svg>