<svg width="450" height="123" viewBox="0 0 450 123" fill="none" xmlns="http://www.w3.org/2000/svg">
<path d="M4.18957 30.1035C1.75069 34.2051 0.53125 38.7852 0.53125 43.8438V86.5H14.8258V43.8438C14.8258 40.2435 16.0904 37.1901 18.6196 34.6836C21.194 32.1315 24.2652 30.8555 27.8332 30.8555H46.5312V16.5H27.8332C22.8199 16.5 18.2357 17.7305 14.0806 20.1914C9.97062 22.6523 6.67362 25.9564 4.18957 30.1035Z" fill="#19462B"/>
<path d="M66.8729 92.5078C69.3118 88.2891 70.5313 83.5781 70.5313 78.375L70.5313 34.5L56.2367 34.5L56.2367 78.375C56.2367 82.0781 54.9721 85.2188 52.4429 87.7969C49.8685 90.4219 46.7973 91.7344 43.2293 91.7344L24.5312 91.7344L24.5312 106.5L43.2293 106.5C48.2426 106.5 52.8268 105.234 56.9819 102.703C61.0919 100.172 64.3889 96.7734 66.8729 92.5078Z" fill="#19462B"/>
<circle cx="36.5312" cy="60.5" r="6" fill="#19462B"/>
<path d="M121.076 55.8281C119.38 58.6406 118.531 61.7812 118.531 65.25V96.5H128.475V65.25C128.475 62.7812 129.355 60.6875 131.114 58.9688C132.905 57.2188 135.042 56.3438 137.524 56.3438H150.531V46.5H137.524C134.036 46.5 130.847 47.3438 127.957 49.0312C125.098 50.7188 122.804 52.9844 121.076 55.8281Z" fill="#19462B"/>
<path d="M179.523 95.844C174.723 95.844 170.531 94.852 166.947 92.868C163.363 90.82 160.547 87.972 158.499 84.324C156.515 80.612 155.523 76.324 155.523 71.46V70.308C155.523 65.38 156.515 61.092 158.499 57.444C160.483 53.732 163.235 50.884 166.755 48.9C170.339 46.852 174.467 45.828 179.139 45.828C183.683 45.828 187.651 46.852 191.043 48.9C194.499 50.884 197.187 53.668 199.107 57.252C201.027 60.836 201.987 65.028 201.987 69.828V73.572H165.603C165.731 77.732 167.107 81.06 169.731 83.556C172.419 85.988 175.747 87.204 179.715 87.204C183.427 87.204 186.211 86.372 188.067 84.708C189.987 83.044 191.459 81.124 192.483 78.948L200.643 83.172C199.747 84.964 198.435 86.852 196.707 88.836C195.043 90.82 192.835 92.484 190.083 93.828C187.331 95.172 183.811 95.844 179.523 95.844ZM165.699 65.988H191.907C191.651 62.404 190.371 59.62 188.067 57.636C185.763 55.588 182.755 54.564 179.043 54.564C175.331 54.564 172.291 55.588 169.923 57.636C167.619 59.62 166.211 62.404 165.699 65.988ZM213.89 94.5V27.3H223.778V94.5H213.89ZM260.148 95.844C255.348 95.844 251.156 94.852 247.572 92.868C243.988 90.82 241.172 87.972 239.124 84.324C237.14 80.612 236.148 76.324 236.148 71.46V70.308C236.148 65.38 237.14 61.092 239.124 57.444C241.108 53.732 243.86 50.884 247.38 48.9C250.964 46.852 255.092 45.828 259.764 45.828C264.308 45.828 268.276 46.852 271.668 48.9C275.124 50.884 277.812 53.668 279.732 57.252C281.652 60.836 282.612 65.028 282.612 69.828V73.572H246.228C246.356 77.732 247.732 81.06 250.356 83.556C253.044 85.988 256.372 87.204 260.34 87.204C264.052 87.204 266.836 86.372 268.692 84.708C270.612 83.044 272.084 81.124 273.108 78.948L281.268 83.172C280.372 84.964 279.06 86.852 277.332 88.836C275.668 90.82 273.46 92.484 270.708 93.828C267.956 95.172 264.436 95.844 260.148 95.844ZM246.324 65.988H272.532C272.276 62.404 270.996 59.62 268.692 57.636C266.388 55.588 263.38 54.564 259.668 54.564C255.956 54.564 252.916 55.588 250.548 57.636C248.244 59.62 246.836 62.404 246.324 65.988ZM309.203 95.844C305.811 95.844 302.771 95.268 300.083 94.116C297.459 92.964 295.347 91.268 293.747 89.028C292.211 86.788 291.443 84.068 291.443 80.868C291.443 77.604 292.211 74.916 293.747 72.804C295.347 70.628 297.491 68.996 300.179 67.908C302.931 66.82 306.035 66.276 309.491 66.276H323.891V63.204C323.891 60.452 323.059 58.244 321.395 56.58C319.731 54.916 317.171 54.084 313.715 54.084C310.323 54.084 307.731 54.884 305.939 56.484C304.147 58.084 302.963 60.164 302.387 62.724L293.171 59.748C293.939 57.188 295.155 54.884 296.819 52.836C298.547 50.724 300.819 49.028 303.635 47.748C306.451 46.468 309.843 45.828 313.811 45.828C319.955 45.828 324.787 47.396 328.307 50.532C331.827 53.668 333.587 58.116 333.587 63.876V83.364C333.587 85.284 334.483 86.244 336.275 86.244H340.307V94.5H332.915C330.675 94.5 328.851 93.924 327.443 92.772C326.035 91.62 325.331 90.052 325.331 88.068V87.78H323.891C323.379 88.74 322.611 89.86 321.587 91.14C320.563 92.42 319.059 93.54 317.075 94.5C315.091 95.396 312.467 95.844 309.203 95.844ZM310.643 87.684C314.611 87.684 317.811 86.564 320.243 84.324C322.675 82.02 323.891 78.884 323.891 74.916V73.956H310.067C307.443 73.956 305.331 74.532 303.731 75.684C302.131 76.772 301.331 78.404 301.331 80.58C301.331 82.756 302.163 84.484 303.827 85.764C305.491 87.044 307.763 87.684 310.643 87.684ZM368.938 95.844C362.922 95.844 357.93 94.5 353.962 91.812C349.994 89.124 347.562 85.06 346.666 79.62L355.882 77.412C356.394 80.036 357.258 82.116 358.474 83.652C359.69 85.188 361.194 86.276 362.986 86.916C364.842 87.556 366.826 87.876 368.938 87.876C372.074 87.876 374.474 87.268 376.138 86.052C377.866 84.836 378.73 83.268 378.73 81.348C378.73 79.428 377.93 78.02 376.33 77.124C374.73 76.228 372.362 75.492 369.226 74.916L365.962 74.34C362.762 73.764 359.85 72.932 357.226 71.844C354.602 70.756 352.522 69.252 350.986 67.332C349.45 65.412 348.682 62.948 348.682 59.94C348.682 55.46 350.346 52.004 353.674 49.572C357.002 47.076 361.418 45.828 366.922 45.828C372.234 45.828 376.586 47.044 379.978 49.476C383.434 51.844 385.674 55.076 386.698 59.172L377.482 61.764C376.906 58.884 375.69 56.868 373.834 55.716C371.978 54.5 369.674 53.892 366.922 53.892C364.234 53.892 362.122 54.404 360.586 55.428C359.05 56.388 358.282 57.764 358.282 59.556C358.282 61.476 359.018 62.884 360.49 63.78C362.026 64.676 364.074 65.348 366.634 65.796L369.994 66.372C373.386 66.948 376.49 67.748 379.306 68.772C382.122 69.796 384.33 71.268 385.93 73.188C387.594 75.108 388.426 77.668 388.426 80.868C388.426 85.604 386.666 89.284 383.146 91.908C379.626 94.532 374.89 95.844 368.938 95.844ZM421.68 95.844C416.88 95.844 412.688 94.852 409.104 92.868C405.52 90.82 402.704 87.972 400.656 84.324C398.672 80.612 397.68 76.324 397.68 71.46V70.308C397.68 65.38 398.672 61.092 400.656 57.444C402.64 53.732 405.392 50.884 408.912 48.9C412.496 46.852 416.624 45.828 421.296 45.828C425.84 45.828 429.808 46.852 433.2 48.9C436.656 50.884 439.344 53.668 441.264 57.252C443.184 60.836 444.144 65.028 444.144 69.828V73.572H407.76C407.888 77.732 409.264 81.06 411.888 83.556C414.576 85.988 417.904 87.204 421.872 87.204C425.584 87.204 428.368 86.372 430.224 84.708C432.144 83.044 433.616 81.124 434.64 78.948L442.8 83.172C441.904 84.964 440.592 86.852 438.864 88.836C437.2 90.82 434.992 92.484 432.24 93.828C429.488 95.172 425.968 95.844 421.68 95.844ZM407.856 65.988H434.064C433.808 62.404 432.528 59.62 430.224 57.636C427.92 55.588 424.912 54.564 421.2 54.564C417.488 54.564 414.448 55.588 412.08 57.636C409.776 59.62 408.368 62.404 407.856 65.988Z" fill="#19462B"/>
</svg>
